{"glyphs":{"0":{"ha":906,"x_min":76,"x_max":829,"o":"m 76 161 l 76 811 l 238 972 l 668 972 l 829 811 l 829 161 l 668 0 l 238 0 l 76 161 m 579 161 l 640 222 l 640 750 l 579 811 l 326 811 l 265 750 l 265 222 l 326 161 l 579 161 z "},"1":{"ha":531,"x_min":35,"x_max":433,"o":"m 244 771 l 35 663 l 35 836 l 282 972 l 433 972 l 433 0 l 244 0 l 244 771 z "},"2":{"ha":797,"x_min":49,"x_max":749,"o":"m 54 213 l 554 667 l 554 765 l 508 811 l 283 811 l 238 765 l 238 667 l 49 667 l 49 822 l 199 972 l 593 972 l 743 822 l 743 611 l 250 172 l 250 158 l 749 158 l 749 0 l 54 0 l 54 213 z "},"3":{"ha":838,"x_min":49,"x_max":768,"o":"m 49 150 l 49 303 l 238 303 l 238 207 l 283 161 l 533 161 l 579 207 l 579 364 l 535 408 l 257 408 l 257 569 l 535 569 l 579 614 l 579 765 l 533 811 l 292 811 l 246 765 l 246 669 l 57 669 l 57 822 l 207 972 l 618 972 l 768 822 l 768 558 l 697 489 l 768 418 l 768 150 l 618 0 l 199 0 l 49 150 z "},"4":{"ha":804,"x_min":14,"x_max":790,"o":"m 483 181 l 14 181 l 14 371 l 446 972 l 672 972 l 672 342 l 790 342 l 790 181 l 672 181 l 672 0 l 483 0 l 483 181 m 492 336 l 492 761 l 486 761 l 199 356 l 199 336 l 492 336 z "},"5":{"ha":842,"x_min":63,"x_max":779,"o":"m 63 150 l 63 308 l 251 308 l 251 207 l 297 161 l 544 161 l 590 207 l 590 426 l 544 472 l 76 472 l 76 972 l 760 972 l 760 811 l 263 811 l 263 633 l 628 633 l 779 482 l 779 150 l 629 0 l 213 0 l 63 150 z "},"6":{"ha":864,"x_min":76,"x_max":801,"o":"m 76 150 l 76 822 l 226 972 l 646 972 l 796 822 l 796 683 l 607 683 l 607 763 l 558 811 l 314 811 l 265 763 l 265 533 l 347 613 l 651 613 l 801 463 l 801 150 l 651 0 l 226 0 l 76 150 m 564 161 l 613 210 l 613 403 l 564 451 l 367 451 l 265 347 l 265 210 l 314 161 l 564 161 z "},"7":{"ha":725,"x_min":7,"x_max":690,"o":"m 493 799 l 493 811 l 7 811 l 7 972 l 690 972 l 690 794 l 300 0 l 100 0 l 493 799 z "},"8":{"ha":886,"x_min":69,"x_max":817,"o":"m 69 150 l 69 414 l 157 501 l 83 575 l 83 822 l 233 972 l 653 972 l 803 822 l 803 575 l 729 501 l 817 414 l 817 150 l 667 0 l 219 0 l 69 150 m 565 572 l 614 621 l 614 763 l 565 811 l 321 811 l 272 763 l 272 621 l 321 572 l 565 572 m 579 161 l 628 210 l 628 365 l 579 414 l 307 414 l 258 365 l 258 210 l 307 161 l 579 161 z "},"9":{"ha":871,"x_min":69,"x_max":794,"o":"m 83 150 l 83 274 l 272 274 l 272 210 l 321 161 l 557 161 l 606 210 l 606 433 l 526 354 l 219 354 l 69 504 l 69 822 l 219 972 l 644 972 l 794 822 l 794 150 l 644 0 l 233 0 l 83 150 m 515 515 l 606 606 l 606 763 l 557 811 l 307 811 l 258 763 l 258 564 l 307 515 l 515 515 z "},"\u0000":{"ha":0,"x_min":0,"x_max":0,"o":""},"\r":{"ha":378,"x_min":0,"x_max":0,"o":""}," ":{"ha":378,"x_min":0,"x_max":0,"o":""},"A":{"ha":897,"x_min":7,"x_max":890,"o":"m 363 972 l 535 972 l 890 0 l 699 0 l 619 215 l 278 215 l 199 0 l 7 0 l 363 972 m 578 371 l 449 740 l 446 740 l 321 371 l 578 371 z "},"Á":{"ha":897,"x_min":7,"x_max":890,"o":"m 363 972 l 535 972 l 890 0 l 699 0 l 619 215 l 278 215 l 199 0 l 7 0 l 363 972 m 578 371 l 449 740 l 446 740 l 321 371 l 578 371 m 471 1271 l 664 1271 l 526 1036 l 365 1036 l 471 1271 z "},"Ă":{"ha":897,"x_min":7,"x_max":890,"o":"m 363 972 l 535 972 l 890 0 l 699 0 l 619 215 l 278 215 l 199 0 l 7 0 l 363 972 m 578 371 l 449 740 l 446 740 l 321 371 l 578 371 m 215 1151 l 215 1257 l 371 1257 l 371 1190 l 408 1153 l 489 1153 l 526 1190 l 526 1257 l 682 1257 l 682 1151 l 567 1036 l 331 1036 l 215 1151 z "},"Ắ":{"ha":897,"x_min":7,"x_max":890,"o":"m 363 972 l 535 972 l 890 0 l 699 0 l 619 215 l 278 215 l 199 0 l 7 0 l 363 972 m 578 371 l 449 740 l 446 740 l 321 371 l 578 371 m 460 1500 l 633 1500 l 514 1307 l 372 1307 l 460 1500 m 215 1151 l 215 1257 l 371 1257 l 371 1190 l 408 1153 l 489 1153 l 526 1190 l 526 1257 l 682 1257 l 682 1151 l 567 1036 l 331 1036 l 215 1151 z "},"Ặ":{"ha":897,"x_min":7,"x_max":890,"o":"m 363 972 l 535 972 l 890 0 l 699 0 l 619 215 l 278 215 l 199 0 l 7 0 l 363 972 m 578 371 l 449 740 l 446 740 l 321 371 l 578 371 m 215 1151 l 215 1257 l 371 1257 l 371 1190 l 408 1153 l 489 1153 l 526 1190 l 526 1257 l 682 1257 l 682 1151 l 567 1036 l 331 1036 l 215 1151 z "},"Ằ":{"ha":897,"x_min":7,"x_max":890,"o":"m 363 972 l 535 972 l 890 0 l 699 0 l 619 215 l 278 215 l 199 0 l 7 0 l 363 972 m 578 371 l 449 740 l 446 740 l 321 371 l 578 371 m 257 1500 l 431 1500 l 518 1307 l 376 1307 l 257 1500 m 215 1151 l 215 1257 l 371 1257 l 371 1190 l 408 1153 l 489 1153 l 526 1190 l 526 1257 l 682 1257 l 682 1151 l 567 1036 l 331 1036 l 215 1151 z "},"Ẳ":{"ha":897,"x_min":7,"x_max":890,"o":"m 363 972 l 535 972 l 890 0 l 699 0 l 619 215 l 278 215 l 199 0 l 7 0 l 363 972 m 578 371 l 449 740 l 446 740 l 321 371 l 578 371 m 381 1356 l 482 1432 l 482 1461 l 468 1475 l 429 1475 l 415 1461 l 415 1422 l 293 1422 l 293 1492 l 371 1569 l 526 1569 l 604 1492 l 604 1399 l 518 1338 l 518 1307 l 381 1307 l 381 1356 m 215 1151 l 215 1257 l 371 1257 l 371 1190 l 408 1153 l 489 1153 l 526 1190 l 526 1257 l 682 1257 l 682 1151 l 567 1036 l 331 1036 l 215 1151 z "},"Ẵ":{"ha":897,"x_min":7,"x_max":890,"o":"m 363 972 l 535 972 l 890 0 l 699 0 l 619 215 l 278 215 l 199 0 l 7 0 l 363 972 m 578 371 l 449 740 l 446 740 l 321 371 l 578 371 m 393 1376 l 358 1376 l 340 1360 l 340 1315 l 218 1315 l 218 1397 l 311 1490 l 415 1490 l 504 1421 l 540 1421 l 557 1438 l 557 1482 l 679 1482 l 679 1400 l 586 1307 l 482 1307 l 393 1376 m 215 1151 l 215 1257 l 371 1257 l 371 1190 l 408 1153 l 489 1153 l 526 1190 l 526 1257 l 682 1257 l 682 1151 l 567 1036 l 331 1036 l 215 1151 z "},"Ǎ":{"ha":897,"x_min":7,"x_max":890,"o":"m 363 972 l 535 972 l 890 0 l 699 0 l 619 215 l 278 215 l 199 0 l 7 0 l 363 972 m 578 371 l 449 740 l 446 740 l 321 371 l 578 371 m 178 1260 l 354 1260 l 444 1156 l 453 1156 l 543 1260 l 719 1260 l 522 1036 l 375 1036 l 178 1260 z "},"Â":{"ha":897,"x_min":7,"x_max":890,"o":"m 363 972 l 535 972 l 890 0 l 699 0 l 619 215 l 278 215 l 199 0 l 7 0 l 363 972 m 578 371 l 449 740 l 446 740 l 321 371 l 578 371 m 375 1260 l 522 1260 l 719 1036 l 543 1036 l 453 1140 l 444 1140 l 354 1036 l 178 1036 l 375 1260 z "},"Ấ":{"ha":897,"x_min":7,"x_max":890,"o":"m 363 972 l 535 972 l 890 0 l 699 0 l 619 215 l 278 215 l 199 0 l 7 0 l 363 972 m 578 371 l 449 740 l 446 740 l 321 371 l 578 371 m 685 1422 l 858 1422 l 739 1229 l 597 1229 l 685 1422 m 375 1260 l 522 1260 l 719 1036 l 543 1036 l 453 1140 l 444 1140 l 354 1036 l 178 1036 l 375 1260 z "},"Ậ":{"ha":897,"x_min":7,"x_max":890,"o":"m 363 972 l 535 972 l 890 0 l 699 0 l 619 215 l 278 215 l 199 0 l 7 0 l 363 972 m 578 371 l 449 740 l 446 740 l 321 371 l 578 371 m 375 1260 l 522 1260 l 719 1036 l 543 1036 l 453 1140 l 444 1140 l 354 1036 l 178 1036 l 375 1260 z "},"Ầ":{"ha":897,"x_min":7,"x_max":890,"o":"m 363 972 l 535 972 l 890 0 l 699 0 l 619 215 l 278 215 l 199 0 l 7 0 l 363 972 m 578 371 l 449 740 l 446 740 l 321 371 l 578 371 m 514 1422 l 688 1422 l 775 1229 l 633 1229 l 514 1422 m 375 1260 l 522 1260 l 719 1036 l 543 1036 l 453 1140 l 444 1140 l 354 1036 l 178 1036 l 375 1260 z "},"Ẩ":{"ha":897,"x_min":7,"x_max":890,"o":"m 363 972 l 535 972 l 890 0 l 699 0 l 619 215 l 278 215 l 199 0 l 7 0 l 363 972 m 578 371 l 449 740 l 446 740 l 321 371 l 578 371 m 638 1242 l 739 1321 l 739 1353 l 725 1367 l 686 1367 l 672 1353 l 672 1311 l 550 1311 l 550 1386 l 628 1464 l 783 1464 l 861 1386 l 861 1288 l 775 1224 l 775 1190 l 638 1190 l 638 1242 m 375 1260 l 522 1260 l 719 1036 l 543 1036 l 453 1140 l 444 1140 l 354 1036 l 178 1036 l 375 1260 z "},"Ẫ":{"ha":897,"x_min":7,"x_max":890,"o":"m 363 972 l 535 972 l 890 0 l 699 0 l 619 215 l 278 215 l 199 0 l 7 0 l 363 972 m 578 371 l 449 740 l 446 740 l 321 371 l 578 371 m 393 1379 l 358 1379 l 340 1363 l 340 1318 l 218 1318 l 218 1400 l 311 1493 l 415 1493 l 504 1424 l 540 1424 l 557 1440 l 557 1485 l 679 1485 l 679 1403 l 586 1310 l 482 1310 l 393 1379 m 375 1260 l 522 1260 l 719 1036 l 543 1036 l 453 1140 l 444 1140 l 354 1036 l 178 1036 l 375 1260 z "},"Ä":{"ha":897,"x_min":7,"x_max":890,"o":"m 363 972 l 535 972 l 890 0 l 699 0 l 619 215 l 278 215 l 199 0 l 7 0 l 363 972 m 578 371 l 449 740 l 446 740 l 321 371 l 578 371 m 196 1100 l 196 1181 l 250 1235 l 343 1235 l 396 1179 l 396 1101 l 343 1046 l 250 1046 l 196 1100 m 501 1101 l 501 1179 l 554 1235 l 647 1235 l 701 1181 l 701 1100 l 647 1046 l 554 1046 l 501 1101 z "},"Ạ":{"ha":897,"x_min":7,"x_max":890,"o":"m 363 972 l 535 972 l 890 0 l 699 0 l 619 215 l 278 215 l 199 0 l 7 0 l 363 972 m 578 371 l 449 740 l 446 740 l 321 371 l 578 371 z "},"À":{"ha":897,"x_min":7,"x_max":890,"o":"m 363 972 l 535 972 l 890 0 l 699 0 l 619 215 l 278 215 l 199 0 l 7 0 l 363 972 m 578 371 l 449 740 l 446 740 l 321 371 l 578 371 m 224 1271 l 417 1271 l 522 1036 l 361 1036 l 224 1271 z "},"Ả":{"ha":897,"x_min":7,"x_max":890,"o":"m 363 972 l 535 972 l 890 0 l 699 0 l 619 215 l 278 215 l 199 0 l 7 0 l 363 972 m 578 371 l 449 740 l 446 740 l 321 371 l 578 371 m 368 1117 l 492 1210 l 492 1249 l 475 1265 l 422 1265 l 406 1249 l 406 1194 l 263 1194 l 263 1289 l 356 1382 l 542 1382 l 635 1289 l 635 1169 l 531 1092 l 531 1036 l 368 1036 l 368 1117 z "},"Ā":{"ha":897,"x_min":7,"x_max":890,"o":"m 363 972 l 535 972 l 890 0 l 699 0 l 619 215 l 278 215 l 199 0 l 7 0 l 363 972 m 578 371 l 449 740 l 446 740 l 321 371 l 578 371 m 213 1197 l 685 1197 l 685 1050 l 213 1050 l 213 1197 z "},"Ą":{"ha":897,"x_min":7,"x_max":933,"o":"m 363 972 l 535 972 l 890 0 l 699 0 l 619 215 l 278 215 l 199 0 l 7 0 l 363 972 m 578 371 l 449 740 l 446 740 l 321 371 l 578 371 m 628 -221 l 628 -100 l 725 0 l 890 0 l 786 -108 l 786 -157 l 811 -182 l 933 -182 l 933 -310 l 717 -310 l 628 -221 z "},"Å":{"ha":897,"x_min":7,"x_max":890,"o":"m 363 972 l 535 972 l 890 0 l 699 0 l 619 215 l 278 215 l 199 0 l 7 0 l 363 972 m 578 371 l 449 740 l 446 740 l 321 371 l 578 371 m 276 1132 l 276 1268 l 372 1364 l 525 1364 l 621 1268 l 621 1132 l 525 1036 l 372 1036 l 276 1132 m 479 1140 l 513 1174 l 513 1226 l 479 1260 l 418 1260 l 385 1226 l 385 1174 l 418 1140 l 479 1140 z "},"Ǻ":{"ha":897,"x_min":7,"x_max":890,"o":"m 363 972 l 535 972 l 890 0 l 699 0 l 619 215 l 278 215 l 199 0 l 7 0 l 363 972 m 578 371 l 449 740 l 446 740 l 321 371 l 578 371 m 276 1132 l 276 1268 l 372 1364 l 525 1364 l 621 1268 l 621 1132 l 525 1036 l 372 1036 l 276 1132 m 479 1140 l 513 1174 l 513 1226 l 479 1260 l 418 1260 l 385 1226 l 385 1174 l 418 1140 l 479 1140 m 471 1663 l 664 1663 l 526 1428 l 365 1428 l 471 1663 z "},"Ã":{"ha":897,"x_min":7,"x_max":890,"o":"m 363 972 l 535 972 l 890 0 l 699 0 l 619 215 l 278 215 l 199 0 l 7 0 l 363 972 m 578 371 l 449 740 l 446 740 l 321 371 l 578 371 m 389 1122 l 358 1122 l 340 1106 l 340 1060 l 207 1058 l 207 1157 l 303 1253 l 419 1253 l 508 1181 l 540 1181 l 557 1197 l 557 1244 l 690 1244 l 690 1146 l 594 1050 l 478 1050 l 389 1122 z "},"Æ":{"ha":1329,"x_min":0,"x_max":1281,"o":"m 783 808 l 783 569 l 1240 569 l 1240 408 l 783 408 l 783 164 l 1281 164 l 1281 0 l 594 0 l 594 249 l 306 249 l 197 0 l 0 0 l 435 972 l 1281 972 l 1281 808 l 783 808 m 594 407 l 594 808 l 549 808 l 374 407 l 594 407 z "},"Ǽ":{"ha":1329,"x_min":0,"x_max":1281,"o":"m 783 808 l 783 569 l 1240 569 l 1240 408 l 783 408 l 783 164 l 1281 164 l 1281 0 l 594 0 l 594 249 l 306 249 l 197 0 l 0 0 l 435 972 l 1281 972 l 1281 808 l 783 808 m 594 407 l 594 808 l 549 808 l 374 407 l 594 407 m 761 1271 l 954 1271 l 817 1036 l 656 1036 l 761 1271 z "},"B":{"ha":931,"x_min":90,"x_max":882,"o":"m 90 972 l 700 972 l 839 833 l 839 561 l 783 504 l 882 404 l 882 150 l 732 0 l 90 0 l 90 972 m 603 565 l 653 615 l 653 765 l 604 814 l 275 814 l 275 565 l 603 565 m 636 158 l 696 218 l 696 354 l 636 414 l 275 414 l 275 158 l 636 158 z "},"C":{"ha":910,"x_min":76,"x_max":868,"o":"m 76 160 l 76 813 l 236 972 l 711 972 l 868 815 l 868 667 l 679 667 l 679 746 l 614 811 l 336 811 l 265 740 l 265 232 l 336 161 l 614 161 l 679 226 l 679 306 l 868 306 l 868 157 l 711 0 l 236 0 l 76 160 z "},"Ć":{"ha":910,"x_min":76,"x_max":868,"o":"m 76 160 l 76 813 l 236 972 l 711 972 l 868 815 l 868 667 l 679 667 l 679 746 l 614 811 l 336 811 l 265 740 l 265 232 l 336 161 l 614 161 l 679 226 l 679 306 l 868 306 l 868 157 l 711 0 l 236 0 l 76 160 m 497 1271 l 690 1271 l 553 1036 l 392 1036 l 497 1271 z "},"Č":{"ha":910,"x_min":76,"x_max":868,"o":"m 76 160 l 76 813 l 236 972 l 711 972 l 868 815 l 868 667 l 679 667 l 679 746 l 614 811 l 336 811 l 265 740 l 265 232 l 336 161 l 614 161 l 679 226 l 679 306 l 868 306 l 868 157 l 711 0 l 236 0 l 76 160 m 204 1260 l 381 1260 l 471 1156 l 479 1156 l 569 1260 l 746 1260 l 549 1036 l 401 1036 l 204 1260 z "},"Ç":{"ha":910,"x_min":76,"x_max":868,"o":"m 679 667 l 679 746 l 614 811 l 336 811 l 265 740 l 265 232 l 336 161 l 614 161 l 679 226 l 679 306 l 868 306 l 868 157 l 711 0 l 526 0 l 507 -47 l 579 -47 l 649 -117 l 649 -239 l 576 -311 l 335 -311 l 335 -208 l 499 -208 l 515 -192 l 515 -156 l 499 -139 l 361 -139 l 361 -96 l 397 0 l 236 0 l 76 160 l 76 813 l 236 972 l 711 972 l 868 815 l 868 667 l 679 667 z "},"Ĉ":{"ha":910,"x_min":76,"x_max":868,"o":"m 76 160 l 76 813 l 236 972 l 711 972 l 868 815 l 868 667 l 679 667 l 679 746 l 614 811 l 336 811 l 265 740 l 265 232 l 336 161 l 614 161 l 679 226 l 679 306 l 868 306 l 868 157 l 711 0 l 236 0 l 76 160 m 401 1260 l 549 1260 l 746 1036 l 569 1036 l 479 1140 l 471 1140 l 381 1036 l 204 1036 l 401 1260 z "},"Ċ":{"ha":910,"x_min":76,"x_max":868,"o":"m 76 160 l 76 813 l 236 972 l 711 972 l 868 815 l 868 667 l 679 667 l 679 746 l 614 811 l 336 811 l 265 740 l 265 232 l 336 161 l 614 161 l 679 226 l 679 306 l 868 306 l 868 157 l 711 0 l 236 0 l 76 160 m 369 1097 l 369 1183 l 426 1240 l 524 1240 l 581 1183 l 581 1097 l 524 1040 l 426 1040 l 369 1097 z "},"D":{"ha":956,"x_min":90,"x_max":879,"o":"m 90 972 l 713 972 l 879 806 l 879 167 l 713 0 l 90 0 l 90 972 m 619 161 l 690 232 l 690 740 l 619 811 l 279 811 l 279 161 l 619 161 z "},"Ð":{"ha":1025,"x_min":14,"x_max":949,"o":"m 949 806 l 949 167 l 782 0 l 160 0 l 160 406 l 14 406 l 14 569 l 160 569 l 160 972 l 782 972 l 949 806 m 760 740 l 689 811 l 349 811 l 349 569 l 563 569 l 563 406 l 349 406 l 349 161 l 689 161 l 760 232 l 760 740 z "},"Ď":{"ha":956,"x_min":90,"x_max":879,"o":"m 90 972 l 713 972 l 879 806 l 879 167 l 713 0 l 90 0 l 90 972 m 619 161 l 690 232 l 690 740 l 619 811 l 279 811 l 279 161 l 619 161 m 199 1260 l 375 1260 l 465 1156 l 474 1156 l 564 1260 l 740 1260 l 543 1036 l 396 1036 l 199 1260 z "},"Đ":{"ha":1025,"x_min":14,"x_max":949,"o":"m 949 806 l 949 167 l 782 0 l 160 0 l 160 406 l 14 406 l 14 569 l 160 569 l 160 972 l 782 972 l 949 806 m 760 740 l 689 811 l 349 811 l 349 569 l 563 569 l 563 406 l 349 406 l 349 161 l 689 161 l 760 232 l 760 740 z "},"Ḍ":{"ha":956,"x_min":90,"x_max":879,"o":"m 90 972 l 713 972 l 879 806 l 879 167 l 713 0 l 90 0 l 90 972 m 619 161 l 690 232 l 690 740 l 619 811 l 279 811 l 279 161 l 619 161 z "},"Ḏ":{"ha":956,"x_min":90,"x_max":879,"o":"m 90 972 l 713 972 l 879 806 l 879 167 l 713 0 l 90 0 l 90 972 m 619 161 l 690 232 l 690 740 l 619 811 l 279 811 l 279 161 l 619 161 z "},"E":{"ha":842,"x_min":90,"x_max":793,"o":"m 90 972 l 793 972 l 793 813 l 279 813 l 279 567 l 753 567 l 753 410 l 279 410 l 279 160 l 793 160 l 793 0 l 90 0 l 90 972 z "},"É":{"ha":842,"x_min":90,"x_max":793,"o":"m 90 972 l 793 972 l 793 813 l 279 813 l 279 567 l 753 567 l 753 410 l 279 410 l 279 160 l 793 160 l 793 0 l 90 0 l 90 972 m 472 1271 l 665 1271 l 528 1036 l 367 1036 l 472 1271 z "},"Ĕ":{"ha":842,"x_min":90,"x_max":793,"o":"m 90 972 l 793 972 l 793 813 l 279 813 l 279 567 l 753 567 l 753 410 l 279 410 l 279 160 l 793 160 l 793 0 l 90 0 l 90 972 m 214 1151 l 214 1257 l 369 1257 l 369 1190 l 407 1153 l 488 1153 l 525 1190 l 525 1257 l 681 1257 l 681 1151 l 565 1036 l 329 1036 l 214 1151 z "},"Ě":{"ha":842,"x_min":90,"x_max":793,"o":"m 90 972 l 793 972 l 793 813 l 279 813 l 279 567 l 753 567 l 753 410 l 279 410 l 279 160 l 793 160 l 793 0 l 90 0 l 90 972 m 179 1260 l 356 1260 l 446 1156 l 454 1156 l 544 1260 l 721 1260 l 524 1036 l 376 1036 l 179 1260 z "},"Ê":{"ha":842,"x_min":90,"x_max":793,"o":"m 90 972 l 793 972 l 793 813 l 279 813 l 279 567 l 753 567 l 753 410 l 279 410 l 279 160 l 793 160 l 793 0 l 90 0 l 90 972 m 376 1260 l 524 1260 l 721 1036 l 544 1036 l 454 1140 l 446 1140 l 356 1036 l 179 1036 l 376 1260 z "},"Ế":{"ha":842,"x_min":90,"x_max":860,"o":"m 90 972 l 793 972 l 793 813 l 279 813 l 279 567 l 753 567 l 753 410 l 279 410 l 279 160 l 793 160 l 793 0 l 90 0 l 90 972 m 686 1422 l 860 1422 l 740 1229 l 599 1229 l 686 1422 m 376 1260 l 524 1260 l 721 1036 l 544 1036 l 454 1140 l 446 1140 l 356 1036 l 179 1036 l 376 1260 z "},"Ệ":{"ha":842,"x_min":90,"x_max":793,"o":"m 90 972 l 793 972 l 793 813 l 279 813 l 279 567 l 753 567 l 753 410 l 279 410 l 279 160 l 793 160 l 793 0 l 90 0 l 90 972 m 376 1260 l 524 1260 l 721 1036 l 544 1036 l 454 1140 l 446 1140 l 356 1036 l 179 1036 l 376 1260 z "},"Ề":{"ha":842,"x_min":90,"x_max":793,"o":"m 90 972 l 793 972 l 793 813 l 279 813 l 279 567 l 753 567 l 753 410 l 279 410 l 279 160 l 793 160 l 793 0 l 90 0 l 90 972 m 515 1422 l 689 1422 l 776 1229 l 635 1229 l 515 1422 m 376 1260 l 524 1260 l 721 1036 l 544 1036 l 454 1140 l 446 1140 l 356 1036 l 179 1036 l 376 1260 z "},"Ể":{"ha":842,"x_min":90,"x_max":863,"o":"m 90 972 l 793 972 l 793 813 l 279 813 l 279 567 l 753 567 l 753 410 l 279 410 l 279 160 l 793 160 l 793 0 l 90 0 l 90 972 m 639 1242 l 740 1321 l 740 1353 l 726 1367 l 688 1367 l 674 1353 l 674 1311 l 551 1311 l 551 1386 l 629 1464 l 785 1464 l 863 1386 l 863 1288 l 776 1224 l 776 1190 l 639 1190 l 639 1242 m 376 1260 l 524 1260 l 721 1036 l 544 1036 l 454 1140 l 446 1140 l 356 1036 l 179 1036 l 376 1260 z "},"Ễ":{"ha":842,"x_min":90,"x_max":793,"o":"m 90 972 l 793 972 l 793 813 l 279 813 l 279 567 l 753 567 l 753 410 l 279 410 l 279 160 l 793 160 l 793 0 l 90 0 l 90 972 m 394 1379 l 360 1379 l 342 1363 l 342 1318 l 219 1318 l 219 1400 l 313 1493 l 417 1493 l 506 1424 l 542 1424 l 558 1440 l 558 1485 l 681 1485 l 681 1403 l 588 1310 l 483 1310 l 394 1379 m 376 1260 l 524 1260 l 721 1036 l 544 1036 l 454 1140 l 446 1140 l 356 1036 l 179 1036 l 376 1260 z "},"Ë":{"ha":842,"x_min":90,"x_max":793,"o":"m 90 972 l 793 972 l 793 813 l 279 813 l 279 567 l 753 567 l 753 410 l 279 410 l 279 160 l 793 160 l 793 0 l 90 0 l 90 972 m 197 1100 l 197 1181 l 251 1235 l 344 1235 l 397 1179 l 397 1101 l 344 1046 l 251 1046 l 197 1100 m 503 1101 l 503 1179 l 556 1235 l 649 1235 l 703 1181 l 703 1100 l 649 1046 l 556 1046 l 503 1101 z "},"Ė":{"ha":842,"x_min":90,"x_max":793,"o":"m 90 972 l 793 972 l 793 813 l 279 813 l 279 567 l 753 567 l 753 410 l 279 410 l 279 160 l 793 160 l 793 0 l 90 0 l 90 972 m 344 1097 l 344 1183 l 401 1240 l 499 1240 l 556 1183 l 556 1097 l 499 1040 l 401 1040 l 344 1097 z "},"Ẹ":{"ha":842,"x_min":90,"x_max":793,"o":"m 90 972 l 793 972 l 793 813 l 279 813 l 279 567 l 753 567 l 753 410 l 279 410 l 279 160 l 793 160 l 793 0 l 90 0 l 90 972 z "},"È":{"ha":842,"x_min":90,"x_max":793,"o":"m 90 972 l 793 972 l 793 813 l 279 813 l 279 567 l 753 567 l 753 410 l 279 410 l 279 160 l 793 160 l 793 0 l 90 0 l 90 972 m 235 1271 l 428 1271 l 533 1036 l 372 1036 l 235 1271 z "},"Ẻ":{"ha":842,"x_min":90,"x_max":793,"o":"m 90 972 l 793 972 l 793 813 l 279 813 l 279 567 l 753 567 l 753 410 l 279 410 l 279 160 l 793 160 l 793 0 l 90 0 l 90 972 m 369 1117 l 493 1210 l 493 1249 l 476 1265 l 424 1265 l 407 1249 l 407 1194 l 264 1194 l 264 1289 l 357 1382 l 543 1382 l 636 1289 l 636 1169 l 532 1092 l 532 1036 l 369 1036 l 369 1117 z "},"Ē":{"ha":842,"x_min":90,"x_max":793,"o":"m 90 972 l 793 972 l 793 813 l 279 813 l 279 567 l 753 567 l 753 410 l 279 410 l 279 160 l 793 160 l 793 0 l 90 0 l 90 972 m 214 1197 l 686 1197 l 686 1050 l 214 1050 l 214 1197 z "},"Ę":{"ha":842,"x_min":90,"x_max":836,"o":"m 90 972 l 793 972 l 793 813 l 279 813 l 279 567 l 753 567 l 753 410 l 279 410 l 279 160 l 793 160 l 793 0 l 90 0 l 90 972 m 531 -221 l 531 -100 l 628 0 l 793 0 l 689 -108 l 689 -157 l 714 -182 l 836 -182 l 836 -310 l 619 -310 l 531 -221 z "},"Ẽ":{"ha":842,"x_min":90,"x_max":793,"o":"m 90 972 l 793 972 l 793 813 l 279 813 l 279 567 l 753 567 l 753 410 l 279 410 l 279 160 l 793 160 l 793 0 l 90 0 l 90 972 m 390 1122 l 360 1122 l 342 1106 l 342 1060 l 208 1058 l 208 1157 l 304 1253 l 421 1253 l 510 1181 l 542 1181 l 558 1197 l 558 1244 l 692 1244 l 692 1146 l 596 1050 l 479 1050 l 390 1122 z "},"F":{"ha":800,"x_min":90,"x_max":779,"o":"m 90 972 l 779 972 l 779 813 l 279 813 l 279 543 l 713 543 l 713 383 l 279 383 l 279 0 l 90 0 l 90 972 z "},"G":{"ha":939,"x_min":76,"x_max":876,"o":"m 76 160 l 76 813 l 236 972 l 719 972 l 876 815 l 876 667 l 688 667 l 688 746 l 622 811 l 336 811 l 265 740 l 265 232 l 336 161 l 625 161 l 693 229 l 693 381 l 485 381 l 485 542 l 876 542 l 876 160 l 717 0 l 236 0 l 76 160 z "},"Ğ":{"ha":939,"x_min":76,"x_max":876,"o":"m 76 160 l 76 813 l 236 972 l 719 972 l 876 815 l 876 667 l 688 667 l 688 746 l 622 811 l 336 811 l 265 740 l 265 232 l 336 161 l 625 161 l 693 229 l 693 381 l 485 381 l 485 542 l 876 542 l 876 160 l 717 0 l 236 0 l 76 160 m 242 1151 l 242 1257 l 397 1257 l 397 1190 l 435 1153 l 515 1153 l 553 1190 l 553 1257 l 708 1257 l 708 1151 l 593 1036 l 357 1036 l 242 1151 z "},"Ǧ":{"ha":939,"x_min":76,"x_max":876,"o":"m 76 160 l 76 813 l 236 972 l 719 972 l 876 815 l 876 667 l 688 667 l 688 746 l 622 811 l 336 811 l 265 740 l 265 232 l 336 161 l 625 161 l 693 229 l 693 381 l 485 381 l 485 542 l 876 542 l 876 160 l 717 0 l 236 0 l 76 160 m 204 1260 l 381 1260 l 471 1156 l 479 1156 l 569 1260 l 746 1260 l 549 1036 l 401 1036 l 204 1260 z "},"Ĝ":{"ha":939,"x_min":76,"x_max":876,"o":"m 76 160 l 76 813 l 236 972 l 719 972 l 876 815 l 876 667 l 688 667 l 688 746 l 622 811 l 336 811 l 265 740 l 265 232 l 336 161 l 625 161 l 693 229 l 693 381 l 485 381 l 485 542 l 876 542 l 876 160 l 717 0 l 236 0 l 76 160 m 401 1260 l 549 1260 l 746 1036 l 569 1036 l 479 1140 l 471 1140 l 381 1036 l 204 1036 l 401 1260 z "},"Ģ":{"ha":939,"x_min":76,"x_max":876,"o":"m 76 160 l 76 813 l 236 972 l 719 972 l 876 815 l 876 667 l 688 667 l 688 746 l 622 811 l 336 811 l 265 740 l 265 232 l 336 161 l 625 161 l 693 229 l 693 381 l 485 381 l 485 542 l 876 542 l 876 160 l 717 0 l 236 0 l 76 160 z "},"Ġ":{"ha":939,"x_min":76,"x_max":876,"o":"m 76 160 l 76 813 l 236 972 l 719 972 l 876 815 l 876 667 l 688 667 l 688 746 l 622 811 l 336 811 l 265 740 l 265 232 l 336 161 l 625 161 l 693 229 l 693 381 l 485 381 l 485 542 l 876 542 l 876 160 l 717 0 l 236 0 l 76 160 m 369 1097 l 369 1183 l 426 1240 l 524 1240 l 581 1183 l 581 1097 l 524 1040 l 426 1040 l 369 1097 z "},"Ḡ":{"ha":939,"x_min":76,"x_max":876,"o":"m 76 160 l 76 813 l 236 972 l 719 972 l 876 815 l 876 667 l 688 667 l 688 746 l 622 811 l 336 811 l 265 740 l 265 232 l 336 161 l 625 161 l 693 229 l 693 381 l 485 381 l 485 542 l 876 542 l 876 160 l 717 0 l 236 0 l 76 160 m 239 1197 l 711 1197 l 711 1050 l 239 1050 l 239 1197 z "},"H":{"ha":969,"x_min":90,"x_max":879,"o":"m 90 972 l 279 972 l 279 565 l 690 565 l 690 972 l 879 972 l 879 0 l 690 0 l 690 404 l 279 404 l 279 0 l 90 0 l 90 972 z "},"Ħ":{"ha":1065,"x_min":14,"x_max":1051,"o":"m 1051 686 l 926 686 l 926 0 l 738 0 l 738 404 l 326 404 l 326 0 l 138 0 l 138 686 l 14 686 l 14 825 l 138 825 l 138 972 l 326 972 l 326 825 l 738 825 l 738 972 l 926 972 l 926 825 l 1051 825 l 1051 686 m 738 686 l 326 686 l 326 565 l 738 565 l 738 686 z "},"Ḫ":{"ha":969,"x_min":90,"x_max":879,"o":"m 90 972 l 279 972 l 279 565 l 690 565 l 690 972 l 879 972 l 879 0 l 690 0 l 690 404 l 279 404 l 279 0 l 90 0 l 90 972 z "},"Ĥ":{"ha":969,"x_min":90,"x_max":879,"o":"m 90 972 l 279 972 l 279 565 l 690 565 l 690 972 l 879 972 l 879 0 l 690 0 l 690 404 l 279 404 l 279 0 l 90 0 l 90 972 m 411 1260 l 558 1260 l 756 1036 l 579 1036 l 489 1140 l 481 1140 l 390 1036 l 214 1036 l 411 1260 z "},"Ḥ":{"ha":969,"x_min":90,"x_max":879,"o":"m 90 972 l 279 972 l 279 565 l 690 565 l 690 972 l 879 972 l 879 0 l 690 0 l 690 404 l 279 404 l 279 0 l 90 0 l 90 972 z "},"I":{"ha":383,"x_min":97,"x_max":286,"o":"m 97 972 l 286 972 l 286 0 l 97 0 l 97 972 z "},"Ĳ":{"ha":1140,"x_min":97,"x_max":1057,"o":"m 97 972 l 286 972 l 286 0 l 97 0 l 97 972 m 363 168 l 363 349 l 546 349 l 546 232 l 617 161 l 801 161 l 868 226 l 868 972 l 1057 972 l 1057 163 l 894 0 l 529 0 l 363 168 z "},"Í":{"ha":383,"x_min":97,"x_max":407,"o":"m 97 972 l 286 972 l 286 0 l 97 0 l 97 972 m 214 1271 l 407 1271 l 269 1036 l 108 1036 l 214 1271 z "},"Ĭ":{"ha":383,"x_min":-42,"x_max":425,"o":"m 97 972 l 286 972 l 286 0 l 97 0 l 97 972 m -42 1151 l -42 1257 l 114 1257 l 114 1190 l 151 1153 l 232 1153 l 269 1190 l 269 1257 l 425 1257 l 425 1151 l 310 1036 l 74 1036 l -42 1151 z "},"Ǐ":{"ha":383,"x_min":-79,"x_max":463,"o":"m 97 972 l 286 972 l 286 0 l 97 0 l 97 972 m -79 1260 l 97 1260 l 188 1156 l 196 1156 l 286 1260 l 463 1260 l 265 1036 l 118 1036 l -79 1260 z "},"Î":{"ha":383,"x_min":-79,"x_max":463,"o":"m 97 972 l 286 972 l 286 0 l 97 0 l 97 972 m 118 1260 l 265 1260 l 463 1036 l 286 1036 l 196 1140 l 188 1140 l 97 1036 l -79 1036 l 118 1260 z "},"Ï":{"ha":383,"x_min":-61,"x_max":444,"o":"m 97 972 l 286 972 l 286 0 l 97 0 l 97 972 m -61 1100 l -61 1181 l -7 1235 l 86 1235 l 139 1179 l 139 1101 l 86 1046 l -7 1046 l -61 1100 m 244 1101 l 244 1179 l 297 1235 l 390 1235 l 444 1181 l 444 1100 l 390 1046 l 297 1046 l 244 1101 z "},"İ":{"ha":383,"x_min":86,"x_max":297,"o":"m 97 972 l 286 972 l 286 0 l 97 0 l 97 972 m 86 1097 l 86 1183 l 143 1240 l 240 1240 l 297 1183 l 297 1097 l 240 1040 l 143 1040 l 86 1097 z "},"Ị":{"ha":383,"x_min":86,"x_max":297,"o":"m 97 972 l 286 972 l 286 0 l 97 0 l 97 972 z "},"Ì":{"ha":383,"x_min":-33,"x_max":286,"o":"m 97 972 l 286 972 l 286 0 l 97 0 l 97 972 m -33 1271 l 160 1271 l 265 1036 l 104 1036 l -33 1271 z "},"Ỉ":{"ha":383,"x_min":6,"x_max":378,"o":"m 97 972 l 286 972 l 286 0 l 97 0 l 97 972 m 111 1117 l 235 1210 l 235 1249 l 218 1265 l 165 1265 l 149 1249 l 149 1194 l 6 1194 l 6 1289 l 99 1382 l 285 1382 l 378 1289 l 378 1169 l 274 1092 l 274 1036 l 111 1036 l 111 1117 z "},"Ī":{"ha":383,"x_min":-44,"x_max":428,"o":"m 97 972 l 286 972 l 286 0 l 97 0 l 97 972 m -44 1197 l 428 1197 l 428 1050 l -44 1050 l -44 1197 z "},"Į":{"ha":383,"x_min":24,"x_max":329,"o":"m 97 972 l 286 972 l 286 0 l 97 0 l 97 972 m 24 -221 l 24 -100 l 121 0 l 286 0 l 182 -108 l 182 -157 l 207 -182 l 329 -182 l 329 -310 l 113 -310 l 24 -221 z "},"Ĩ":{"ha":383,"x_min":-50,"x_max":433,"o":"m 97 972 l 286 972 l 286 0 l 97 0 l 97 972 m 132 1122 l 101 1122 l 83 1106 l 83 1060 l -50 1058 l -50 1157 l 46 1253 l 163 1253 l 251 1181 l 283 1181 l 300 1197 l 300 1244 l 433 1244 l 433 1146 l 338 1050 l 221 1050 l 132 1122 z "},"J":{"ha":806,"x_min":28,"x_max":722,"o":"m 28 168 l 28 349 l 211 349 l 211 232 l 282 161 l 467 161 l 533 226 l 533 972 l 722 972 l 722 163 l 560 0 l 194 0 l 28 168 z "},"Ĵ":{"ha":806,"x_min":28,"x_max":896,"o":"m 28 168 l 28 349 l 211 349 l 211 232 l 282 161 l 467 161 l 533 226 l 533 972 l 722 972 l 722 163 l 560 0 l 194 0 l 28 168 m 551 1260 l 699 1260 l 896 1036 l 719 1036 l 629 1140 l 621 1140 l 531 1036 l 354 1036 l 551 1260 z "},"K":{"ha":904,"x_min":90,"x_max":897,"o":"m 90 972 l 279 972 l 279 565 l 426 565 l 661 972 l 874 972 l 589 488 l 897 0 l 681 0 l 425 404 l 279 404 l 279 0 l 90 0 l 90 972 z "},"Ķ":{"ha":904,"x_min":90,"x_max":897,"o":"m 90 972 l 279 972 l 279 565 l 426 565 l 661 972 l 874 972 l 589 488 l 897 0 l 681 0 l 425 404 l 279 404 l 279 0 l 90 0 l 90 972 z "},"L":{"ha":779,"x_min":90,"x_max":765,"o":"m 90 972 l 279 972 l 279 160 l 765 160 l 765 0 l 90 0 l 90 972 z "},"Ĺ":{"ha":779,"x_min":90,"x_max":765,"o":"m 90 972 l 279 972 l 279 160 l 765 160 l 765 0 l 90 0 l 90 972 m 207 1271 l 400 1271 l 263 1036 l 101 1036 l 207 1271 z "},"Ľ":{"ha":867,"x_min":90,"x_max":839,"o":"m 90 972 l 279 972 l 279 160 l 765 160 l 765 0 l 90 0 l 90 972 z "},"Ļ":{"ha":779,"x_min":90,"x_max":765,"o":"m 90 972 l 279 972 l 279 160 l 765 160 l 765 0 l 90 0 l 90 972 z "},"Ŀ":{"ha":793,"x_min":90,"x_max":765,"o":"m 90 972 l 279 972 l 279 160 l 765 160 l 765 0 l 90 0 l 90 972 z "},"Ḷ":{"ha":779,"x_min":90,"x_max":765,"o":"m 90 972 l 279 972 l 279 160 l 765 160 l 765 0 l 90 0 l 90 972 z "},"Ḹ":{"ha":779,"x_min":-51,"x_max":765,"o":"m 90 972 l 279 972 l 279 160 l 765 160 l 765 0 l 90 0 l 90 972 m -51 1197 l 421 1197 l 421 1050 l -51 1050 l -51 1197 z "},"Ḻ":{"ha":779,"x_min":90,"x_max":765,"o":"m 90 972 l 279 972 l 279 160 l 765 160 l 765 0 l 90 0 l 90 972 z "},"Ł":{"ha":821,"x_min":0,"x_max":807,"o":"m 807 160 l 807 0 l 132 0 l 132 319 l 0 242 l 0 404 l 132 482 l 132 972 l 321 972 l 321 593 l 508 704 l 508 542 l 321 431 l 321 160 l 807 160 z "},"M":{"ha":1113,"x_min":90,"x_max":1022,"o":"m 90 972 l 265 972 l 554 344 l 557 344 l 847 972 l 1022 972 l 1022 0 l 840 0 l 840 592 l 838 592 l 614 136 l 497 136 l 275 592 l 272 592 l 272 0 l 90 0 l 90 972 z "},"Ṃ":{"ha":1113,"x_min":90,"x_max":1022,"o":"m 90 972 l 265 972 l 554 344 l 557 344 l 847 972 l 1022 972 l 1022 0 l 840 0 l 840 592 l 838 592 l 614 136 l 497 136 l 275 592 l 272 592 l 272 0 l 90 0 l 90 972 z "},"N":{"ha":968,"x_min":90,"x_max":878,"o":"m 90 972 l 260 972 l 693 313 l 696 313 l 696 972 l 878 972 l 878 0 l 708 0 l 275 658 l 272 658 l 272 0 l 90 0 l 90 972 z "},"Ń":{"ha":968,"x_min":90,"x_max":878,"o":"m 90 972 l 260 972 l 693 313 l 696 313 l 696 972 l 878 972 l 878 0 l 708 0 l 275 658 l 272 658 l 272 0 l 90 0 l 90 972 m 507 1271 l 700 1271 l 563 1036 l 401 1036 l 507 1271 z "},"Ň":{"ha":968,"x_min":90,"x_max":878,"o":"m 90 972 l 260 972 l 693 313 l 696 313 l 696 972 l 878 972 l 878 0 l 708 0 l 275 658 l 272 658 l 272 0 l 90 0 l 90 972 m 214 1260 l 390 1260 l 481 1156 l 489 1156 l 579 1260 l 756 1260 l 558 1036 l 411 1036 l 214 1260 z "},"Ņ":{"ha":968,"x_min":90,"x_max":878,"o":"m 90 972 l 260 972 l 693 313 l 696 313 l 696 972 l 878 972 l 878 0 l 708 0 l 275 658 l 272 658 l 272 0 l 90 0 l 90 972 z "},"Ṅ":{"ha":968,"x_min":90,"x_max":878,"o":"m 90 972 l 260 972 l 693 313 l 696 313 l 696 972 l 878 972 l 878 0 l 708 0 l 275 658 l 272 658 l 272 0 l 90 0 l 90 972 m 379 1097 l 379 1183 l 436 1240 l 533 1240 l 590 1183 l 590 1097 l 533 1040 l 436 1040 l 379 1097 z "},"Ṇ":{"ha":968,"x_min":90,"x_max":878,"o":"m 90 972 l 260 972 l 693 313 l 696 313 l 696 972 l 878 972 l 878 0 l 708 0 l 275 658 l 272 658 l 272 0 l 90 0 l 90 972 z "},"Ŋ":{"ha":976,"x_min":90,"x_max":886,"o":"m 886 972 l 886 -154 l 738 -303 l 496 -303 l 496 -144 l 656 -144 l 704 -96 l 704 18 l 275 658 l 272 658 l 272 0 l 90 0 l 90 972 l 260 972 l 701 313 l 704 313 l 704 972 l 886 972 z "},"Ṉ":{"ha":968,"x_min":90,"x_max":878,"o":"m 90 972 l 260 972 l 693 313 l 696 313 l 696 972 l 878 972 l 878 0 l 708 0 l 275 658 l 272 658 l 272 0 l 90 0 l 90 972 z "},"Ñ":{"ha":968,"x_min":90,"x_max":878,"o":"m 90 972 l 260 972 l 693 313 l 696 313 l 696 972 l 878 972 l 878 0 l 708 0 l 275 658 l 272 658 l 272 0 l 90 0 l 90 972 m 425 1122 l 394 1122 l 376 1106 l 376 1060 l 243 1058 l 243 1157 l 339 1253 l 456 1253 l 544 1181 l 576 1181 l 593 1197 l 593 1244 l 726 1244 l 726 1146 l 631 1050 l 514 1050 l 425 1122 z "},"O":{"ha":972,"x_min":76,"x_max":896,"o":"m 76 160 l 76 813 l 236 972 l 736 972 l 896 813 l 896 160 l 736 0 l 236 0 l 76 160 m 636 161 l 707 232 l 707 740 l 636 811 l 336 811 l 265 740 l 265 232 l 336 161 l 636 161 z "},"Ó":{"ha":972,"x_min":76,"x_max":896,"o":"m 76 160 l 76 813 l 236 972 l 736 972 l 896 813 l 896 160 l 736 0 l 236 0 l 76 160 m 636 161 l 707 232 l 707 740 l 636 811 l 336 811 l 265 740 l 265 232 l 336 161 l 636 161 m 508 1271 l 701 1271 l 564 1036 l 403 1036 l 508 1271 z "},"Ŏ":{"ha":972,"x_min":76,"x_max":896,"o":"m 76 160 l 76 813 l 236 972 l 736 972 l 896 813 l 896 160 l 736 0 l 236 0 l 76 160 m 636 161 l 707 232 l 707 740 l 636 811 l 336 811 l 265 740 l 265 232 l 336 161 l 636 161 m 253 1151 l 253 1257 l 408 1257 l 408 1190 l 446 1153 l 526 1153 l 564 1190 l 564 1257 l 719 1257 l 719 1151 l 604 1036 l 368 1036 l 253 1151 z "},"Ǒ":{"ha":972,"x_min":76,"x_max":896,"o":"m 76 160 l 76 813 l 236 972 l 736 972 l 896 813 l 896 160 l 736 0 l 236 0 l 76 160 m 636 161 l 707 232 l 707 740 l 636 811 l 336 811 l 265 740 l 265 232 l 336 161 l 636 161 m 215 1260 l 392 1260 l 482 1156 l 490 1156 l 581 1260 l 757 1260 l 560 1036 l 413 1036 l 215 1260 z "},"Ô":{"ha":972,"x_min":76,"x_max":896,"o":"m 76 160 l 76 813 l 236 972 l 736 972 l 896 813 l 896 160 l 736 0 l 236 0 l 76 160 m 636 161 l 707 232 l 707 740 l 636 811 l 336 811 l 265 740 l 265 232 l 336 161 l 636 161 m 413 1260 l 560 1260 l 757 1036 l 581 1036 l 490 1140 l 482 1140 l 392 1036 l 215 1036 l 413 1260 z "},"Ố":{"ha":972,"x_min":76,"x_max":896,"o":"m 76 160 l 76 813 l 236 972 l 736 972 l 896 813 l 896 160 l 736 0 l 236 0 l 76 160 m 636 161 l 707 232 l 707 740 l 636 811 l 336 811 l 265 740 l 265 232 l 336 161 l 636 161 m 722 1422 l 896 1422 l 776 1229 l 635 1229 l 722 1422 m 413 1260 l 560 1260 l 757 1036 l 581 1036 l 490 1140 l 482 1140 l 392 1036 l 215 1036 l 413 1260 z "},"Ộ":{"ha":972,"x_min":76,"x_max":896,"o":"m 76 160 l 76 813 l 236 972 l 736 972 l 896 813 l 896 160 l 736 0 l 236 0 l 76 160 m 636 161 l 707 232 l 707 740 l 636 811 l 336 811 l 265 740 l 265 232 l 336 161 l 636 161 m 413 1260 l 560 1260 l 757 1036 l 581 1036 l 490 1140 l 482 1140 l 392 1036 l 215 1036 l 413 1260 z "},"Ồ":{"ha":972,"x_min":76,"x_max":896,"o":"m 76 160 l 76 813 l 236 972 l 736 972 l 896 813 l 896 160 l 736 0 l 236 0 l 76 160 m 636 161 l 707 232 l 707 740 l 636 811 l 336 811 l 265 740 l 265 232 l 336 161 l 636 161 m 551 1422 l 725 1422 l 813 1229 l 671 1229 l 551 1422 m 413 1260 l 560 1260 l 757 1036 l 581 1036 l 490 1140 l 482 1140 l 392 1036 l 215 1036 l 413 1260 z "},"Ổ":{"ha":972,"x_min":76,"x_max":899,"o":"m 76 160 l 76 813 l 236 972 l 736 972 l 896 813 l 896 160 l 736 0 l 236 0 l 76 160 m 636 161 l 707 232 l 707 740 l 636 811 l 336 811 l 265 740 l 265 232 l 336 161 l 636 161 m 675 1242 l 776 1321 l 776 1353 l 763 1367 l 724 1367 l 710 1353 l 710 1311 l 588 1311 l 588 1386 l 665 1464 l 821 1464 l 899 1386 l 899 1288 l 813 1224 l 813 1190 l 675 1190 l 675 1242 m 413 1260 l 560 1260 l 757 1036 l 581 1036 l 490 1140 l 482 1140 l 392 1036 l 215 1036 l 413 1260 z "},"Ỗ":{"ha":972,"x_min":76,"x_max":896,"o":"m 76 160 l 76 813 l 236 972 l 736 972 l 896 813 l 896 160 l 736 0 l 236 0 l 76 160 m 636 161 l 707 232 l 707 740 l 636 811 l 336 811 l 265 740 l 265 232 l 336 161 l 636 161 m 431 1379 l 396 1379 l 378 1363 l 378 1318 l 256 1318 l 256 1400 l 349 1493 l 453 1493 l 542 1424 l 578 1424 l 594 1440 l 594 1485 l 717 1485 l 717 1403 l 624 1310 l 519 1310 l 431 1379 m 413 1260 l 560 1260 l 757 1036 l 581 1036 l 490 1140 l 482 1140 l 392 1036 l 215 1036 l 413 1260 z "},"Ö":{"ha":972,"x_min":76,"x_max":896,"o":"m 76 160 l 76 813 l 236 972 l 736 972 l 896 813 l 896 160 l 736 0 l 236 0 l 76 160 m 636 161 l 707 232 l 707 740 l 636 811 l 336 811 l 265 740 l 265 232 l 336 161 l 636 161 m 233 1100 l 233 1181 l 288 1235 l 381 1235 l 433 1179 l 433 1101 l 381 1046 l 288 1046 l 233 1100 m 539 1101 l 539 1179 l 592 1235 l 685 1235 l 739 1181 l 739 1100 l 685 1046 l 592 1046 l 539 1101 z "},"Ọ":{"ha":972,"x_min":76,"x_max":896,"o":"m 76 160 l 76 813 l 236 972 l 736 972 l 896 813 l 896 160 l 736 0 l 236 0 l 76 160 m 636 161 l 707 232 l 707 740 l 636 811 l 336 811 l 265 740 l 265 232 l 336 161 l 636 161 z "},"Ò":{"ha":972,"x_min":76,"x_max":896,"o":"m 76 160 l 76 813 l 236 972 l 736 972 l 896 813 l 896 160 l 736 0 l 236 0 l 76 160 m 636 161 l 707 232 l 707 740 l 636 811 l 336 811 l 265 740 l 265 232 l 336 161 l 636 161 m 261 1271 l 454 1271 l 560 1036 l 399 1036 l 261 1271 z "},"Ỏ":{"ha":972,"x_min":76,"x_max":896,"o":"m 76 160 l 76 813 l 236 972 l 736 972 l 896 813 l 896 160 l 736 0 l 236 0 l 76 160 m 636 161 l 707 232 l 707 740 l 636 811 l 336 811 l 265 740 l 265 232 l 336 161 l 636 161 m 406 1117 l 529 1210 l 529 1249 l 513 1265 l 460 1265 l 443 1249 l 443 1194 l 300 1194 l 300 1289 l 393 1382 l 579 1382 l 672 1289 l 672 1169 l 568 1092 l 568 1036 l 406 1036 l 406 1117 z "},"Ơ":{"ha":1079,"x_min":76,"x_max":1111,"o":"m 1111 986 l 1111 832 l 978 699 l 896 699 l 896 160 l 736 0 l 236 0 l 76 160 l 76 813 l 236 972 l 736 972 l 876 832 l 907 832 l 956 881 l 956 986 l 1111 986 m 707 740 l 636 811 l 336 811 l 265 740 l 265 232 l 336 161 l 636 161 l 707 232 l 707 740 z "},"Ớ":{"ha":1079,"x_min":76,"x_max":1111,"o":"m 1111 986 l 1111 832 l 978 699 l 896 699 l 896 160 l 736 0 l 236 0 l 76 160 l 76 813 l 236 972 l 736 972 l 876 832 l 907 832 l 956 881 l 956 986 l 1111 986 m 707 740 l 636 811 l 336 811 l 265 740 l 265 232 l 336 161 l 636 161 l 707 232 l 707 740 m 508 1271 l 701 1271 l 564 1036 l 403 1036 l 508 1271 z "},"Ợ":{"ha":1079,"x_min":76,"x_max":1111,"o":"m 1111 986 l 1111 832 l 978 699 l 896 699 l 896 160 l 736 0 l 236 0 l 76 160 l 76 813 l 236 972 l 736 972 l 876 832 l 907 832 l 956 881 l 956 986 l 1111 986 m 707 740 l 636 811 l 336 811 l 265 740 l 265 232 l 336 161 l 636 161 l 707 232 l 707 740 z "},"Ờ":{"ha":1079,"x_min":76,"x_max":1111,"o":"m 1111 986 l 1111 832 l 978 699 l 896 699 l 896 160 l 736 0 l 236 0 l 76 160 l 76 813 l 236 972 l 736 972 l 876 832 l 907 832 l 956 881 l 956 986 l 1111 986 m 707 740 l 636 811 l 336 811 l 265 740 l 265 232 l 336 161 l 636 161 l 707 232 l 707 740 m 261 1271 l 454 1271 l 560 1036 l 399 1036 l 261 1271 z "},"Ở":{"ha":1079,"x_min":76,"x_max":1111,"o":"m 1111 986 l 1111 832 l 978 699 l 896 699 l 896 160 l 736 0 l 236 0 l 76 160 l 76 813 l 236 972 l 736 972 l 876 832 l 907 832 l 956 881 l 956 986 l 1111 986 m 707 740 l 636 811 l 336 811 l 265 740 l 265 232 l 336 161 l 636 161 l 707 232 l 707 740 m 406 1117 l 529 1210 l 529 1249 l 513 1265 l 460 1265 l 443 1249 l 443 1194 l 300 1194 l 300 1289 l 393 1382 l 579 1382 l 672 1289 l 672 1169 l 568 1092 l 568 1036 l 406 1036 l 406 1117 z "},"Ỡ":{"ha":1079,"x_min":76,"x_max":1111,"o":"m 1111 986 l 1111 832 l 978 699 l 896 699 l 896 160 l 736 0 l 236 0 l 76 160 l 76 813 l 236 972 l 736 972 l 876 832 l 907 832 l 956 881 l 956 986 l 1111 986 m 707 740 l 636 811 l 336 811 l 265 740 l 265 232 l 336 161 l 636 161 l 707 232 l 707 740 m 426 1122 l 396 1122 l 378 1106 l 378 1060 l 244 1058 l 244 1157 l 340 1253 l 457 1253 l 546 1181 l 578 1181 l 594 1197 l 594 1244 l 728 1244 l 728 1146 l 632 1050 l 515 1050 l 426 1122 z "},"Ő":{"ha":972,"x_min":76,"x_max":896,"o":"m 76 160 l 76 813 l 236 972 l 736 972 l 896 813 l 896 160 l 736 0 l 236 0 l 76 160 m 636 161 l 707 232 l 707 740 l 636 811 l 336 811 l 265 740 l 265 232 l 336 161 l 636 161 m 372 1271 l 554 1271 l 422 1036 l 272 1036 l 372 1271 m 611 1271 l 793 1271 l 660 1036 l 510 1036 l 611 1271 z "},"Ō":{"ha":972,"x_min":76,"x_max":896,"o":"m 76 160 l 76 813 l 236 972 l 736 972 l 896 813 l 896 160 l 736 0 l 236 0 l 76 160 m 636 161 l 707 232 l 707 740 l 636 811 l 336 811 l 265 740 l 265 232 l 336 161 l 636 161 m 250 1197 l 722 1197 l 722 1050 l 250 1050 l 250 1197 z "},"Ø":{"ha":972,"x_min":-18,"x_max":974,"o":"m 846 863 l 896 813 l 896 160 l 736 0 l 236 0 l 203 33 l 133 -56 l -18 -56 l 117 119 l 76 160 l 76 813 l 236 972 l 736 972 l 760 949 l 822 1028 l 974 1028 l 846 863 m 265 310 l 646 801 l 636 811 l 336 811 l 265 740 l 265 310 m 707 683 l 317 181 l 336 161 l 636 161 l 707 232 l 707 683 z "},"Ǿ":{"ha":972,"x_min":-18,"x_max":974,"o":"m 846 863 l 896 813 l 896 160 l 736 0 l 236 0 l 203 33 l 133 -56 l -18 -56 l 117 119 l 76 160 l 76 813 l 236 972 l 736 972 l 760 949 l 822 1028 l 974 1028 l 846 863 m 265 310 l 646 801 l 636 811 l 336 811 l 265 740 l 265 310 m 707 683 l 317 181 l 336 161 l 636 161 l 707 232 l 707 683 m 508 1271 l 701 1271 l 564 1036 l 403 1036 l 508 1271 z "},"Õ":{"ha":972,"x_min":76,"x_max":896,"o":"m 76 160 l 76 813 l 236 972 l 736 972 l 896 813 l 896 160 l 736 0 l 236 0 l 76 160 m 636 161 l 707 232 l 707 740 l 636 811 l 336 811 l 265 740 l 265 232 l 336 161 l 636 161 m 426 1122 l 396 1122 l 378 1106 l 378 1060 l 244 1058 l 244 1157 l 340 1253 l 457 1253 l 546 1181 l 578 1181 l 594 1197 l 594 1244 l 728 1244 l 728 1146 l 632 1050 l 515 1050 l 426 1122 z "},"Œ":{"ha":1467,"x_min":76,"x_max":1418,"o":"m 896 808 l 896 569 l 1378 569 l 1378 408 l 896 408 l 896 164 l 1418 164 l 1418 0 l 763 0 l 763 89 l 674 0 l 236 0 l 76 160 l 76 813 l 236 972 l 679 972 l 763 889 l 763 972 l 1418 972 l 1418 808 l 896 808 m 707 740 l 636 811 l 336 811 l 265 740 l 265 232 l 336 161 l 636 161 l 707 232 l 707 740 z "},"P":{"ha":897,"x_min":90,"x_max":849,"o":"m 90 972 l 700 972 l 849 822 l 849 482 l 699 331 l 279 331 l 279 0 l 90 0 l 90 972 m 614 489 l 663 538 l 663 765 l 614 814 l 279 814 l 279 489 l 614 489 z "},"Þ":{"ha":897,"x_min":90,"x_max":849,"o":"m 849 657 l 849 317 l 699 165 l 279 165 l 279 0 l 90 0 l 90 972 l 279 972 l 279 807 l 700 807 l 849 657 m 663 600 l 614 649 l 279 649 l 279 324 l 614 324 l 663 372 l 663 600 z "},"Q":{"ha":972,"x_min":76,"x_max":925,"o":"m 925 -78 l 808 -194 l 613 0 l 236 0 l 76 160 l 76 813 l 236 972 l 736 972 l 896 813 l 896 160 l 793 57 l 925 -78 m 636 161 l 707 232 l 707 740 l 636 811 l 336 811 l 265 740 l 265 232 l 336 161 l 636 161 z "},"R":{"ha":938,"x_min":90,"x_max":854,"o":"m 854 322 l 854 0 l 665 0 l 665 279 l 582 372 l 279 372 l 279 0 l 90 0 l 90 972 l 700 972 l 849 822 l 849 528 l 754 432 l 854 322 m 279 528 l 614 528 l 663 576 l 663 765 l 614 814 l 279 814 l 279 528 z "},"Ŕ":{"ha":938,"x_min":90,"x_max":854,"o":"m 854 322 l 854 0 l 665 0 l 665 279 l 582 372 l 279 372 l 279 0 l 90 0 l 90 972 l 700 972 l 849 822 l 849 528 l 754 432 l 854 322 m 279 528 l 614 528 l 663 576 l 663 765 l 614 814 l 279 814 l 279 528 m 479 1271 l 672 1271 l 535 1036 l 374 1036 l 479 1271 z "},"Ř":{"ha":938,"x_min":90,"x_max":854,"o":"m 854 322 l 854 0 l 665 0 l 665 279 l 582 372 l 279 372 l 279 0 l 90 0 l 90 972 l 700 972 l 849 822 l 849 528 l 754 432 l 854 322 m 279 528 l 614 528 l 663 576 l 663 765 l 614 814 l 279 814 l 279 528 m 186 1260 l 363 1260 l 453 1156 l 461 1156 l 551 1260 l 728 1260 l 531 1036 l 383 1036 l 186 1260 z "},"Ŗ":{"ha":938,"x_min":90,"x_max":854,"o":"m 854 322 l 854 0 l 665 0 l 665 279 l 582 372 l 279 372 l 279 0 l 90 0 l 90 972 l 700 972 l 849 822 l 849 528 l 754 432 l 854 322 m 279 528 l 614 528 l 663 576 l 663 765 l 614 814 l 279 814 l 279 528 z "},"Ṛ":{"ha":938,"x_min":90,"x_max":854,"o":"m 854 322 l 854 0 l 665 0 l 665 279 l 582 372 l 279 372 l 279 0 l 90 0 l 90 972 l 700 972 l 849 822 l 849 528 l 754 432 l 854 322 m 279 528 l 614 528 l 663 576 l 663 765 l 614 814 l 279 814 l 279 528 z "},"Ṝ":{"ha":938,"x_min":90,"x_max":854,"o":"m 854 322 l 854 0 l 665 0 l 665 279 l 582 372 l 279 372 l 279 0 l 90 0 l 90 972 l 700 972 l 849 822 l 849 528 l 754 432 l 854 322 m 279 528 l 614 528 l 663 576 l 663 765 l 614 814 l 279 814 l 279 528 m 221 1197 l 693 1197 l 693 1050 l 221 1050 l 221 1197 z "},"Ṟ":{"ha":938,"x_min":90,"x_max":854,"o":"m 854 322 l 854 0 l 665 0 l 665 279 l 582 372 l 279 372 l 279 0 l 90 0 l 90 972 l 700 972 l 849 822 l 849 528 l 754 432 l 854 322 m 279 528 l 614 528 l 663 576 l 663 765 l 614 814 l 279 814 l 279 528 z "},"S":{"ha":885,"x_min":69,"x_max":822,"o":"m 69 150 l 69 289 l 256 289 l 256 207 l 301 161 l 589 161 l 636 208 l 636 369 l 590 415 l 222 415 l 72 565 l 72 822 l 222 972 l 661 972 l 811 822 l 811 682 l 625 682 l 625 765 l 579 811 l 304 811 l 258 765 l 258 622 l 304 576 l 672 576 l 822 426 l 822 153 l 669 0 l 219 0 l 69 150 z "},"Ś":{"ha":885,"x_min":69,"x_max":822,"o":"m 69 150 l 69 289 l 256 289 l 256 207 l 301 161 l 589 161 l 636 208 l 636 369 l 590 415 l 222 415 l 72 565 l 72 822 l 222 972 l 661 972 l 811 822 l 811 682 l 625 682 l 625 765 l 579 811 l 304 811 l 258 765 l 258 622 l 304 576 l 672 576 l 822 426 l 822 153 l 669 0 l 219 0 l 69 150 m 464 1271 l 657 1271 l 519 1036 l 358 1036 l 464 1271 z "},"Š":{"ha":885,"x_min":69,"x_max":822,"o":"m 69 150 l 69 289 l 256 289 l 256 207 l 301 161 l 589 161 l 636 208 l 636 369 l 590 415 l 222 415 l 72 565 l 72 822 l 222 972 l 661 972 l 811 822 l 811 682 l 625 682 l 625 765 l 579 811 l 304 811 l 258 765 l 258 622 l 304 576 l 672 576 l 822 426 l 822 153 l 669 0 l 219 0 l 69 150 m 171 1260 l 347 1260 l 438 1156 l 446 1156 l 536 1260 l 713 1260 l 515 1036 l 368 1036 l 171 1260 z "},"Ş":{"ha":885,"x_min":69,"x_max":822,"o":"m 822 426 l 822 153 l 669 0 l 503 0 l 483 -47 l 556 -47 l 625 -117 l 625 -239 l 553 -311 l 311 -311 l 311 -208 l 475 -208 l 492 -192 l 492 -156 l 475 -139 l 338 -139 l 338 -96 l 374 0 l 219 0 l 69 150 l 69 289 l 256 289 l 256 207 l 301 161 l 589 161 l 636 208 l 636 369 l 590 415 l 222 415 l 72 565 l 72 822 l 222 972 l 661 972 l 811 822 l 811 682 l 625 682 l 625 765 l 579 811 l 304 811 l 258 765 l 258 622 l 304 576 l 672 576 l 822 426 z "},"Ŝ":{"ha":885,"x_min":69,"x_max":822,"o":"m 69 150 l 69 289 l 256 289 l 256 207 l 301 161 l 589 161 l 636 208 l 636 369 l 590 415 l 222 415 l 72 565 l 72 822 l 222 972 l 661 972 l 811 822 l 811 682 l 625 682 l 625 765 l 579 811 l 304 811 l 258 765 l 258 622 l 304 576 l 672 576 l 822 426 l 822 153 l 669 0 l 219 0 l 69 150 m 368 1260 l 515 1260 l 713 1036 l 536 1036 l 446 1140 l 438 1140 l 347 1036 l 171 1036 l 368 1260 z "},"Ș":{"ha":885,"x_min":69,"x_max":822,"o":"m 69 150 l 69 289 l 256 289 l 256 207 l 301 161 l 589 161 l 636 208 l 636 369 l 590 415 l 222 415 l 72 565 l 72 822 l 222 972 l 661 972 l 811 822 l 811 682 l 625 682 l 625 765 l 579 811 l 304 811 l 258 765 l 258 622 l 304 576 l 672 576 l 822 426 l 822 153 l 669 0 l 219 0 l 69 150 z "},"Ṡ":{"ha":885,"x_min":69,"x_max":822,"o":"m 69 150 l 69 289 l 256 289 l 256 207 l 301 161 l 589 161 l 636 208 l 636 369 l 590 415 l 222 415 l 72 565 l 72 822 l 222 972 l 661 972 l 811 822 l 811 682 l 625 682 l 625 765 l 579 811 l 304 811 l 258 765 l 258 622 l 304 576 l 672 576 l 822 426 l 822 153 l 669 0 l 219 0 l 69 150 m 336 1097 l 336 1183 l 393 1240 l 490 1240 l 547 1183 l 547 1097 l 490 1040 l 393 1040 l 336 1097 z "},"Ṣ":{"ha":885,"x_min":69,"x_max":822,"o":"m 69 150 l 69 289 l 256 289 l 256 207 l 301 161 l 589 161 l 636 208 l 636 369 l 590 415 l 222 415 l 72 565 l 72 822 l 222 972 l 661 972 l 811 822 l 811 682 l 625 682 l 625 765 l 579 811 l 304 811 l 258 765 l 258 622 l 304 576 l 672 576 l 822 426 l 822 153 l 669 0 l 219 0 l 69 150 z "},"ẞ":{"ha":960,"x_min":90,"x_max":911,"o":"m 911 431 l 911 136 l 775 0 l 492 0 l 358 133 l 358 256 l 542 256 l 542 193 l 574 161 l 693 161 l 725 193 l 725 383 l 692 417 l 464 417 l 464 558 l 640 808 l 318 808 l 279 769 l 279 0 l 90 0 l 90 829 l 233 972 l 832 972 l 832 808 l 657 567 l 775 567 l 911 431 z "},"Ə":{"ha":1011,"x_min":76,"x_max":935,"o":"m 76 201 l 76 565 l 746 565 l 746 710 l 647 808 l 364 808 l 265 710 l 265 638 l 76 638 l 76 771 l 278 972 l 733 972 l 935 771 l 935 201 l 733 0 l 278 0 l 76 201 m 644 164 l 746 265 l 746 401 l 265 401 l 265 265 l 367 164 l 644 164 z "},"T":{"ha":811,"x_min":21,"x_max":790,"o":"m 311 813 l 21 813 l 21 972 l 790 972 l 790 813 l 500 813 l 500 0 l 311 0 l 311 813 z "},"Ŧ":{"ha":811,"x_min":21,"x_max":790,"o":"m 500 813 l 500 535 l 713 535 l 713 382 l 500 382 l 500 0 l 311 0 l 311 382 l 107 382 l 107 535 l 311 535 l 311 813 l 21 813 l 21 972 l 790 972 l 790 813 l 500 813 z "},"Ť":{"ha":811,"x_min":21,"x_max":790,"o":"m 311 813 l 21 813 l 21 972 l 790 972 l 790 813 l 500 813 l 500 0 l 311 0 l 311 813 m 135 1260 l 311 1260 l 401 1156 l 410 1156 l 500 1260 l 676 1260 l 479 1036 l 332 1036 l 135 1260 z "},"Ţ":{"ha":811,"x_min":21,"x_max":790,"o":"m 311 813 l 21 813 l 21 972 l 790 972 l 790 813 l 500 813 l 500 0 l 311 0 l 311 813 m 250 -283 l 414 -283 l 431 -267 l 431 -231 l 414 -214 l 276 -214 l 276 -171 l 342 0 l 472 0 l 422 -122 l 494 -122 l 564 -192 l 564 -314 l 492 -386 l 250 -386 l 250 -283 z "},"Ț":{"ha":811,"x_min":21,"x_max":790,"o":"m 311 813 l 21 813 l 21 972 l 790 972 l 790 813 l 500 813 l 500 0 l 311 0 l 311 813 z "},"Ṭ":{"ha":811,"x_min":21,"x_max":790,"o":"m 311 813 l 21 813 l 21 972 l 790 972 l 790 813 l 500 813 l 500 0 l 311 0 l 311 813 z "},"Ṯ":{"ha":811,"x_min":21,"x_max":790,"o":"m 311 813 l 21 813 l 21 972 l 790 972 l 790 813 l 500 813 l 500 0 l 311 0 l 311 813 z "},"U":{"ha":972,"x_min":90,"x_max":882,"o":"m 90 167 l 90 972 l 279 972 l 279 232 l 350 161 l 622 161 l 693 232 l 693 972 l 882 972 l 882 167 l 715 0 l 257 0 l 90 167 z "},"Ú":{"ha":972,"x_min":90,"x_max":882,"o":"m 90 167 l 90 972 l 279 972 l 279 232 l 350 161 l 622 161 l 693 232 l 693 972 l 882 972 l 882 167 l 715 0 l 257 0 l 90 167 m 508 1271 l 701 1271 l 564 1036 l 403 1036 l 508 1271 z "},"Ŭ":{"ha":972,"x_min":90,"x_max":882,"o":"m 90 167 l 90 972 l 279 972 l 279 232 l 350 161 l 622 161 l 693 232 l 693 972 l 882 972 l 882 167 l 715 0 l 257 0 l 90 167 m 253 1151 l 253 1257 l 408 1257 l 408 1190 l 446 1153 l 526 1153 l 564 1190 l 564 1257 l 719 1257 l 719 1151 l 604 1036 l 368 1036 l 253 1151 z "},"Ǔ":{"ha":972,"x_min":90,"x_max":882,"o":"m 90 167 l 90 972 l 279 972 l 279 232 l 350 161 l 622 161 l 693 232 l 693 972 l 882 972 l 882 167 l 715 0 l 257 0 l 90 167 m 215 1260 l 392 1260 l 482 1156 l 490 1156 l 581 1260 l 757 1260 l 560 1036 l 413 1036 l 215 1260 z "},"Û":{"ha":972,"x_min":90,"x_max":882,"o":"m 90 167 l 90 972 l 279 972 l 279 232 l 350 161 l 622 161 l 693 232 l 693 972 l 882 972 l 882 167 l 715 0 l 257 0 l 90 167 m 413 1260 l 560 1260 l 757 1036 l 581 1036 l 490 1140 l 482 1140 l 392 1036 l 215 1036 l 413 1260 z "},"Ü":{"ha":972,"x_min":90,"x_max":882,"o":"m 90 167 l 90 972 l 279 972 l 279 232 l 350 161 l 622 161 l 693 232 l 693 972 l 882 972 l 882 167 l 715 0 l 257 0 l 90 167 m 233 1100 l 233 1181 l 288 1235 l 381 1235 l 433 1179 l 433 1101 l 381 1046 l 288 1046 l 233 1100 m 539 1101 l 539 1179 l 592 1235 l 685 1235 l 739 1181 l 739 1100 l 685 1046 l 592 1046 l 539 1101 z "},"Ǘ":{"ha":972,"x_min":90,"x_max":882,"o":"m 90 167 l 90 972 l 279 972 l 279 232 l 350 161 l 622 161 l 693 232 l 693 972 l 882 972 l 882 167 l 715 0 l 257 0 l 90 167 m 499 1486 l 672 1486 l 553 1293 l 411 1293 l 499 1486 m 233 1100 l 233 1181 l 288 1235 l 381 1235 l 433 1179 l 433 1101 l 381 1046 l 288 1046 l 233 1100 m 539 1101 l 539 1179 l 592 1235 l 685 1235 l 739 1181 l 739 1100 l 685 1046 l 592 1046 l 539 1101 z "},"Ǚ":{"ha":972,"x_min":90,"x_max":882,"o":"m 90 167 l 90 972 l 279 972 l 279 232 l 350 161 l 622 161 l 693 232 l 693 972 l 882 972 l 882 167 l 715 0 l 257 0 l 90 167 m 235 1493 l 392 1493 l 482 1389 l 490 1389 l 581 1493 l 738 1493 l 554 1281 l 418 1281 l 235 1493 m 233 1100 l 233 1181 l 288 1235 l 381 1235 l 433 1179 l 433 1101 l 381 1046 l 288 1046 l 233 1100 m 539 1101 l 539 1179 l 592 1235 l 685 1235 l 739 1181 l 739 1100 l 685 1046 l 592 1046 l 539 1101 z "},"Ǜ":{"ha":972,"x_min":90,"x_max":882,"o":"m 90 167 l 90 972 l 279 972 l 279 232 l 350 161 l 622 161 l 693 232 l 693 972 l 882 972 l 882 167 l 715 0 l 257 0 l 90 167 m 296 1486 l 469 1486 l 557 1293 l 415 1293 l 296 1486 m 233 1100 l 233 1181 l 288 1235 l 381 1235 l 433 1179 l 433 1101 l 381 1046 l 288 1046 l 233 1100 m 539 1101 l 539 1179 l 592 1235 l 685 1235 l 739 1181 l 739 1100 l 685 1046 l 592 1046 l 539 1101 z "},"Ǖ":{"ha":972,"x_min":90,"x_max":882,"o":"m 90 167 l 90 972 l 279 972 l 279 232 l 350 161 l 622 161 l 693 232 l 693 972 l 882 972 l 882 167 l 715 0 l 257 0 l 90 167 m 250 1460 l 722 1460 l 722 1324 l 250 1324 l 250 1460 m 233 1100 l 233 1181 l 288 1235 l 381 1235 l 433 1179 l 433 1101 l 381 1046 l 288 1046 l 233 1100 m 539 1101 l 539 1179 l 592 1235 l 685 1235 l 739 1181 l 739 1100 l 685 1046 l 592 1046 l 539 1101 z "},"Ụ":{"ha":972,"x_min":90,"x_max":882,"o":"m 90 167 l 90 972 l 279 972 l 279 232 l 350 161 l 622 161 l 693 232 l 693 972 l 882 972 l 882 167 l 715 0 l 257 0 l 90 167 z "},"Ù":{"ha":972,"x_min":90,"x_max":882,"o":"m 90 167 l 90 972 l 279 972 l 279 232 l 350 161 l 622 161 l 693 232 l 693 972 l 882 972 l 882 167 l 715 0 l 257 0 l 90 167 m 275 1271 l 468 1271 l 574 1036 l 413 1036 l 275 1271 z "},"Ủ":{"ha":972,"x_min":90,"x_max":882,"o":"m 90 167 l 90 972 l 279 972 l 279 232 l 350 161 l 622 161 l 693 232 l 693 972 l 882 972 l 882 167 l 715 0 l 257 0 l 90 167 m 406 1117 l 529 1210 l 529 1249 l 513 1265 l 460 1265 l 443 1249 l 443 1194 l 300 1194 l 300 1289 l 393 1382 l 579 1382 l 672 1289 l 672 1169 l 568 1092 l 568 1036 l 406 1036 l 406 1117 z "},"Ư":{"ha":1099,"x_min":90,"x_max":1125,"o":"m 1125 986 l 1125 832 l 992 699 l 882 699 l 882 167 l 715 0 l 257 0 l 90 167 l 90 972 l 279 972 l 279 232 l 350 161 l 622 161 l 693 232 l 693 972 l 882 972 l 882 832 l 921 832 l 969 881 l 969 986 l 1125 986 z "},"Ứ":{"ha":1099,"x_min":90,"x_max":1125,"o":"m 1125 986 l 1125 832 l 992 699 l 882 699 l 882 167 l 715 0 l 257 0 l 90 167 l 90 972 l 279 972 l 279 232 l 350 161 l 622 161 l 693 232 l 693 972 l 882 972 l 882 832 l 921 832 l 969 881 l 969 986 l 1125 986 m 508 1271 l 701 1271 l 564 1036 l 403 1036 l 508 1271 z "},"Ự":{"ha":1099,"x_min":90,"x_max":1125,"o":"m 1125 986 l 1125 832 l 992 699 l 882 699 l 882 167 l 715 0 l 257 0 l 90 167 l 90 972 l 279 972 l 279 232 l 350 161 l 622 161 l 693 232 l 693 972 l 882 972 l 882 832 l 921 832 l 969 881 l 969 986 l 1125 986 z "},"Ừ":{"ha":1099,"x_min":90,"x_max":1125,"o":"m 1125 986 l 1125 832 l 992 699 l 882 699 l 882 167 l 715 0 l 257 0 l 90 167 l 90 972 l 279 972 l 279 232 l 350 161 l 622 161 l 693 232 l 693 972 l 882 972 l 882 832 l 921 832 l 969 881 l 969 986 l 1125 986 m 275 1271 l 468 1271 l 574 1036 l 413 1036 l 275 1271 z "},"Ử":{"ha":1099,"x_min":90,"x_max":1125,"o":"m 1125 986 l 1125 832 l 992 699 l 882 699 l 882 167 l 715 0 l 257 0 l 90 167 l 90 972 l 279 972 l 279 232 l 350 161 l 622 161 l 693 232 l 693 972 l 882 972 l 882 832 l 921 832 l 969 881 l 969 986 l 1125 986 m 406 1117 l 529 1210 l 529 1249 l 513 1265 l 460 1265 l 443 1249 l 443 1194 l 300 1194 l 300 1289 l 393 1382 l 579 1382 l 672 1289 l 672 1169 l 568 1092 l 568 1036 l 406 1036 l 406 1117 z "},"Ữ":{"ha":1099,"x_min":90,"x_max":1125,"o":"m 1125 986 l 1125 832 l 992 699 l 882 699 l 882 167 l 715 0 l 257 0 l 90 167 l 90 972 l 279 972 l 279 232 l 350 161 l 622 161 l 693 232 l 693 972 l 882 972 l 882 832 l 921 832 l 969 881 l 969 986 l 1125 986 m 426 1122 l 396 1122 l 378 1106 l 378 1060 l 244 1058 l 244 1157 l 340 1253 l 457 1253 l 546 1181 l 578 1181 l 594 1197 l 594 1244 l 728 1244 l 728 1146 l 632 1050 l 515 1050 l 426 1122 z "},"Ű":{"ha":972,"x_min":90,"x_max":882,"o":"m 90 167 l 90 972 l 279 972 l 279 232 l 350 161 l 622 161 l 693 232 l 693 972 l 882 972 l 882 167 l 715 0 l 257 0 l 90 167 m 372 1271 l 554 1271 l 422 1036 l 272 1036 l 372 1271 m 611 1271 l 793 1271 l 660 1036 l 510 1036 l 611 1271 z "},"Ū":{"ha":972,"x_min":90,"x_max":882,"o":"m 90 167 l 90 972 l 279 972 l 279 232 l 350 161 l 622 161 l 693 232 l 693 972 l 882 972 l 882 167 l 715 0 l 257 0 l 90 167 m 250 1197 l 722 1197 l 722 1050 l 250 1050 l 250 1197 z "},"Ų":{"ha":972,"x_min":90,"x_max":882,"o":"m 90 167 l 90 972 l 279 972 l 279 232 l 350 161 l 622 161 l 693 232 l 693 972 l 882 972 l 882 167 l 715 0 l 257 0 l 90 167 m 336 -221 l 336 -100 l 433 0 l 599 0 l 494 -108 l 494 -157 l 519 -182 l 642 -182 l 642 -310 l 425 -310 l 336 -221 z "},"Ů":{"ha":972,"x_min":90,"x_max":882,"o":"m 90 167 l 90 972 l 279 972 l 279 232 l 350 161 l 622 161 l 693 232 l 693 972 l 882 972 l 882 167 l 715 0 l 257 0 l 90 167 m 314 1132 l 314 1268 l 410 1364 l 563 1364 l 658 1268 l 658 1132 l 563 1036 l 410 1036 l 314 1132 m 517 1140 l 550 1174 l 550 1226 l 517 1260 l 456 1260 l 422 1226 l 422 1174 l 456 1140 l 517 1140 z "},"Ũ":{"ha":972,"x_min":90,"x_max":882,"o":"m 90 167 l 90 972 l 279 972 l 279 232 l 350 161 l 622 161 l 693 232 l 693 972 l 882 972 l 882 167 l 715 0 l 257 0 l 90 167 m 426 1122 l 396 1122 l 378 1106 l 378 1060 l 244 1058 l 244 1157 l 340 1253 l 457 1253 l 546 1181 l 578 1181 l 594 1197 l 594 1244 l 728 1244 l 728 1146 l 632 1050 l 515 1050 l 426 1122 z "},"V":{"ha":903,"x_min":14,"x_max":889,"o":"m 14 972 l 208 972 l 450 225 l 453 225 l 694 972 l 889 972 l 543 0 l 360 0 l 14 972 z "},"W":{"ha":1221,"x_min":35,"x_max":1186,"o":"m 35 972 l 225 972 l 343 286 l 349 286 l 542 972 l 683 972 l 872 286 l 878 286 l 996 972 l 1186 972 l 985 0 l 808 0 l 615 683 l 610 683 l 413 0 l 236 0 l 35 972 z "},"Ẃ":{"ha":1221,"x_min":35,"x_max":1186,"o":"m 35 972 l 225 972 l 343 286 l 349 286 l 542 972 l 683 972 l 872 286 l 878 286 l 996 972 l 1186 972 l 985 0 l 808 0 l 615 683 l 610 683 l 413 0 l 236 0 l 35 972 m 633 1271 l 826 1271 l 689 1036 l 528 1036 l 633 1271 z "},"Ŵ":{"ha":1221,"x_min":35,"x_max":1186,"o":"m 35 972 l 225 972 l 343 286 l 349 286 l 542 972 l 683 972 l 872 286 l 878 286 l 996 972 l 1186 972 l 985 0 l 808 0 l 615 683 l 610 683 l 413 0 l 236 0 l 35 972 m 538 1260 l 685 1260 l 882 1036 l 706 1036 l 615 1140 l 607 1140 l 517 1036 l 340 1036 l 538 1260 z "},"Ẅ":{"ha":1221,"x_min":35,"x_max":1186,"o":"m 35 972 l 225 972 l 343 286 l 349 286 l 542 972 l 683 972 l 872 286 l 878 286 l 996 972 l 1186 972 l 985 0 l 808 0 l 615 683 l 610 683 l 413 0 l 236 0 l 35 972 m 358 1100 l 358 1181 l 413 1235 l 506 1235 l 558 1179 l 558 1101 l 506 1046 l 413 1046 l 358 1100 m 664 1101 l 664 1179 l 717 1235 l 810 1235 l 864 1181 l 864 1100 l 810 1046 l 717 1046 l 664 1101 z "},"Ẁ":{"ha":1221,"x_min":35,"x_max":1186,"o":"m 35 972 l 225 972 l 343 286 l 349 286 l 542 972 l 683 972 l 872 286 l 878 286 l 996 972 l 1186 972 l 985 0 l 808 0 l 615 683 l 610 683 l 413 0 l 236 0 l 35 972 m 386 1271 l 579 1271 l 685 1036 l 524 1036 l 386 1271 z "},"X":{"ha":906,"x_min":7,"x_max":899,"o":"m 346 501 l 21 972 l 233 972 l 453 653 l 672 972 l 885 972 l 560 496 l 899 0 l 686 0 l 453 343 l 219 0 l 7 0 l 346 501 z "},"Y":{"ha":881,"x_min":0,"x_max":881,"o":"m 346 397 l 0 972 l 207 972 l 439 574 l 442 574 l 674 972 l 881 972 l 535 397 l 535 0 l 346 0 l 346 397 z "},"Ý":{"ha":881,"x_min":0,"x_max":881,"o":"m 346 397 l 0 972 l 207 972 l 439 574 l 442 574 l 674 972 l 881 972 l 535 397 l 535 0 l 346 0 l 346 397 m 463 1271 l 656 1271 l 518 1036 l 357 1036 l 463 1271 z "},"Ŷ":{"ha":881,"x_min":0,"x_max":881,"o":"m 346 397 l 0 972 l 207 972 l 439 574 l 442 574 l 674 972 l 881 972 l 535 397 l 535 0 l 346 0 l 346 397 m 367 1260 l 514 1260 l 711 1036 l 535 1036 l 444 1140 l 436 1140 l 346 1036 l 169 1036 l 367 1260 z "},"Ÿ":{"ha":881,"x_min":0,"x_max":881,"o":"m 346 397 l 0 972 l 207 972 l 439 574 l 442 574 l 674 972 l 881 972 l 535 397 l 535 0 l 346 0 l 346 397 m 188 1100 l 188 1181 l 242 1235 l 335 1235 l 388 1179 l 388 1101 l 335 1046 l 242 1046 l 188 1100 m 493 1101 l 493 1179 l 546 1235 l 639 1235 l 693 1181 l 693 1100 l 639 1046 l 546 1046 l 493 1101 z "},"Ẏ":{"ha":881,"x_min":0,"x_max":881,"o":"m 346 397 l 0 972 l 207 972 l 439 574 l 442 574 l 674 972 l 881 972 l 535 397 l 535 0 l 346 0 l 346 397 m 335 1097 l 335 1183 l 392 1240 l 489 1240 l 546 1183 l 546 1097 l 489 1040 l 392 1040 l 335 1097 z "},"Ỵ":{"ha":881,"x_min":0,"x_max":881,"o":"m 346 397 l 0 972 l 207 972 l 439 574 l 442 574 l 674 972 l 881 972 l 535 397 l 535 0 l 346 0 l 346 397 z "},"Ỳ":{"ha":881,"x_min":0,"x_max":881,"o":"m 346 397 l 0 972 l 207 972 l 439 574 l 442 574 l 674 972 l 881 972 l 535 397 l 535 0 l 346 0 l 346 397 m 215 1271 l 408 1271 l 514 1036 l 353 1036 l 215 1271 z "},"Ỷ":{"ha":881,"x_min":0,"x_max":881,"o":"m 346 397 l 0 972 l 207 972 l 439 574 l 442 574 l 674 972 l 881 972 l 535 397 l 535 0 l 346 0 l 346 397 m 360 1117 l 483 1210 l 483 1249 l 467 1265 l 414 1265 l 397 1249 l 397 1194 l 254 1194 l 254 1289 l 347 1382 l 533 1382 l 626 1289 l 626 1169 l 522 1092 l 522 1036 l 360 1036 l 360 1117 z "},"Ỹ":{"ha":881,"x_min":0,"x_max":881,"o":"m 346 397 l 0 972 l 207 972 l 439 574 l 442 574 l 674 972 l 881 972 l 535 397 l 535 0 l 346 0 l 346 397 m 381 1122 l 350 1122 l 332 1106 l 332 1060 l 199 1058 l 199 1157 l 294 1253 l 411 1253 l 500 1181 l 532 1181 l 549 1197 l 549 1244 l 682 1244 l 682 1146 l 586 1050 l 469 1050 l 381 1122 z "},"Z":{"ha":822,"x_min":49,"x_max":774,"o":"m 49 150 l 547 811 l 547 814 l 63 814 l 63 972 l 774 972 l 774 822 l 275 161 l 275 158 l 774 158 l 774 0 l 49 0 l 49 150 z "},"Ź":{"ha":822,"x_min":49,"x_max":774,"o":"m 49 150 l 547 811 l 547 814 l 63 814 l 63 972 l 774 972 l 774 822 l 275 161 l 275 158 l 774 158 l 774 0 l 49 0 l 49 150 m 440 1271 l 633 1271 l 496 1036 l 335 1036 l 440 1271 z "},"Ž":{"ha":822,"x_min":49,"x_max":774,"o":"m 49 150 l 547 811 l 547 814 l 63 814 l 63 972 l 774 972 l 774 822 l 275 161 l 275 158 l 774 158 l 774 0 l 49 0 l 49 150 m 147 1260 l 324 1260 l 414 1156 l 422 1156 l 513 1260 l 689 1260 l 492 1036 l 344 1036 l 147 1260 z "},"Ż":{"ha":822,"x_min":49,"x_max":774,"o":"m 49 150 l 547 811 l 547 814 l 63 814 l 63 972 l 774 972 l 774 822 l 275 161 l 275 158 l 774 158 l 774 0 l 49 0 l 49 150 m 313 1097 l 313 1183 l 369 1240 l 467 1240 l 524 1183 l 524 1097 l 467 1040 l 369 1040 l 313 1097 z "},"Ẓ":{"ha":822,"x_min":49,"x_max":774,"o":"m 49 150 l 547 811 l 547 814 l 63 814 l 63 972 l 774 972 l 774 822 l 275 161 l 275 158 l 774 158 l 774 0 l 49 0 l 49 150 z "},"a":{"ha":799,"x_min":63,"x_max":722,"o":"m 63 128 l 63 286 l 190 414 l 542 414 l 542 501 l 499 544 l 290 544 l 249 501 l 249 463 l 68 463 l 68 542 l 217 692 l 574 692 l 722 542 l 722 0 l 557 0 l 557 99 l 454 0 l 190 0 l 63 128 m 442 142 l 542 238 l 542 283 l 281 283 l 243 246 l 243 176 l 278 142 l 442 142 z "},"á":{"ha":799,"x_min":63,"x_max":722,"o":"m 63 128 l 63 286 l 190 414 l 542 414 l 542 501 l 499 544 l 290 544 l 249 501 l 249 463 l 68 463 l 68 542 l 217 692 l 574 692 l 722 542 l 722 0 l 557 0 l 557 99 l 454 0 l 190 0 l 63 128 m 442 142 l 542 238 l 542 283 l 281 283 l 243 246 l 243 176 l 278 142 l 442 142 m 425 990 l 618 990 l 481 756 l 319 756 l 425 990 z "},"ă":{"ha":799,"x_min":63,"x_max":722,"o":"m 63 128 l 63 286 l 190 414 l 542 414 l 542 501 l 499 544 l 290 544 l 249 501 l 249 463 l 68 463 l 68 542 l 217 692 l 574 692 l 722 542 l 722 0 l 557 0 l 557 99 l 454 0 l 190 0 l 63 128 m 442 142 l 542 238 l 542 283 l 281 283 l 243 246 l 243 176 l 278 142 l 442 142 m 169 871 l 169 976 l 325 976 l 325 910 l 363 872 l 443 872 l 481 910 l 481 976 l 636 976 l 636 871 l 521 756 l 285 756 l 169 871 z "},"ắ":{"ha":799,"x_min":63,"x_max":722,"o":"m 63 128 l 63 286 l 190 414 l 542 414 l 542 501 l 499 544 l 290 544 l 249 501 l 249 463 l 68 463 l 68 542 l 217 692 l 574 692 l 722 542 l 722 0 l 557 0 l 557 99 l 454 0 l 190 0 l 63 128 m 442 142 l 542 238 l 542 283 l 281 283 l 243 246 l 243 176 l 278 142 l 442 142 m 414 1219 l 588 1219 l 468 1026 l 326 1026 l 414 1219 m 169 871 l 169 976 l 325 976 l 325 910 l 363 872 l 443 872 l 481 910 l 481 976 l 636 976 l 636 871 l 521 756 l 285 756 l 169 871 z "},"ặ":{"ha":799,"x_min":63,"x_max":722,"o":"m 63 128 l 63 286 l 190 414 l 542 414 l 542 501 l 499 544 l 290 544 l 249 501 l 249 463 l 68 463 l 68 542 l 217 692 l 574 692 l 722 542 l 722 0 l 557 0 l 557 99 l 454 0 l 190 0 l 63 128 m 442 142 l 542 238 l 542 283 l 281 283 l 243 246 l 243 176 l 278 142 l 442 142 m 169 871 l 169 976 l 325 976 l 325 910 l 363 872 l 443 872 l 481 910 l 481 976 l 636 976 l 636 871 l 521 756 l 285 756 l 169 871 z "},"ằ":{"ha":799,"x_min":63,"x_max":722,"o":"m 63 128 l 63 286 l 190 414 l 542 414 l 542 501 l 499 544 l 290 544 l 249 501 l 249 463 l 68 463 l 68 542 l 217 692 l 574 692 l 722 542 l 722 0 l 557 0 l 557 99 l 454 0 l 190 0 l 63 128 m 442 142 l 542 238 l 542 283 l 281 283 l 243 246 l 243 176 l 278 142 l 442 142 m 211 1219 l 385 1219 l 472 1026 l 331 1026 l 211 1219 m 169 871 l 169 976 l 325 976 l 325 910 l 363 872 l 443 872 l 481 910 l 481 976 l 636 976 l 636 871 l 521 756 l 285 756 l 169 871 z "},"ẳ":{"ha":799,"x_min":63,"x_max":722,"o":"m 63 128 l 63 286 l 190 414 l 542 414 l 542 501 l 499 544 l 290 544 l 249 501 l 249 463 l 68 463 l 68 542 l 217 692 l 574 692 l 722 542 l 722 0 l 557 0 l 557 99 l 454 0 l 190 0 l 63 128 m 442 142 l 542 238 l 542 283 l 281 283 l 243 246 l 243 176 l 278 142 l 442 142 m 335 1075 l 436 1151 l 436 1181 l 422 1194 l 383 1194 l 369 1181 l 369 1142 l 247 1142 l 247 1211 l 325 1289 l 481 1289 l 558 1211 l 558 1118 l 472 1057 l 472 1026 l 335 1026 l 335 1075 m 169 871 l 169 976 l 325 976 l 325 910 l 363 872 l 443 872 l 481 910 l 481 976 l 636 976 l 636 871 l 521 756 l 285 756 l 169 871 z "},"ẵ":{"ha":799,"x_min":63,"x_max":722,"o":"m 63 128 l 63 286 l 190 414 l 542 414 l 542 501 l 499 544 l 290 544 l 249 501 l 249 463 l 68 463 l 68 542 l 217 692 l 574 692 l 722 542 l 722 0 l 557 0 l 557 99 l 454 0 l 190 0 l 63 128 m 442 142 l 542 238 l 542 283 l 281 283 l 243 246 l 243 176 l 278 142 l 442 142 m 347 1096 l 313 1096 l 294 1079 l 294 1035 l 172 1035 l 172 1117 l 265 1210 l 369 1210 l 458 1140 l 494 1140 l 511 1157 l 511 1201 l 633 1201 l 633 1119 l 540 1026 l 436 1026 l 347 1096 m 169 871 l 169 976 l 325 976 l 325 910 l 363 872 l 443 872 l 481 910 l 481 976 l 636 976 l 636 871 l 521 756 l 285 756 l 169 871 z "},"ǎ":{"ha":799,"x_min":63,"x_max":722,"o":"m 63 128 l 63 286 l 190 414 l 542 414 l 542 501 l 499 544 l 290 544 l 249 501 l 249 463 l 68 463 l 68 542 l 217 692 l 574 692 l 722 542 l 722 0 l 557 0 l 557 99 l 454 0 l 190 0 l 63 128 m 442 142 l 542 238 l 542 283 l 281 283 l 243 246 l 243 176 l 278 142 l 442 142 m 132 979 l 308 979 l 399 875 l 407 875 l 497 979 l 674 979 l 476 756 l 329 756 l 132 979 z "},"â":{"ha":799,"x_min":63,"x_max":722,"o":"m 63 128 l 63 286 l 190 414 l 542 414 l 542 501 l 499 544 l 290 544 l 249 501 l 249 463 l 68 463 l 68 542 l 217 692 l 574 692 l 722 542 l 722 0 l 557 0 l 557 99 l 454 0 l 190 0 l 63 128 m 442 142 l 542 238 l 542 283 l 281 283 l 243 246 l 243 176 l 278 142 l 442 142 m 329 979 l 476 979 l 674 756 l 497 756 l 407 860 l 399 860 l 308 756 l 132 756 l 329 979 z "},"ấ":{"ha":799,"x_min":63,"x_max":813,"o":"m 63 128 l 63 286 l 190 414 l 542 414 l 542 501 l 499 544 l 290 544 l 249 501 l 249 463 l 68 463 l 68 542 l 217 692 l 574 692 l 722 542 l 722 0 l 557 0 l 557 99 l 454 0 l 190 0 l 63 128 m 442 142 l 542 238 l 542 283 l 281 283 l 243 246 l 243 176 l 278 142 l 442 142 m 639 1142 l 813 1142 l 693 949 l 551 949 l 639 1142 m 329 979 l 476 979 l 674 756 l 497 756 l 407 860 l 399 860 l 308 756 l 132 756 l 329 979 z "},"ậ":{"ha":799,"x_min":63,"x_max":722,"o":"m 63 128 l 63 286 l 190 414 l 542 414 l 542 501 l 499 544 l 290 544 l 249 501 l 249 463 l 68 463 l 68 542 l 217 692 l 574 692 l 722 542 l 722 0 l 557 0 l 557 99 l 454 0 l 190 0 l 63 128 m 442 142 l 542 238 l 542 283 l 281 283 l 243 246 l 243 176 l 278 142 l 442 142 m 329 979 l 476 979 l 674 756 l 497 756 l 407 860 l 399 860 l 308 756 l 132 756 l 329 979 z "},"ầ":{"ha":799,"x_min":63,"x_max":729,"o":"m 63 128 l 63 286 l 190 414 l 542 414 l 542 501 l 499 544 l 290 544 l 249 501 l 249 463 l 68 463 l 68 542 l 217 692 l 574 692 l 722 542 l 722 0 l 557 0 l 557 99 l 454 0 l 190 0 l 63 128 m 442 142 l 542 238 l 542 283 l 281 283 l 243 246 l 243 176 l 278 142 l 442 142 m 468 1142 l 642 1142 l 729 949 l 588 949 l 468 1142 m 329 979 l 476 979 l 674 756 l 497 756 l 407 860 l 399 860 l 308 756 l 132 756 l 329 979 z "},"ẩ":{"ha":799,"x_min":63,"x_max":815,"o":"m 63 128 l 63 286 l 190 414 l 542 414 l 542 501 l 499 544 l 290 544 l 249 501 l 249 463 l 68 463 l 68 542 l 217 692 l 574 692 l 722 542 l 722 0 l 557 0 l 557 99 l 454 0 l 190 0 l 63 128 m 442 142 l 542 238 l 542 283 l 281 283 l 243 246 l 243 176 l 278 142 l 442 142 m 592 961 l 693 1040 l 693 1072 l 679 1086 l 640 1086 l 626 1072 l 626 1031 l 504 1031 l 504 1106 l 582 1183 l 738 1183 l 815 1106 l 815 1007 l 729 943 l 729 910 l 592 910 l 592 961 m 329 979 l 476 979 l 674 756 l 497 756 l 407 860 l 399 860 l 308 756 l 132 756 l 329 979 z "},"ẫ":{"ha":799,"x_min":63,"x_max":722,"o":"m 63 128 l 63 286 l 190 414 l 542 414 l 542 501 l 499 544 l 290 544 l 249 501 l 249 463 l 68 463 l 68 542 l 217 692 l 574 692 l 722 542 l 722 0 l 557 0 l 557 99 l 454 0 l 190 0 l 63 128 m 442 142 l 542 238 l 542 283 l 281 283 l 243 246 l 243 176 l 278 142 l 442 142 m 347 1099 l 313 1099 l 294 1082 l 294 1038 l 172 1038 l 172 1119 l 265 1213 l 369 1213 l 458 1143 l 494 1143 l 511 1160 l 511 1204 l 633 1204 l 633 1122 l 540 1029 l 436 1029 l 347 1099 m 329 979 l 476 979 l 674 756 l 497 756 l 407 860 l 399 860 l 308 756 l 132 756 l 329 979 z "},"ä":{"ha":799,"x_min":63,"x_max":722,"o":"m 63 128 l 63 286 l 190 414 l 542 414 l 542 501 l 499 544 l 290 544 l 249 501 l 249 463 l 68 463 l 68 542 l 217 692 l 574 692 l 722 542 l 722 0 l 557 0 l 557 99 l 454 0 l 190 0 l 63 128 m 442 142 l 542 238 l 542 283 l 281 283 l 243 246 l 243 176 l 278 142 l 442 142 m 150 819 l 150 900 l 204 954 l 297 954 l 350 899 l 350 821 l 297 765 l 204 765 l 150 819 m 456 821 l 456 899 l 508 954 l 601 954 l 656 900 l 656 819 l 601 765 l 508 765 l 456 821 z "},"ạ":{"ha":799,"x_min":63,"x_max":722,"o":"m 63 128 l 63 286 l 190 414 l 542 414 l 542 501 l 499 544 l 290 544 l 249 501 l 249 463 l 68 463 l 68 542 l 217 692 l 574 692 l 722 542 l 722 0 l 557 0 l 557 99 l 454 0 l 190 0 l 63 128 m 442 142 l 542 238 l 542 283 l 281 283 l 243 246 l 243 176 l 278 142 l 442 142 z "},"à":{"ha":799,"x_min":63,"x_max":722,"o":"m 63 128 l 63 286 l 190 414 l 542 414 l 542 501 l 499 544 l 290 544 l 249 501 l 249 463 l 68 463 l 68 542 l 217 692 l 574 692 l 722 542 l 722 0 l 557 0 l 557 99 l 454 0 l 190 0 l 63 128 m 442 142 l 542 238 l 542 283 l 281 283 l 243 246 l 243 176 l 278 142 l 442 142 m 199 990 l 392 990 l 497 756 l 336 756 l 199 990 z "},"ả":{"ha":799,"x_min":63,"x_max":722,"o":"m 63 128 l 63 286 l 190 414 l 542 414 l 542 501 l 499 544 l 290 544 l 249 501 l 249 463 l 68 463 l 68 542 l 217 692 l 574 692 l 722 542 l 722 0 l 557 0 l 557 99 l 454 0 l 190 0 l 63 128 m 442 142 l 542 238 l 542 283 l 281 283 l 243 246 l 243 176 l 278 142 l 442 142 m 322 836 l 446 929 l 446 968 l 429 985 l 376 985 l 360 968 l 360 914 l 217 914 l 217 1008 l 310 1101 l 496 1101 l 589 1008 l 589 889 l 485 811 l 485 756 l 322 756 l 322 836 z "},"ɑ":{"ha":857,"x_min":69,"x_max":850,"o":"m 69 144 l 69 547 l 213 692 l 492 692 l 583 611 l 583 692 l 753 692 l 753 153 l 850 153 l 850 0 l 664 0 l 594 69 l 594 113 l 479 0 l 213 0 l 69 144 m 454 156 l 569 271 l 569 451 l 472 536 l 306 536 l 253 482 l 253 210 l 306 156 l 454 156 z "},"ā":{"ha":799,"x_min":63,"x_max":722,"o":"m 63 128 l 63 286 l 190 414 l 542 414 l 542 501 l 499 544 l 290 544 l 249 501 l 249 463 l 68 463 l 68 542 l 217 692 l 574 692 l 722 542 l 722 0 l 557 0 l 557 99 l 454 0 l 190 0 l 63 128 m 442 142 l 542 238 l 542 283 l 281 283 l 243 246 l 243 176 l 278 142 l 442 142 m 167 917 l 639 917 l 639 769 l 167 769 l 167 917 z "},"ą":{"ha":799,"x_min":63,"x_max":765,"o":"m 63 128 l 63 286 l 190 414 l 542 414 l 542 501 l 499 544 l 290 544 l 249 501 l 249 463 l 68 463 l 68 542 l 217 692 l 574 692 l 722 542 l 722 0 l 557 0 l 557 99 l 454 0 l 190 0 l 63 128 m 442 142 l 542 238 l 542 283 l 281 283 l 243 246 l 243 176 l 278 142 l 442 142 m 460 -221 l 460 -100 l 557 0 l 722 0 l 618 -108 l 618 -157 l 643 -182 l 765 -182 l 765 -310 l 549 -310 l 460 -221 z "},"å":{"ha":799,"x_min":63,"x_max":722,"o":"m 63 128 l 63 286 l 190 414 l 542 414 l 542 501 l 499 544 l 290 544 l 249 501 l 249 463 l 68 463 l 68 542 l 217 692 l 574 692 l 722 542 l 722 0 l 557 0 l 557 99 l 454 0 l 190 0 l 63 128 m 442 142 l 542 238 l 542 283 l 281 283 l 243 246 l 243 176 l 278 142 l 442 142 m 231 851 l 231 988 l 326 1083 l 479 1083 l 575 988 l 575 851 l 479 756 l 326 756 l 231 851 m 433 860 l 467 893 l 467 946 l 433 979 l 372 979 l 339 946 l 339 893 l 372 860 l 433 860 z "},"ǻ":{"ha":799,"x_min":63,"x_max":722,"o":"m 63 128 l 63 286 l 190 414 l 542 414 l 542 501 l 499 544 l 290 544 l 249 501 l 249 463 l 68 463 l 68 542 l 217 692 l 574 692 l 722 542 l 722 0 l 557 0 l 557 99 l 454 0 l 190 0 l 63 128 m 442 142 l 542 238 l 542 283 l 281 283 l 243 246 l 243 176 l 278 142 l 442 142 m 231 851 l 231 988 l 326 1083 l 479 1083 l 575 988 l 575 851 l 479 756 l 326 756 l 231 851 m 433 860 l 467 893 l 467 946 l 433 979 l 372 979 l 339 946 l 339 893 l 372 860 l 433 860 m 425 1382 l 618 1382 l 481 1147 l 319 1147 l 425 1382 z "},"ã":{"ha":799,"x_min":63,"x_max":722,"o":"m 63 128 l 63 286 l 190 414 l 542 414 l 542 501 l 499 544 l 290 544 l 249 501 l 249 463 l 68 463 l 68 542 l 217 692 l 574 692 l 722 542 l 722 0 l 557 0 l 557 99 l 454 0 l 190 0 l 63 128 m 442 142 l 542 238 l 542 283 l 281 283 l 243 246 l 243 176 l 278 142 l 442 142 m 343 842 l 313 842 l 294 825 l 294 779 l 161 778 l 161 876 l 257 972 l 374 972 l 463 900 l 494 900 l 511 917 l 511 964 l 644 964 l 644 865 l 549 769 l 432 769 l 343 842 z "},"æ":{"ha":1271,"x_min":63,"x_max":1208,"o":"m 732 286 l 732 199 l 778 153 l 981 153 l 1024 196 l 1024 238 l 1207 238 l 1207 147 l 1060 0 l 701 0 l 611 92 l 519 0 l 190 0 l 63 128 l 63 286 l 190 414 l 542 414 l 542 501 l 499 544 l 290 544 l 249 501 l 249 463 l 68 463 l 68 542 l 217 692 l 565 692 l 640 617 l 715 692 l 1057 692 l 1208 542 l 1208 286 l 732 286 m 732 414 l 1025 414 l 1025 496 l 979 542 l 778 542 l 732 496 l 732 414 m 549 283 l 281 283 l 243 246 l 243 176 l 278 142 l 458 142 l 549 232 l 549 283 z "},"ǽ":{"ha":1271,"x_min":63,"x_max":1208,"o":"m 732 286 l 732 199 l 778 153 l 981 153 l 1024 196 l 1024 238 l 1207 238 l 1207 147 l 1060 0 l 701 0 l 611 92 l 519 0 l 190 0 l 63 128 l 63 286 l 190 414 l 542 414 l 542 501 l 499 544 l 290 544 l 249 501 l 249 463 l 68 463 l 68 542 l 217 692 l 565 692 l 640 617 l 715 692 l 1057 692 l 1208 542 l 1208 286 l 732 286 m 732 414 l 1025 414 l 1025 496 l 979 542 l 778 542 l 732 496 l 732 414 m 549 283 l 281 283 l 243 246 l 243 176 l 278 142 l 458 142 l 549 232 l 549 283 m 665 990 l 858 990 l 721 756 l 560 756 l 665 990 z "},"b":{"ha":833,"x_min":83,"x_max":764,"o":"m 83 150 l 83 992 l 267 992 l 267 596 l 368 692 l 621 692 l 764 547 l 764 144 l 621 0 l 232 0 l 83 150 m 528 156 l 581 210 l 581 482 l 528 536 l 392 536 l 267 411 l 267 210 l 319 156 l 528 156 z "},"c":{"ha":775,"x_min":69,"x_max":733,"o":"m 69 142 l 69 550 l 210 692 l 590 692 l 733 547 l 733 419 l 550 419 l 550 488 l 501 536 l 301 536 l 253 488 l 253 204 l 301 156 l 501 156 l 550 204 l 550 272 l 733 272 l 733 144 l 590 0 l 210 0 l 69 142 z "},"ć":{"ha":775,"x_min":69,"x_max":733,"o":"m 69 142 l 69 550 l 210 692 l 590 692 l 733 547 l 733 419 l 550 419 l 550 488 l 501 536 l 301 536 l 253 488 l 253 204 l 301 156 l 501 156 l 550 204 l 550 272 l 733 272 l 733 144 l 590 0 l 210 0 l 69 142 m 422 990 l 615 990 l 478 756 l 317 756 l 422 990 z "},"č":{"ha":775,"x_min":69,"x_max":733,"o":"m 69 142 l 69 550 l 210 692 l 590 692 l 733 547 l 733 419 l 550 419 l 550 488 l 501 536 l 301 536 l 253 488 l 253 204 l 301 156 l 501 156 l 550 204 l 550 272 l 733 272 l 733 144 l 590 0 l 210 0 l 69 142 m 129 979 l 306 979 l 396 875 l 404 875 l 494 979 l 671 979 l 474 756 l 326 756 l 129 979 z "},"ç":{"ha":775,"x_min":69,"x_max":733,"o":"m 550 419 l 550 488 l 501 536 l 301 536 l 253 488 l 253 204 l 301 156 l 501 156 l 550 204 l 550 272 l 733 272 l 733 144 l 590 0 l 463 0 l 443 -47 l 515 -47 l 585 -117 l 585 -239 l 513 -311 l 271 -311 l 271 -208 l 435 -208 l 451 -192 l 451 -156 l 435 -139 l 297 -139 l 297 -96 l 333 0 l 210 0 l 69 142 l 69 550 l 210 692 l 590 692 l 733 547 l 733 419 l 550 419 z "},"ĉ":{"ha":775,"x_min":69,"x_max":733,"o":"m 69 142 l 69 550 l 210 692 l 590 692 l 733 547 l 733 419 l 550 419 l 550 488 l 501 536 l 301 536 l 253 488 l 253 204 l 301 156 l 501 156 l 550 204 l 550 272 l 733 272 l 733 144 l 590 0 l 210 0 l 69 142 m 326 979 l 474 979 l 671 756 l 494 756 l 404 860 l 396 860 l 306 756 l 129 756 l 326 979 z "},"ċ":{"ha":775,"x_min":69,"x_max":733,"o":"m 69 142 l 69 550 l 210 692 l 590 692 l 733 547 l 733 419 l 550 419 l 550 488 l 501 536 l 301 536 l 253 488 l 253 204 l 301 156 l 501 156 l 550 204 l 550 272 l 733 272 l 733 144 l 590 0 l 210 0 l 69 142 m 294 817 l 294 903 l 351 960 l 449 960 l 506 903 l 506 817 l 449 760 l 351 760 l 294 817 z "},"d":{"ha":836,"x_min":69,"x_max":753,"o":"m 69 144 l 69 547 l 213 692 l 488 692 l 569 621 l 569 992 l 753 992 l 753 0 l 581 0 l 581 107 l 474 0 l 213 0 l 69 144 m 457 156 l 569 271 l 569 451 l 475 536 l 306 536 l 253 482 l 253 210 l 306 156 l 457 156 z "},"ð":{"ha":857,"x_min":69,"x_max":815,"o":"m 704 804 l 781 701 l 781 150 l 631 0 l 219 0 l 69 150 l 69 472 l 219 622 l 510 622 l 594 550 l 594 674 l 560 721 l 431 646 l 368 756 l 483 822 l 471 839 l 274 839 l 274 972 l 581 972 l 629 907 l 753 978 l 815 868 l 704 804 m 594 367 l 485 464 l 304 464 l 256 415 l 256 213 l 304 164 l 546 164 l 594 213 l 594 367 z "},"ď":{"ha":1097,"x_min":69,"x_max":1069,"o":"m 69 144 l 69 547 l 213 692 l 488 692 l 569 621 l 569 992 l 753 992 l 753 0 l 581 0 l 581 107 l 474 0 l 213 0 l 69 144 m 457 156 l 569 271 l 569 451 l 475 536 l 306 536 l 253 482 l 253 210 l 306 156 l 457 156 z "},"đ":{"ha":861,"x_min":69,"x_max":868,"o":"m 868 764 l 753 764 l 753 0 l 581 0 l 581 107 l 474 0 l 213 0 l 69 144 l 69 547 l 213 692 l 488 692 l 569 621 l 569 764 l 358 764 l 358 894 l 569 894 l 569 992 l 753 992 l 753 894 l 868 894 l 868 764 m 569 451 l 475 536 l 306 536 l 253 482 l 253 210 l 306 156 l 457 156 l 569 271 l 569 451 z "},"ḍ":{"ha":836,"x_min":69,"x_max":753,"o":"m 69 144 l 69 547 l 213 692 l 488 692 l 569 621 l 569 992 l 753 992 l 753 0 l 581 0 l 581 107 l 474 0 l 213 0 l 69 144 m 457 156 l 569 271 l 569 451 l 475 536 l 306 536 l 253 482 l 253 210 l 306 156 l 457 156 z "},"ḏ":{"ha":836,"x_min":69,"x_max":753,"o":"m 69 144 l 69 547 l 213 692 l 488 692 l 569 621 l 569 992 l 753 992 l 753 0 l 581 0 l 581 107 l 474 0 l 213 0 l 69 144 m 457 156 l 569 271 l 569 451 l 475 536 l 306 536 l 253 482 l 253 210 l 306 156 l 457 156 z "},"e":{"ha":810,"x_min":69,"x_max":747,"o":"m 69 142 l 69 547 l 213 692 l 603 692 l 747 547 l 747 285 l 253 285 l 253 196 l 297 150 l 524 150 l 565 193 l 565 229 l 746 229 l 746 139 l 608 0 l 210 0 l 69 142 m 564 413 l 564 493 l 517 542 l 300 542 l 253 493 l 253 413 l 564 413 z "},"é":{"ha":810,"x_min":69,"x_max":747,"o":"m 69 142 l 69 547 l 213 692 l 603 692 l 747 547 l 747 285 l 253 285 l 253 196 l 297 150 l 524 150 l 565 193 l 565 229 l 746 229 l 746 139 l 608 0 l 210 0 l 69 142 m 564 413 l 564 493 l 517 542 l 300 542 l 253 493 l 253 413 l 564 413 m 432 990 l 625 990 l 488 756 l 326 756 l 432 990 z "},"ĕ":{"ha":810,"x_min":69,"x_max":747,"o":"m 69 142 l 69 547 l 213 692 l 603 692 l 747 547 l 747 285 l 253 285 l 253 196 l 297 150 l 524 150 l 565 193 l 565 229 l 746 229 l 746 139 l 608 0 l 210 0 l 69 142 m 564 413 l 564 493 l 517 542 l 300 542 l 253 493 l 253 413 l 564 413 m 176 871 l 176 976 l 332 976 l 332 910 l 369 872 l 450 872 l 488 910 l 488 976 l 643 976 l 643 871 l 528 756 l 292 756 l 176 871 z "},"ě":{"ha":810,"x_min":69,"x_max":747,"o":"m 69 142 l 69 547 l 213 692 l 603 692 l 747 547 l 747 285 l 253 285 l 253 196 l 297 150 l 524 150 l 565 193 l 565 229 l 746 229 l 746 139 l 608 0 l 210 0 l 69 142 m 564 413 l 564 493 l 517 542 l 300 542 l 253 493 l 253 413 l 564 413 m 139 979 l 315 979 l 406 875 l 414 875 l 504 979 l 681 979 l 483 756 l 336 756 l 139 979 z "},"ê":{"ha":810,"x_min":69,"x_max":747,"o":"m 69 142 l 69 547 l 213 692 l 603 692 l 747 547 l 747 285 l 253 285 l 253 196 l 297 150 l 524 150 l 565 193 l 565 229 l 746 229 l 746 139 l 608 0 l 210 0 l 69 142 m 564 413 l 564 493 l 517 542 l 300 542 l 253 493 l 253 413 l 564 413 m 336 979 l 483 979 l 681 756 l 504 756 l 414 860 l 406 860 l 315 756 l 139 756 l 336 979 z "},"ế":{"ha":810,"x_min":69,"x_max":819,"o":"m 69 142 l 69 547 l 213 692 l 603 692 l 747 547 l 747 285 l 253 285 l 253 196 l 297 150 l 524 150 l 565 193 l 565 229 l 746 229 l 746 139 l 608 0 l 210 0 l 69 142 m 564 413 l 564 493 l 517 542 l 300 542 l 253 493 l 253 413 l 564 413 m 646 1142 l 819 1142 l 700 949 l 558 949 l 646 1142 m 336 979 l 483 979 l 681 756 l 504 756 l 414 860 l 406 860 l 315 756 l 139 756 l 336 979 z "},"ệ":{"ha":810,"x_min":69,"x_max":747,"o":"m 69 142 l 69 547 l 213 692 l 603 692 l 747 547 l 747 285 l 253 285 l 253 196 l 297 150 l 524 150 l 565 193 l 565 229 l 746 229 l 746 139 l 608 0 l 210 0 l 69 142 m 564 413 l 564 493 l 517 542 l 300 542 l 253 493 l 253 413 l 564 413 m 336 979 l 483 979 l 681 756 l 504 756 l 414 860 l 406 860 l 315 756 l 139 756 l 336 979 z "},"ề":{"ha":810,"x_min":69,"x_max":747,"o":"m 69 142 l 69 547 l 213 692 l 603 692 l 747 547 l 747 285 l 253 285 l 253 196 l 297 150 l 524 150 l 565 193 l 565 229 l 746 229 l 746 139 l 608 0 l 210 0 l 69 142 m 564 413 l 564 493 l 517 542 l 300 542 l 253 493 l 253 413 l 564 413 m 475 1142 l 649 1142 l 736 949 l 594 949 l 475 1142 m 336 979 l 483 979 l 681 756 l 504 756 l 414 860 l 406 860 l 315 756 l 139 756 l 336 979 z "},"ể":{"ha":810,"x_min":69,"x_max":822,"o":"m 69 142 l 69 547 l 213 692 l 603 692 l 747 547 l 747 285 l 253 285 l 253 196 l 297 150 l 524 150 l 565 193 l 565 229 l 746 229 l 746 139 l 608 0 l 210 0 l 69 142 m 564 413 l 564 493 l 517 542 l 300 542 l 253 493 l 253 413 l 564 413 m 599 961 l 700 1040 l 700 1072 l 686 1086 l 647 1086 l 633 1072 l 633 1031 l 511 1031 l 511 1106 l 589 1183 l 744 1183 l 822 1106 l 822 1007 l 736 943 l 736 910 l 599 910 l 599 961 m 336 979 l 483 979 l 681 756 l 504 756 l 414 860 l 406 860 l 315 756 l 139 756 l 336 979 z "},"ễ":{"ha":810,"x_min":69,"x_max":747,"o":"m 69 142 l 69 547 l 213 692 l 603 692 l 747 547 l 747 285 l 253 285 l 253 196 l 297 150 l 524 150 l 565 193 l 565 229 l 746 229 l 746 139 l 608 0 l 210 0 l 69 142 m 564 413 l 564 493 l 517 542 l 300 542 l 253 493 l 253 413 l 564 413 m 354 1099 l 319 1099 l 301 1082 l 301 1038 l 179 1038 l 179 1119 l 272 1213 l 376 1213 l 465 1143 l 501 1143 l 518 1160 l 518 1204 l 640 1204 l 640 1122 l 547 1029 l 443 1029 l 354 1099 m 336 979 l 483 979 l 681 756 l 504 756 l 414 860 l 406 860 l 315 756 l 139 756 l 336 979 z "},"ë":{"ha":810,"x_min":69,"x_max":747,"o":"m 69 142 l 69 547 l 213 692 l 603 692 l 747 547 l 747 285 l 253 285 l 253 196 l 297 150 l 524 150 l 565 193 l 565 229 l 746 229 l 746 139 l 608 0 l 210 0 l 69 142 m 564 413 l 564 493 l 517 542 l 300 542 l 253 493 l 253 413 l 564 413 m 157 819 l 157 900 l 211 954 l 304 954 l 357 899 l 357 821 l 304 765 l 211 765 l 157 819 m 463 821 l 463 899 l 515 954 l 608 954 l 663 900 l 663 819 l 608 765 l 515 765 l 463 821 z "},"ė":{"ha":810,"x_min":69,"x_max":747,"o":"m 69 142 l 69 547 l 213 692 l 603 692 l 747 547 l 747 285 l 253 285 l 253 196 l 297 150 l 524 150 l 565 193 l 565 229 l 746 229 l 746 139 l 608 0 l 210 0 l 69 142 m 564 413 l 564 493 l 517 542 l 300 542 l 253 493 l 253 413 l 564 413 m 304 817 l 304 903 l 361 960 l 458 960 l 515 903 l 515 817 l 458 760 l 361 760 l 304 817 z "},"ẹ":{"ha":810,"x_min":69,"x_max":747,"o":"m 69 142 l 69 547 l 213 692 l 603 692 l 747 547 l 747 285 l 253 285 l 253 196 l 297 150 l 524 150 l 565 193 l 565 229 l 746 229 l 746 139 l 608 0 l 210 0 l 69 142 m 564 413 l 564 493 l 517 542 l 300 542 l 253 493 l 253 413 l 564 413 z "},"è":{"ha":810,"x_min":69,"x_max":747,"o":"m 69 142 l 69 547 l 213 692 l 603 692 l 747 547 l 747 285 l 253 285 l 253 196 l 297 150 l 524 150 l 565 193 l 565 229 l 746 229 l 746 139 l 608 0 l 210 0 l 69 142 m 564 413 l 564 493 l 517 542 l 300 542 l 253 493 l 253 413 l 564 413 m 185 990 l 378 990 l 483 756 l 322 756 l 185 990 z "},"ẻ":{"ha":810,"x_min":69,"x_max":747,"o":"m 69 142 l 69 547 l 213 692 l 603 692 l 747 547 l 747 285 l 253 285 l 253 196 l 297 150 l 524 150 l 565 193 l 565 229 l 746 229 l 746 139 l 608 0 l 210 0 l 69 142 m 564 413 l 564 493 l 517 542 l 300 542 l 253 493 l 253 413 l 564 413 m 329 836 l 453 929 l 453 968 l 436 985 l 383 985 l 367 968 l 367 914 l 224 914 l 224 1008 l 317 1101 l 503 1101 l 596 1008 l 596 889 l 492 811 l 492 756 l 329 756 l 329 836 z "},"ē":{"ha":810,"x_min":69,"x_max":747,"o":"m 69 142 l 69 547 l 213 692 l 603 692 l 747 547 l 747 285 l 253 285 l 253 196 l 297 150 l 524 150 l 565 193 l 565 229 l 746 229 l 746 139 l 608 0 l 210 0 l 69 142 m 564 413 l 564 493 l 517 542 l 300 542 l 253 493 l 253 413 l 564 413 m 174 917 l 646 917 l 646 769 l 174 769 l 174 917 z "},"ę":{"ha":810,"x_min":69,"x_max":747,"o":"m 69 142 l 69 547 l 213 692 l 603 692 l 747 547 l 747 285 l 253 285 l 253 196 l 297 150 l 524 150 l 565 193 l 565 229 l 746 229 l 746 139 l 608 0 l 210 0 l 69 142 m 564 413 l 564 493 l 517 542 l 300 542 l 253 493 l 253 413 l 564 413 m 346 -221 l 346 -100 l 443 0 l 608 0 l 504 -108 l 504 -157 l 529 -182 l 651 -182 l 651 -310 l 435 -310 l 346 -221 z "},"ẽ":{"ha":810,"x_min":69,"x_max":747,"o":"m 69 142 l 69 547 l 213 692 l 603 692 l 747 547 l 747 285 l 253 285 l 253 196 l 297 150 l 524 150 l 565 193 l 565 229 l 746 229 l 746 139 l 608 0 l 210 0 l 69 142 m 564 413 l 564 493 l 517 542 l 300 542 l 253 493 l 253 413 l 564 413 m 350 842 l 319 842 l 301 825 l 301 779 l 168 778 l 168 876 l 264 972 l 381 972 l 469 900 l 501 900 l 518 917 l 518 964 l 651 964 l 651 865 l 556 769 l 439 769 l 350 842 z "},"ə":{"ha":810,"x_min":63,"x_max":740,"o":"m 740 550 l 740 144 l 597 0 l 207 0 l 63 144 l 63 407 l 557 407 l 557 496 l 513 542 l 286 542 l 244 499 l 244 463 l 64 463 l 64 553 l 201 692 l 600 692 l 740 550 m 246 279 l 246 199 l 293 150 l 510 150 l 557 199 l 557 279 l 246 279 z "},"f":{"ha":556,"x_min":21,"x_max":542,"o":"m 146 538 l 21 538 l 21 692 l 146 692 l 146 829 l 286 969 l 542 969 l 542 818 l 365 818 l 326 779 l 326 692 l 542 692 l 542 538 l 329 538 l 329 0 l 146 0 l 146 538 z "},"g":{"ha":836,"x_min":69,"x_max":753,"o":"m 753 692 l 753 -158 l 603 -307 l 226 -307 l 97 -179 l 97 -85 l 281 -85 l 281 -126 l 307 -154 l 522 -154 l 569 -106 l 569 90 l 474 0 l 213 0 l 69 144 l 69 547 l 213 692 l 485 692 l 583 597 l 583 692 l 753 692 m 569 451 l 475 536 l 306 536 l 253 482 l 253 210 l 306 156 l 457 156 l 569 271 l 569 451 z "},"ğ":{"ha":836,"x_min":69,"x_max":753,"o":"m 753 692 l 753 -158 l 603 -307 l 226 -307 l 97 -179 l 97 -85 l 281 -85 l 281 -126 l 307 -154 l 522 -154 l 569 -106 l 569 90 l 474 0 l 213 0 l 69 144 l 69 547 l 213 692 l 485 692 l 583 597 l 583 692 l 753 692 m 569 451 l 475 536 l 306 536 l 253 482 l 253 210 l 306 156 l 457 156 l 569 271 l 569 451 m 181 871 l 181 976 l 336 976 l 336 910 l 374 872 l 454 872 l 492 910 l 492 976 l 647 976 l 647 871 l 532 756 l 296 756 l 181 871 z "},"ǧ":{"ha":836,"x_min":69,"x_max":753,"o":"m 753 692 l 753 -158 l 603 -307 l 226 -307 l 97 -179 l 97 -85 l 281 -85 l 281 -126 l 307 -154 l 522 -154 l 569 -106 l 569 90 l 474 0 l 213 0 l 69 144 l 69 547 l 213 692 l 485 692 l 583 597 l 583 692 l 753 692 m 569 451 l 475 536 l 306 536 l 253 482 l 253 210 l 306 156 l 457 156 l 569 271 l 569 451 m 143 979 l 319 979 l 410 875 l 418 875 l 508 979 l 685 979 l 488 756 l 340 756 l 143 979 z "},"ĝ":{"ha":836,"x_min":69,"x_max":753,"o":"m 753 692 l 753 -158 l 603 -307 l 226 -307 l 97 -179 l 97 -85 l 281 -85 l 281 -126 l 307 -154 l 522 -154 l 569 -106 l 569 90 l 474 0 l 213 0 l 69 144 l 69 547 l 213 692 l 485 692 l 583 597 l 583 692 l 753 692 m 569 451 l 475 536 l 306 536 l 253 482 l 253 210 l 306 156 l 457 156 l 569 271 l 569 451 m 340 979 l 488 979 l 685 756 l 508 756 l 418 860 l 410 860 l 319 756 l 143 756 l 340 979 z "},"ģ":{"ha":836,"x_min":69,"x_max":753,"o":"m 753 692 l 753 -158 l 603 -307 l 226 -307 l 97 -179 l 97 -85 l 281 -85 l 281 -126 l 307 -154 l 522 -154 l 569 -106 l 569 90 l 474 0 l 213 0 l 69 144 l 69 547 l 213 692 l 485 692 l 583 597 l 583 692 l 753 692 m 569 451 l 475 536 l 306 536 l 253 482 l 253 210 l 306 156 l 457 156 l 569 271 l 569 451 m 432 950 l 463 950 l 522 890 l 522 801 l 463 742 l 358 742 l 300 803 l 300 950 l 379 1136 l 488 1136 l 432 950 z "},"ġ":{"ha":836,"x_min":69,"x_max":753,"o":"m 753 692 l 753 -158 l 603 -307 l 226 -307 l 97 -179 l 97 -85 l 281 -85 l 281 -126 l 307 -154 l 522 -154 l 569 -106 l 569 90 l 474 0 l 213 0 l 69 144 l 69 547 l 213 692 l 485 692 l 583 597 l 583 692 l 753 692 m 569 451 l 475 536 l 306 536 l 253 482 l 253 210 l 306 156 l 457 156 l 569 271 l 569 451 m 308 817 l 308 903 l 365 960 l 463 960 l 519 903 l 519 817 l 463 760 l 365 760 l 308 817 z "},"ḡ":{"ha":836,"x_min":69,"x_max":753,"o":"m 753 692 l 753 -158 l 603 -307 l 226 -307 l 97 -179 l 97 -85 l 281 -85 l 281 -126 l 307 -154 l 522 -154 l 569 -106 l 569 90 l 474 0 l 213 0 l 69 144 l 69 547 l 213 692 l 485 692 l 583 597 l 583 692 l 753 692 m 569 451 l 475 536 l 306 536 l 253 482 l 253 210 l 306 156 l 457 156 l 569 271 l 569 451 m 178 917 l 650 917 l 650 769 l 178 769 l 178 917 z "},"h":{"ha":825,"x_min":83,"x_max":749,"o":"m 83 992 l 267 992 l 267 585 l 374 692 l 594 692 l 749 538 l 749 0 l 565 0 l 565 488 l 518 536 l 399 536 l 267 403 l 267 0 l 83 0 l 83 992 z "},"ħ":{"ha":860,"x_min":-7,"x_max":783,"o":"m 783 538 l 783 0 l 600 0 l 600 488 l 553 536 l 433 536 l 301 403 l 301 0 l 118 0 l 118 767 l -7 767 l -7 897 l 118 897 l 118 992 l 301 992 l 301 897 l 442 897 l 442 767 l 301 767 l 301 585 l 408 692 l 629 692 l 783 538 z "},"ḫ":{"ha":825,"x_min":83,"x_max":749,"o":"m 83 992 l 267 992 l 267 585 l 374 692 l 594 692 l 749 538 l 749 0 l 565 0 l 565 488 l 518 536 l 399 536 l 267 403 l 267 0 l 83 0 l 83 992 z "},"ĥ":{"ha":825,"x_min":83,"x_max":749,"o":"m 83 992 l 267 992 l 267 585 l 374 692 l 594 692 l 749 538 l 749 0 l 565 0 l 565 488 l 518 536 l 399 536 l 267 403 l 267 0 l 83 0 l 83 992 m 346 1265 l 493 1265 l 690 1042 l 514 1042 l 424 1146 l 415 1146 l 325 1042 l 149 1042 l 346 1265 z "},"ḥ":{"ha":825,"x_min":83,"x_max":749,"o":"m 83 992 l 267 992 l 267 585 l 374 692 l 594 692 l 749 538 l 749 0 l 565 0 l 565 488 l 518 536 l 399 536 l 267 403 l 267 0 l 83 0 l 83 992 z "},"i":{"ha":378,"x_min":76,"x_max":301,"o":"m 76 836 l 76 925 l 140 989 l 238 989 l 301 925 l 301 836 l 238 772 l 140 772 l 76 836 m 97 692 l 281 692 l 281 0 l 97 0 l 97 692 z "},"ı":{"ha":378,"x_min":97,"x_max":281,"o":"m 97 692 l 281 692 l 281 0 l 97 0 l 97 692 z "},"í":{"ha":378,"x_min":97,"x_max":404,"o":"m 97 692 l 281 692 l 281 0 l 97 0 l 97 692 m 211 990 l 404 990 l 267 756 l 106 756 l 211 990 z "},"ĭ":{"ha":378,"x_min":-44,"x_max":422,"o":"m 97 692 l 281 692 l 281 0 l 97 0 l 97 692 m -44 871 l -44 976 l 111 976 l 111 910 l 149 872 l 229 872 l 267 910 l 267 976 l 422 976 l 422 871 l 307 756 l 71 756 l -44 871 z "},"ǐ":{"ha":378,"x_min":-82,"x_max":460,"o":"m 97 692 l 281 692 l 281 0 l 97 0 l 97 692 m -82 979 l 94 979 l 185 875 l 193 875 l 283 979 l 460 979 l 263 756 l 115 756 l -82 979 z "},"î":{"ha":378,"x_min":-82,"x_max":460,"o":"m 97 692 l 281 692 l 281 0 l 97 0 l 97 692 m 115 979 l 263 979 l 460 756 l 283 756 l 193 860 l 185 860 l 94 756 l -82 756 l 115 979 z "},"ï":{"ha":378,"x_min":-64,"x_max":442,"o":"m 97 692 l 281 692 l 281 0 l 97 0 l 97 692 m -64 819 l -64 900 l -10 954 l 83 954 l 136 899 l 136 821 l 83 765 l -10 765 l -64 819 m 242 821 l 242 899 l 294 954 l 388 954 l 442 900 l 442 819 l 388 765 l 294 765 l 242 821 z "},"ị":{"ha":378,"x_min":76,"x_max":301,"o":"m 76 836 l 76 925 l 140 989 l 238 989 l 301 925 l 301 836 l 238 772 l 140 772 l 76 836 m 97 692 l 281 692 l 281 0 l 97 0 l 97 692 z "},"ì":{"ha":378,"x_min":-36,"x_max":281,"o":"m 97 692 l 281 692 l 281 0 l 97 0 l 97 692 m -36 990 l 157 990 l 263 756 l 101 756 l -36 990 z "},"ỉ":{"ha":378,"x_min":3,"x_max":375,"o":"m 97 692 l 281 692 l 281 0 l 97 0 l 97 692 m 108 836 l 232 929 l 232 968 l 215 985 l 163 985 l 146 968 l 146 914 l 3 914 l 3 1008 l 96 1101 l 282 1101 l 375 1008 l 375 889 l 271 811 l 271 756 l 108 756 l 108 836 z "},"ĳ":{"ha":732,"x_min":76,"x_max":656,"o":"m 76 836 l 76 925 l 140 989 l 238 989 l 301 925 l 301 836 l 238 772 l 140 772 l 76 836 m 97 692 l 281 692 l 281 0 l 97 0 l 97 692 m 431 836 l 431 925 l 494 989 l 592 989 l 656 925 l 656 836 l 592 772 l 494 772 l 431 836 m 243 -147 l 403 -147 l 451 -99 l 451 692 l 635 692 l 635 -154 l 486 -303 l 243 -303 l 243 -147 z "},"ī":{"ha":378,"x_min":-47,"x_max":425,"o":"m 97 692 l 281 692 l 281 0 l 97 0 l 97 692 m -47 917 l 425 917 l 425 769 l -47 769 l -47 917 z "},"į":{"ha":378,"x_min":18,"x_max":324,"o":"m 76 836 l 76 925 l 140 989 l 238 989 l 301 925 l 301 836 l 238 772 l 140 772 l 76 836 m 97 692 l 281 692 l 281 0 l 97 0 l 97 692 m 18 -221 l 18 -100 l 115 0 l 281 0 l 176 -108 l 176 -157 l 201 -182 l 324 -182 l 324 -310 l 107 -310 l 18 -221 z "},"ĩ":{"ha":378,"x_min":-53,"x_max":431,"o":"m 97 692 l 281 692 l 281 0 l 97 0 l 97 692 m 129 842 l 99 842 l 81 825 l 81 779 l -53 778 l -53 876 l 43 972 l 160 972 l 249 900 l 281 900 l 297 917 l 297 964 l 431 964 l 431 865 l 335 769 l 218 769 l 129 842 z "},"j":{"ha":399,"x_min":-90,"x_max":322,"o":"m 97 836 l 97 925 l 161 989 l 258 989 l 322 925 l 322 836 l 258 772 l 161 772 l 97 836 m -90 -147 l 69 -147 l 118 -99 l 118 692 l 301 692 l 301 -154 l 153 -303 l -90 -303 l -90 -147 z "},"ȷ":{"ha":399,"x_min":-90,"x_max":301,"o":"m -90 -144 l 69 -144 l 118 -96 l 118 692 l 301 692 l 301 -154 l 153 -303 l -90 -303 l -90 -144 z "},"ĵ":{"ha":399,"x_min":-90,"x_max":481,"o":"m -90 -144 l 69 -144 l 118 -96 l 118 692 l 301 692 l 301 -154 l 153 -303 l -90 -303 l -90 -144 m 136 979 l 283 979 l 481 756 l 304 756 l 214 860 l 206 860 l 115 756 l -61 756 l 136 979 z "},"k":{"ha":788,"x_min":83,"x_max":781,"o":"m 83 992 l 267 992 l 267 438 l 388 438 l 564 692 l 767 692 l 536 358 l 781 0 l 578 0 l 383 282 l 267 282 l 267 0 l 83 0 l 83 992 z "},"ķ":{"ha":788,"x_min":83,"x_max":781,"o":"m 83 992 l 267 992 l 267 438 l 388 438 l 564 692 l 767 692 l 536 358 l 781 0 l 578 0 l 383 282 l 267 282 l 267 0 l 83 0 l 83 992 z "},"ĸ":{"ha":828,"x_min":83,"x_max":821,"o":"m 83 692 l 272 692 l 272 426 l 410 426 l 583 692 l 797 692 l 567 344 l 821 0 l 604 0 l 411 263 l 272 263 l 272 0 l 83 0 l 83 692 z "},"l":{"ha":364,"x_min":90,"x_max":274,"o":"m 90 992 l 274 992 l 274 0 l 90 0 l 90 992 z "},"ĺ":{"ha":364,"x_min":90,"x_max":397,"o":"m 90 992 l 274 992 l 274 0 l 90 0 l 90 992 m 204 1304 l 397 1304 l 260 1069 l 99 1069 l 204 1304 z "},"ľ":{"ha":611,"x_min":90,"x_max":583,"o":"m 90 992 l 274 992 l 274 0 l 90 0 l 90 992 z "},"ļ":{"ha":364,"x_min":51,"x_max":274,"o":"m 90 992 l 274 992 l 274 0 l 90 0 l 90 992 z "},"ŀ":{"ha":611,"x_min":90,"x_max":607,"o":"m 90 992 l 274 992 l 274 0 l 90 0 l 90 992 z "},"ḷ":{"ha":364,"x_min":76,"x_max":288,"o":"m 90 992 l 274 992 l 274 0 l 90 0 l 90 992 z "},"ḹ":{"ha":364,"x_min":-54,"x_max":418,"o":"m 90 992 l 274 992 l 274 0 l 90 0 l 90 992 m -54 1231 l 418 1231 l 418 1083 l -54 1083 l -54 1231 z "},"ḻ":{"ha":364,"x_min":-54,"x_max":418,"o":"m 90 992 l 274 992 l 274 0 l 90 0 l 90 992 z "},"ł":{"ha":461,"x_min":0,"x_max":461,"o":"m 461 542 l 322 450 l 322 0 l 139 0 l 139 328 l 0 236 l 0 399 l 139 490 l 139 992 l 322 992 l 322 613 l 461 704 l 461 542 z "},"m":{"ha":1196,"x_min":83,"x_max":1119,"o":"m 83 692 l 253 692 l 253 578 l 365 692 l 540 692 l 635 596 l 729 692 l 971 692 l 1119 542 l 1119 0 l 936 0 l 936 488 l 889 536 l 772 536 l 699 463 l 699 0 l 521 0 l 521 490 l 476 536 l 393 536 l 267 408 l 267 0 l 83 0 l 83 692 z "},"ṃ":{"ha":1196,"x_min":83,"x_max":1119,"o":"m 83 692 l 253 692 l 253 578 l 365 692 l 540 692 l 635 596 l 729 692 l 971 692 l 1119 542 l 1119 0 l 936 0 l 936 488 l 889 536 l 772 536 l 699 463 l 699 0 l 521 0 l 521 490 l 476 536 l 393 536 l 267 408 l 267 0 l 83 0 l 83 692 z "},"n":{"ha":822,"x_min":83,"x_max":746,"o":"m 83 692 l 253 692 l 253 576 l 368 692 l 592 692 l 746 538 l 746 0 l 563 0 l 563 488 l 515 536 l 399 536 l 267 403 l 267 0 l 83 0 l 83 692 z "},"ń":{"ha":822,"x_min":83,"x_max":746,"o":"m 83 692 l 253 692 l 253 576 l 368 692 l 592 692 l 746 538 l 746 0 l 563 0 l 563 488 l 515 536 l 399 536 l 267 403 l 267 0 l 83 0 l 83 692 m 442 990 l 635 990 l 497 756 l 336 756 l 442 990 z "},"ŉ":{"ha":1065,"x_min":53,"x_max":989,"o":"m 326 692 l 496 692 l 496 576 l 611 692 l 835 692 l 989 538 l 989 0 l 806 0 l 806 488 l 758 536 l 642 536 l 510 403 l 510 0 l 326 0 l 326 692 z "},"ň":{"ha":822,"x_min":83,"x_max":746,"o":"m 83 692 l 253 692 l 253 576 l 368 692 l 592 692 l 746 538 l 746 0 l 563 0 l 563 488 l 515 536 l 399 536 l 267 403 l 267 0 l 83 0 l 83 692 m 149 979 l 325 979 l 415 875 l 424 875 l 514 979 l 690 979 l 493 756 l 346 756 l 149 979 z "},"ņ":{"ha":822,"x_min":83,"x_max":746,"o":"m 83 692 l 253 692 l 253 576 l 368 692 l 592 692 l 746 538 l 746 0 l 563 0 l 563 488 l 515 536 l 399 536 l 267 403 l 267 0 l 83 0 l 83 692 z "},"ṅ":{"ha":822,"x_min":83,"x_max":746,"o":"m 83 692 l 253 692 l 253 576 l 368 692 l 592 692 l 746 538 l 746 0 l 563 0 l 563 488 l 515 536 l 399 536 l 267 403 l 267 0 l 83 0 l 83 692 m 314 817 l 314 903 l 371 960 l 468 960 l 525 903 l 525 817 l 468 760 l 371 760 l 314 817 z "},"ṇ":{"ha":822,"x_min":83,"x_max":746,"o":"m 83 692 l 253 692 l 253 576 l 368 692 l 592 692 l 746 538 l 746 0 l 563 0 l 563 488 l 515 536 l 399 536 l 267 403 l 267 0 l 83 0 l 83 692 z "},"ŋ":{"ha":831,"x_min":83,"x_max":754,"o":"m 754 542 l 754 -154 l 606 -303 l 363 -303 l 363 -144 l 522 -144 l 571 -96 l 571 485 l 522 533 l 403 533 l 267 397 l 267 0 l 83 0 l 83 692 l 256 692 l 256 583 l 364 692 l 604 692 l 754 542 z "},"ṉ":{"ha":822,"x_min":83,"x_max":746,"o":"m 83 692 l 253 692 l 253 576 l 368 692 l 592 692 l 746 538 l 746 0 l 563 0 l 563 488 l 515 536 l 399 536 l 267 403 l 267 0 l 83 0 l 83 692 z "},"ñ":{"ha":822,"x_min":83,"x_max":746,"o":"m 83 692 l 253 692 l 253 576 l 368 692 l 592 692 l 746 538 l 746 0 l 563 0 l 563 488 l 515 536 l 399 536 l 267 403 l 267 0 l 83 0 l 83 692 m 360 842 l 329 842 l 311 825 l 311 779 l 178 778 l 178 876 l 274 972 l 390 972 l 479 900 l 511 900 l 528 917 l 528 964 l 661 964 l 661 865 l 565 769 l 449 769 l 360 842 z "},"o":{"ha":822,"x_min":69,"x_max":753,"o":"m 69 144 l 69 547 l 213 692 l 610 692 l 753 547 l 753 144 l 610 0 l 213 0 l 69 144 m 521 153 l 569 201 l 569 490 l 521 539 l 301 539 l 253 490 l 253 201 l 301 153 l 521 153 z "},"ó":{"ha":822,"x_min":69,"x_max":753,"o":"m 69 144 l 69 547 l 213 692 l 610 692 l 753 547 l 753 144 l 610 0 l 213 0 l 69 144 m 521 153 l 569 201 l 569 490 l 521 539 l 301 539 l 253 490 l 253 201 l 301 153 l 521 153 m 435 990 l 628 990 l 490 756 l 329 756 l 435 990 z "},"ŏ":{"ha":822,"x_min":69,"x_max":753,"o":"m 69 144 l 69 547 l 213 692 l 610 692 l 753 547 l 753 144 l 610 0 l 213 0 l 69 144 m 521 153 l 569 201 l 569 490 l 521 539 l 301 539 l 253 490 l 253 201 l 301 153 l 521 153 m 179 871 l 179 976 l 335 976 l 335 910 l 372 872 l 453 872 l 490 910 l 490 976 l 646 976 l 646 871 l 531 756 l 294 756 l 179 871 z "},"ǒ":{"ha":822,"x_min":69,"x_max":753,"o":"m 69 144 l 69 547 l 213 692 l 610 692 l 753 547 l 753 144 l 610 0 l 213 0 l 69 144 m 521 153 l 569 201 l 569 490 l 521 539 l 301 539 l 253 490 l 253 201 l 301 153 l 521 153 m 142 979 l 318 979 l 408 875 l 417 875 l 507 979 l 683 979 l 486 756 l 339 756 l 142 979 z "},"ô":{"ha":822,"x_min":69,"x_max":753,"o":"m 69 144 l 69 547 l 213 692 l 610 692 l 753 547 l 753 144 l 610 0 l 213 0 l 69 144 m 521 153 l 569 201 l 569 490 l 521 539 l 301 539 l 253 490 l 253 201 l 301 153 l 521 153 m 339 979 l 486 979 l 683 756 l 507 756 l 417 860 l 408 860 l 318 756 l 142 756 l 339 979 z "},"ố":{"ha":822,"x_min":69,"x_max":822,"o":"m 69 144 l 69 547 l 213 692 l 610 692 l 753 547 l 753 144 l 610 0 l 213 0 l 69 144 m 521 153 l 569 201 l 569 490 l 521 539 l 301 539 l 253 490 l 253 201 l 301 153 l 521 153 m 649 1142 l 822 1142 l 703 949 l 561 949 l 649 1142 m 339 979 l 486 979 l 683 756 l 507 756 l 417 860 l 408 860 l 318 756 l 142 756 l 339 979 z "},"ộ":{"ha":822,"x_min":69,"x_max":753,"o":"m 69 144 l 69 547 l 213 692 l 610 692 l 753 547 l 753 144 l 610 0 l 213 0 l 69 144 m 521 153 l 569 201 l 569 490 l 521 539 l 301 539 l 253 490 l 253 201 l 301 153 l 521 153 m 339 979 l 486 979 l 683 756 l 507 756 l 417 860 l 408 860 l 318 756 l 142 756 l 339 979 z "},"ồ":{"ha":822,"x_min":69,"x_max":753,"o":"m 69 144 l 69 547 l 213 692 l 610 692 l 753 547 l 753 144 l 610 0 l 213 0 l 69 144 m 521 153 l 569 201 l 569 490 l 521 539 l 301 539 l 253 490 l 253 201 l 301 153 l 521 153 m 478 1142 l 651 1142 l 739 949 l 597 949 l 478 1142 m 339 979 l 486 979 l 683 756 l 507 756 l 417 860 l 408 860 l 318 756 l 142 756 l 339 979 z "},"ổ":{"ha":822,"x_min":69,"x_max":825,"o":"m 69 144 l 69 547 l 213 692 l 610 692 l 753 547 l 753 144 l 610 0 l 213 0 l 69 144 m 521 153 l 569 201 l 569 490 l 521 539 l 301 539 l 253 490 l 253 201 l 301 153 l 521 153 m 601 961 l 703 1040 l 703 1072 l 689 1086 l 650 1086 l 636 1072 l 636 1031 l 514 1031 l 514 1106 l 592 1183 l 747 1183 l 825 1106 l 825 1007 l 739 943 l 739 910 l 601 910 l 601 961 m 339 979 l 486 979 l 683 756 l 507 756 l 417 860 l 408 860 l 318 756 l 142 756 l 339 979 z "},"ỗ":{"ha":822,"x_min":69,"x_max":753,"o":"m 69 144 l 69 547 l 213 692 l 610 692 l 753 547 l 753 144 l 610 0 l 213 0 l 69 144 m 521 153 l 569 201 l 569 490 l 521 539 l 301 539 l 253 490 l 253 201 l 301 153 l 521 153 m 357 1099 l 322 1099 l 304 1082 l 304 1038 l 182 1038 l 182 1119 l 275 1213 l 379 1213 l 468 1143 l 504 1143 l 521 1160 l 521 1204 l 643 1204 l 643 1122 l 550 1029 l 446 1029 l 357 1099 m 339 979 l 486 979 l 683 756 l 507 756 l 417 860 l 408 860 l 318 756 l 142 756 l 339 979 z "},"ö":{"ha":822,"x_min":69,"x_max":753,"o":"m 69 144 l 69 547 l 213 692 l 610 692 l 753 547 l 753 144 l 610 0 l 213 0 l 69 144 m 521 153 l 569 201 l 569 490 l 521 539 l 301 539 l 253 490 l 253 201 l 301 153 l 521 153 m 160 819 l 160 900 l 214 954 l 307 954 l 360 899 l 360 821 l 307 765 l 214 765 l 160 819 m 465 821 l 465 899 l 518 954 l 611 954 l 665 900 l 665 819 l 611 765 l 518 765 l 465 821 z "},"ọ":{"ha":822,"x_min":69,"x_max":753,"o":"m 69 144 l 69 547 l 213 692 l 610 692 l 753 547 l 753 144 l 610 0 l 213 0 l 69 144 m 521 153 l 569 201 l 569 490 l 521 539 l 301 539 l 253 490 l 253 201 l 301 153 l 521 153 z "},"ò":{"ha":822,"x_min":69,"x_max":753,"o":"m 69 144 l 69 547 l 213 692 l 610 692 l 753 547 l 753 144 l 610 0 l 213 0 l 69 144 m 521 153 l 569 201 l 569 490 l 521 539 l 301 539 l 253 490 l 253 201 l 301 153 l 521 153 m 188 990 l 381 990 l 486 756 l 325 756 l 188 990 z "},"ỏ":{"ha":822,"x_min":69,"x_max":753,"o":"m 69 144 l 69 547 l 213 692 l 610 692 l 753 547 l 753 144 l 610 0 l 213 0 l 69 144 m 521 153 l 569 201 l 569 490 l 521 539 l 301 539 l 253 490 l 253 201 l 301 153 l 521 153 m 332 836 l 456 929 l 456 968 l 439 985 l 386 985 l 369 968 l 369 914 l 226 914 l 226 1008 l 319 1101 l 506 1101 l 599 1008 l 599 889 l 494 811 l 494 756 l 332 756 l 332 836 z "},"ơ":{"ha":938,"x_min":69,"x_max":996,"o":"m 996 706 l 996 551 l 863 418 l 753 418 l 753 144 l 610 0 l 213 0 l 69 144 l 69 547 l 213 692 l 610 692 l 749 551 l 792 551 l 840 600 l 840 706 l 996 706 m 569 490 l 521 539 l 301 539 l 253 490 l 253 201 l 301 153 l 521 153 l 569 201 l 569 490 z "},"ớ":{"ha":938,"x_min":69,"x_max":996,"o":"m 996 706 l 996 551 l 863 418 l 753 418 l 753 144 l 610 0 l 213 0 l 69 144 l 69 547 l 213 692 l 610 692 l 749 551 l 792 551 l 840 600 l 840 706 l 996 706 m 569 490 l 521 539 l 301 539 l 253 490 l 253 201 l 301 153 l 521 153 l 569 201 l 569 490 m 435 990 l 628 990 l 490 756 l 329 756 l 435 990 z "},"ợ":{"ha":938,"x_min":69,"x_max":996,"o":"m 996 706 l 996 551 l 863 418 l 753 418 l 753 144 l 610 0 l 213 0 l 69 144 l 69 547 l 213 692 l 610 692 l 749 551 l 792 551 l 840 600 l 840 706 l 996 706 m 569 490 l 521 539 l 301 539 l 253 490 l 253 201 l 301 153 l 521 153 l 569 201 l 569 490 z "},"ờ":{"ha":938,"x_min":69,"x_max":996,"o":"m 996 706 l 996 551 l 863 418 l 753 418 l 753 144 l 610 0 l 213 0 l 69 144 l 69 547 l 213 692 l 610 692 l 749 551 l 792 551 l 840 600 l 840 706 l 996 706 m 569 490 l 521 539 l 301 539 l 253 490 l 253 201 l 301 153 l 521 153 l 569 201 l 569 490 m 188 990 l 381 990 l 486 756 l 325 756 l 188 990 z "},"ở":{"ha":938,"x_min":69,"x_max":996,"o":"m 996 706 l 996 551 l 863 418 l 753 418 l 753 144 l 610 0 l 213 0 l 69 144 l 69 547 l 213 692 l 610 692 l 749 551 l 792 551 l 840 600 l 840 706 l 996 706 m 569 490 l 521 539 l 301 539 l 253 490 l 253 201 l 301 153 l 521 153 l 569 201 l 569 490 m 332 836 l 456 929 l 456 968 l 439 985 l 386 985 l 369 968 l 369 914 l 226 914 l 226 1008 l 319 1101 l 506 1101 l 599 1008 l 599 889 l 494 811 l 494 756 l 332 756 l 332 836 z "},"ỡ":{"ha":938,"x_min":69,"x_max":996,"o":"m 996 706 l 996 551 l 863 418 l 753 418 l 753 144 l 610 0 l 213 0 l 69 144 l 69 547 l 213 692 l 610 692 l 749 551 l 792 551 l 840 600 l 840 706 l 996 706 m 569 490 l 521 539 l 301 539 l 253 490 l 253 201 l 301 153 l 521 153 l 569 201 l 569 490 m 353 842 l 322 842 l 304 825 l 304 779 l 171 778 l 171 876 l 267 972 l 383 972 l 472 900 l 504 900 l 521 917 l 521 964 l 654 964 l 654 865 l 558 769 l 442 769 l 353 842 z "},"ő":{"ha":822,"x_min":69,"x_max":753,"o":"m 69 144 l 69 547 l 213 692 l 610 692 l 753 547 l 753 144 l 610 0 l 213 0 l 69 144 m 521 153 l 569 201 l 569 490 l 521 539 l 301 539 l 253 490 l 253 201 l 301 153 l 521 153 m 299 990 l 481 990 l 349 756 l 199 756 l 299 990 m 538 990 l 719 990 l 586 756 l 436 756 l 538 990 z "},"ō":{"ha":822,"x_min":69,"x_max":753,"o":"m 69 144 l 69 547 l 213 692 l 610 692 l 753 547 l 753 144 l 610 0 l 213 0 l 69 144 m 521 153 l 569 201 l 569 490 l 521 539 l 301 539 l 253 490 l 253 201 l 301 153 l 521 153 m 176 917 l 649 917 l 649 769 l 176 769 l 176 917 z "},"ø":{"ha":822,"x_min":32,"x_max":806,"o":"m 696 606 l 753 547 l 753 144 l 610 0 l 226 0 l 183 -56 l 32 -56 l 135 78 l 69 144 l 69 547 l 213 692 l 610 692 l 611 690 l 654 747 l 806 747 l 696 606 m 253 229 l 493 539 l 301 539 l 253 490 l 253 229 m 569 443 l 344 153 l 521 153 l 569 201 l 569 443 z "},"ǿ":{"ha":822,"x_min":32,"x_max":806,"o":"m 696 606 l 753 547 l 753 144 l 610 0 l 226 0 l 183 -56 l 32 -56 l 135 78 l 69 144 l 69 547 l 213 692 l 610 692 l 611 690 l 654 747 l 806 747 l 696 606 m 253 229 l 493 539 l 301 539 l 253 490 l 253 229 m 569 443 l 344 153 l 521 153 l 569 201 l 569 443 m 435 990 l 628 990 l 490 756 l 329 756 l 435 990 z "},"õ":{"ha":822,"x_min":69,"x_max":753,"o":"m 69 144 l 69 547 l 213 692 l 610 692 l 753 547 l 753 144 l 610 0 l 213 0 l 69 144 m 521 153 l 569 201 l 569 490 l 521 539 l 301 539 l 253 490 l 253 201 l 301 153 l 521 153 m 353 842 l 322 842 l 304 825 l 304 779 l 171 778 l 171 876 l 267 972 l 383 972 l 472 900 l 504 900 l 521 917 l 521 964 l 654 964 l 654 865 l 558 769 l 442 769 l 353 842 z "},"œ":{"ha":1303,"x_min":69,"x_max":1240,"o":"m 750 286 l 750 199 l 796 153 l 1013 153 l 1056 196 l 1056 238 l 1239 238 l 1239 147 l 1092 0 l 719 0 l 653 67 l 586 0 l 213 0 l 69 144 l 69 547 l 213 692 l 586 692 l 653 625 l 719 692 l 1089 692 l 1240 542 l 1240 286 l 750 286 m 796 542 l 750 496 l 750 414 l 1057 414 l 1057 496 l 1011 542 l 796 542 m 521 153 l 569 201 l 569 490 l 521 539 l 301 539 l 253 490 l 253 201 l 301 153 l 521 153 z "},"p":{"ha":836,"x_min":83,"x_max":767,"o":"m 83 692 l 253 692 l 253 590 l 354 692 l 624 692 l 767 547 l 767 144 l 624 0 l 356 0 l 267 74 l 267 -294 l 83 -294 l 83 692 m 535 156 l 583 204 l 583 488 l 535 536 l 378 536 l 267 424 l 267 254 l 376 156 l 535 156 z "},"þ":{"ha":836,"x_min":83,"x_max":767,"o":"m 83 986 l 267 986 l 267 607 l 354 692 l 624 692 l 767 547 l 767 144 l 624 0 l 356 0 l 267 74 l 267 -294 l 83 -294 l 83 986 m 535 156 l 583 204 l 583 488 l 535 536 l 378 536 l 267 424 l 267 254 l 376 156 l 535 156 z "},"q":{"ha":826,"x_min":69,"x_max":750,"o":"m 567 99 l 468 0 l 213 0 l 69 144 l 69 547 l 213 692 l 601 692 l 750 542 l 750 -294 l 567 -294 l 567 99 m 443 156 l 567 288 l 567 488 l 519 536 l 300 536 l 253 488 l 253 204 l 300 156 l 443 156 z "},"r":{"ha":568,"x_min":83,"x_max":561,"o":"m 83 692 l 253 692 l 253 576 l 364 692 l 561 692 l 561 536 l 401 536 l 267 397 l 267 0 l 83 0 l 83 692 z "},"ŕ":{"ha":568,"x_min":83,"x_max":561,"o":"m 83 692 l 253 692 l 253 576 l 364 692 l 561 692 l 561 536 l 401 536 l 267 397 l 267 0 l 83 0 l 83 692 m 338 990 l 531 990 l 393 756 l 232 756 l 338 990 z "},"ř":{"ha":568,"x_min":44,"x_max":586,"o":"m 83 692 l 253 692 l 253 576 l 364 692 l 561 692 l 561 536 l 401 536 l 267 397 l 267 0 l 83 0 l 83 692 m 44 979 l 221 979 l 311 875 l 319 875 l 410 979 l 586 979 l 389 756 l 242 756 l 44 979 z "},"ŗ":{"ha":568,"x_min":64,"x_max":561,"o":"m 83 692 l 253 692 l 253 576 l 364 692 l 561 692 l 561 536 l 401 536 l 267 397 l 267 0 l 83 0 l 83 692 z "},"ṛ":{"ha":568,"x_min":69,"x_max":561,"o":"m 83 692 l 253 692 l 253 576 l 364 692 l 561 692 l 561 536 l 401 536 l 267 397 l 267 0 l 83 0 l 83 692 z "},"ṝ":{"ha":568,"x_min":69,"x_max":561,"o":"m 83 692 l 253 692 l 253 576 l 364 692 l 561 692 l 561 536 l 401 536 l 267 397 l 267 0 l 83 0 l 83 692 m 79 917 l 551 917 l 551 769 l 79 769 l 79 917 z "},"ṟ":{"ha":568,"x_min":-61,"x_max":561,"o":"m 83 692 l 253 692 l 253 576 l 364 692 l 561 692 l 561 536 l 401 536 l 267 397 l 267 0 l 83 0 l 83 692 z "},"s":{"ha":744,"x_min":49,"x_max":696,"o":"m 49 136 l 49 221 l 229 221 l 229 182 l 260 150 l 485 150 l 515 182 l 515 242 l 483 275 l 185 275 l 54 407 l 54 558 l 186 692 l 547 692 l 682 556 l 682 471 l 501 471 l 501 510 l 471 542 l 265 542 l 235 510 l 235 456 l 267 422 l 565 422 l 696 290 l 696 133 l 564 0 l 183 0 l 49 136 z "},"ś":{"ha":744,"x_min":49,"x_max":696,"o":"m 49 136 l 49 221 l 229 221 l 229 182 l 260 150 l 485 150 l 515 182 l 515 242 l 483 275 l 185 275 l 54 407 l 54 558 l 186 692 l 547 692 l 682 556 l 682 471 l 501 471 l 501 510 l 471 542 l 265 542 l 235 510 l 235 456 l 267 422 l 565 422 l 696 290 l 696 133 l 564 0 l 183 0 l 49 136 m 389 990 l 582 990 l 444 756 l 283 756 l 389 990 z "},"š":{"ha":744,"x_min":49,"x_max":696,"o":"m 49 136 l 49 221 l 229 221 l 229 182 l 260 150 l 485 150 l 515 182 l 515 242 l 483 275 l 185 275 l 54 407 l 54 558 l 186 692 l 547 692 l 682 556 l 682 471 l 501 471 l 501 510 l 471 542 l 265 542 l 235 510 l 235 456 l 267 422 l 565 422 l 696 290 l 696 133 l 564 0 l 183 0 l 49 136 m 96 979 l 272 979 l 363 875 l 371 875 l 461 979 l 638 979 l 440 756 l 293 756 l 96 979 z "},"ş":{"ha":744,"x_min":49,"x_max":696,"o":"m 696 290 l 696 133 l 564 0 l 439 0 l 419 -47 l 492 -47 l 561 -117 l 561 -239 l 489 -311 l 247 -311 l 247 -208 l 411 -208 l 428 -192 l 428 -156 l 411 -139 l 274 -139 l 274 -96 l 310 0 l 183 0 l 49 136 l 49 221 l 229 221 l 229 182 l 260 150 l 485 150 l 515 182 l 515 242 l 483 275 l 185 275 l 54 407 l 54 558 l 186 692 l 547 692 l 682 556 l 682 471 l 501 471 l 501 510 l 471 542 l 265 542 l 235 510 l 235 456 l 267 422 l 565 422 l 696 290 z "},"ŝ":{"ha":744,"x_min":49,"x_max":696,"o":"m 49 136 l 49 221 l 229 221 l 229 182 l 260 150 l 485 150 l 515 182 l 515 242 l 483 275 l 185 275 l 54 407 l 54 558 l 186 692 l 547 692 l 682 556 l 682 471 l 501 471 l 501 510 l 471 542 l 265 542 l 235 510 l 235 456 l 267 422 l 565 422 l 696 290 l 696 133 l 564 0 l 183 0 l 49 136 m 293 979 l 440 979 l 638 756 l 461 756 l 371 860 l 363 860 l 272 756 l 96 756 l 293 979 z "},"ș":{"ha":744,"x_min":49,"x_max":696,"o":"m 49 136 l 49 221 l 229 221 l 229 182 l 260 150 l 485 150 l 515 182 l 515 242 l 483 275 l 185 275 l 54 407 l 54 558 l 186 692 l 547 692 l 682 556 l 682 471 l 501 471 l 501 510 l 471 542 l 265 542 l 235 510 l 235 456 l 267 422 l 565 422 l 696 290 l 696 133 l 564 0 l 183 0 l 49 136 z "},"ṡ":{"ha":744,"x_min":49,"x_max":696,"o":"m 49 136 l 49 221 l 229 221 l 229 182 l 260 150 l 485 150 l 515 182 l 515 242 l 483 275 l 185 275 l 54 407 l 54 558 l 186 692 l 547 692 l 682 556 l 682 471 l 501 471 l 501 510 l 471 542 l 265 542 l 235 510 l 235 456 l 267 422 l 565 422 l 696 290 l 696 133 l 564 0 l 183 0 l 49 136 m 261 817 l 261 903 l 318 960 l 415 960 l 472 903 l 472 817 l 415 760 l 318 760 l 261 817 z "},"ṣ":{"ha":744,"x_min":49,"x_max":696,"o":"m 49 136 l 49 221 l 229 221 l 229 182 l 260 150 l 485 150 l 515 182 l 515 242 l 483 275 l 185 275 l 54 407 l 54 558 l 186 692 l 547 692 l 682 556 l 682 471 l 501 471 l 501 510 l 471 542 l 265 542 l 235 510 l 235 456 l 267 422 l 565 422 l 696 290 l 696 133 l 564 0 l 183 0 l 49 136 z "},"ß":{"ha":910,"x_min":90,"x_max":882,"o":"m 90 826 l 233 969 l 607 969 l 750 826 l 750 660 l 635 535 l 635 507 l 643 499 l 749 499 l 882 365 l 882 136 l 746 0 l 485 0 l 349 136 l 349 236 l 529 236 l 529 185 l 561 153 l 667 153 l 699 185 l 699 313 l 665 346 l 556 346 l 451 450 l 451 556 l 567 686 l 567 775 l 528 814 l 313 814 l 274 775 l 274 0 l 90 0 l 90 826 z "},"t":{"ha":575,"x_min":21,"x_max":540,"o":"m 146 142 l 146 538 l 21 538 l 21 692 l 149 692 l 149 917 l 329 917 l 329 692 l 540 692 l 540 536 l 329 536 l 329 201 l 376 156 l 540 156 l 540 0 l 289 0 l 146 142 z "},"ŧ":{"ha":575,"x_min":21,"x_max":540,"o":"m 329 536 l 329 429 l 540 429 l 540 276 l 329 276 l 329 201 l 376 156 l 540 156 l 540 0 l 289 0 l 146 142 l 146 276 l 21 276 l 21 429 l 146 429 l 146 538 l 21 538 l 21 692 l 149 692 l 149 917 l 329 917 l 329 692 l 540 692 l 540 536 l 329 536 z "},"ť":{"ha":808,"x_min":21,"x_max":808,"o":"m 146 142 l 146 538 l 21 538 l 21 692 l 149 692 l 149 917 l 329 917 l 329 692 l 540 692 l 540 536 l 329 536 l 329 201 l 376 156 l 540 156 l 540 0 l 289 0 l 146 142 z "},"ţ":{"ha":575,"x_min":21,"x_max":540,"o":"m 329 536 l 329 201 l 376 156 l 540 156 l 540 0 l 379 0 l 360 -47 l 432 -47 l 501 -117 l 501 -239 l 429 -311 l 188 -311 l 188 -208 l 351 -208 l 368 -192 l 368 -156 l 351 -139 l 214 -139 l 214 -96 l 261 28 l 146 142 l 146 538 l 21 538 l 21 692 l 149 692 l 149 917 l 329 917 l 329 692 l 540 692 l 540 536 l 329 536 z "},"ț":{"ha":575,"x_min":21,"x_max":540,"o":"m 146 142 l 146 538 l 21 538 l 21 692 l 149 692 l 149 917 l 329 917 l 329 692 l 540 692 l 540 536 l 329 536 l 329 201 l 376 156 l 540 156 l 540 0 l 289 0 l 146 142 z "},"ẗ":{"ha":575,"x_min":-4,"x_max":540,"o":"m 146 142 l 146 538 l 21 538 l 21 692 l 149 692 l 149 917 l 329 917 l 329 692 l 540 692 l 540 536 l 329 536 l 329 201 l 376 156 l 540 156 l 540 0 l 289 0 l 146 142 m -4 1044 l -4 1125 l 50 1179 l 143 1179 l 196 1124 l 196 1046 l 143 990 l 50 990 l -4 1044 m 301 1046 l 301 1124 l 354 1179 l 447 1179 l 501 1125 l 501 1044 l 447 990 l 354 990 l 301 1046 z "},"ṭ":{"ha":575,"x_min":21,"x_max":540,"o":"m 146 142 l 146 538 l 21 538 l 21 692 l 149 692 l 149 917 l 329 917 l 329 692 l 540 692 l 540 536 l 329 536 l 329 201 l 376 156 l 540 156 l 540 0 l 289 0 l 146 142 z "},"ṯ":{"ha":575,"x_min":21,"x_max":560,"o":"m 146 142 l 146 538 l 21 538 l 21 692 l 149 692 l 149 917 l 329 917 l 329 692 l 540 692 l 540 536 l 329 536 l 329 201 l 376 156 l 540 156 l 540 0 l 289 0 l 146 142 z "},"u":{"ha":821,"x_min":76,"x_max":738,"o":"m 76 146 l 76 692 l 260 692 l 260 203 l 307 156 l 418 156 l 554 292 l 554 692 l 738 692 l 738 0 l 568 0 l 568 118 l 449 0 l 222 0 l 76 146 z "},"ú":{"ha":821,"x_min":76,"x_max":738,"o":"m 76 146 l 76 692 l 260 692 l 260 203 l 307 156 l 418 156 l 554 292 l 554 692 l 738 692 l 738 0 l 568 0 l 568 118 l 449 0 l 222 0 l 76 146 m 429 990 l 622 990 l 485 756 l 324 756 l 429 990 z "},"ŭ":{"ha":821,"x_min":76,"x_max":738,"o":"m 76 146 l 76 692 l 260 692 l 260 203 l 307 156 l 418 156 l 554 292 l 554 692 l 738 692 l 738 0 l 568 0 l 568 118 l 449 0 l 222 0 l 76 146 m 174 871 l 174 976 l 329 976 l 329 910 l 367 872 l 447 872 l 485 910 l 485 976 l 640 976 l 640 871 l 525 756 l 289 756 l 174 871 z "},"ǔ":{"ha":821,"x_min":76,"x_max":738,"o":"m 76 146 l 76 692 l 260 692 l 260 203 l 307 156 l 418 156 l 554 292 l 554 692 l 738 692 l 738 0 l 568 0 l 568 118 l 449 0 l 222 0 l 76 146 m 136 979 l 313 979 l 403 875 l 411 875 l 501 979 l 678 979 l 481 756 l 333 756 l 136 979 z "},"û":{"ha":821,"x_min":76,"x_max":738,"o":"m 76 146 l 76 692 l 260 692 l 260 203 l 307 156 l 418 156 l 554 292 l 554 692 l 738 692 l 738 0 l 568 0 l 568 118 l 449 0 l 222 0 l 76 146 m 333 979 l 481 979 l 678 756 l 501 756 l 411 860 l 403 860 l 313 756 l 136 756 l 333 979 z "},"ü":{"ha":821,"x_min":76,"x_max":738,"o":"m 76 146 l 76 692 l 260 692 l 260 203 l 307 156 l 418 156 l 554 292 l 554 692 l 738 692 l 738 0 l 568 0 l 568 118 l 449 0 l 222 0 l 76 146 m 154 819 l 154 900 l 208 954 l 301 954 l 354 899 l 354 821 l 301 765 l 208 765 l 154 819 m 460 821 l 460 899 l 513 954 l 606 954 l 660 900 l 660 819 l 606 765 l 513 765 l 460 821 z "},"ǘ":{"ha":821,"x_min":76,"x_max":738,"o":"m 76 146 l 76 692 l 260 692 l 260 203 l 307 156 l 418 156 l 554 292 l 554 692 l 738 692 l 738 0 l 568 0 l 568 118 l 449 0 l 222 0 l 76 146 m 419 1206 l 593 1206 l 474 1013 l 332 1013 l 419 1206 m 154 819 l 154 900 l 208 954 l 301 954 l 354 899 l 354 821 l 301 765 l 208 765 l 154 819 m 460 821 l 460 899 l 513 954 l 606 954 l 660 900 l 660 819 l 606 765 l 513 765 l 460 821 z "},"ǚ":{"ha":821,"x_min":76,"x_max":738,"o":"m 76 146 l 76 692 l 260 692 l 260 203 l 307 156 l 418 156 l 554 292 l 554 692 l 738 692 l 738 0 l 568 0 l 568 118 l 449 0 l 222 0 l 76 146 m 156 1213 l 313 1213 l 403 1108 l 411 1108 l 501 1213 l 658 1213 l 475 1000 l 339 1000 l 156 1213 m 154 819 l 154 900 l 208 954 l 301 954 l 354 899 l 354 821 l 301 765 l 208 765 l 154 819 m 460 821 l 460 899 l 513 954 l 606 954 l 660 900 l 660 819 l 606 765 l 513 765 l 460 821 z "},"ǜ":{"ha":821,"x_min":76,"x_max":738,"o":"m 76 146 l 76 692 l 260 692 l 260 203 l 307 156 l 418 156 l 554 292 l 554 692 l 738 692 l 738 0 l 568 0 l 568 118 l 449 0 l 222 0 l 76 146 m 217 1206 l 390 1206 l 478 1013 l 336 1013 l 217 1206 m 154 819 l 154 900 l 208 954 l 301 954 l 354 899 l 354 821 l 301 765 l 208 765 l 154 819 m 460 821 l 460 899 l 513 954 l 606 954 l 660 900 l 660 819 l 606 765 l 513 765 l 460 821 z "},"ǖ":{"ha":821,"x_min":76,"x_max":738,"o":"m 76 146 l 76 692 l 260 692 l 260 203 l 307 156 l 418 156 l 554 292 l 554 692 l 738 692 l 738 0 l 568 0 l 568 118 l 449 0 l 222 0 l 76 146 m 171 1179 l 643 1179 l 643 1043 l 171 1043 l 171 1179 m 154 819 l 154 900 l 208 954 l 301 954 l 354 899 l 354 821 l 301 765 l 208 765 l 154 819 m 460 821 l 460 899 l 513 954 l 606 954 l 660 900 l 660 819 l 606 765 l 513 765 l 460 821 z "},"ụ":{"ha":821,"x_min":76,"x_max":738,"o":"m 76 146 l 76 692 l 260 692 l 260 203 l 307 156 l 418 156 l 554 292 l 554 692 l 738 692 l 738 0 l 568 0 l 568 118 l 449 0 l 222 0 l 76 146 z "},"ù":{"ha":821,"x_min":76,"x_max":738,"o":"m 76 146 l 76 692 l 260 692 l 260 203 l 307 156 l 418 156 l 554 292 l 554 692 l 738 692 l 738 0 l 568 0 l 568 118 l 449 0 l 222 0 l 76 146 m 179 990 l 372 990 l 478 756 l 317 756 l 179 990 z "},"ủ":{"ha":821,"x_min":76,"x_max":738,"o":"m 76 146 l 76 692 l 260 692 l 260 203 l 307 156 l 418 156 l 554 292 l 554 692 l 738 692 l 738 0 l 568 0 l 568 118 l 449 0 l 222 0 l 76 146 m 326 836 l 450 929 l 450 968 l 433 985 l 381 985 l 364 968 l 364 914 l 221 914 l 221 1008 l 314 1101 l 500 1101 l 593 1008 l 593 889 l 489 811 l 489 756 l 326 756 l 326 836 z "},"ư":{"ha":944,"x_min":76,"x_max":981,"o":"m 981 706 l 981 551 l 847 418 l 738 418 l 738 0 l 568 0 l 568 118 l 449 0 l 222 0 l 76 146 l 76 692 l 260 692 l 260 203 l 307 156 l 418 156 l 554 292 l 554 692 l 738 692 l 738 551 l 776 551 l 825 600 l 825 706 l 981 706 z "},"ứ":{"ha":944,"x_min":76,"x_max":981,"o":"m 981 706 l 981 551 l 847 418 l 738 418 l 738 0 l 568 0 l 568 118 l 449 0 l 222 0 l 76 146 l 76 692 l 260 692 l 260 203 l 307 156 l 418 156 l 554 292 l 554 692 l 738 692 l 738 551 l 776 551 l 825 600 l 825 706 l 981 706 m 429 990 l 622 990 l 485 756 l 324 756 l 429 990 z "},"ự":{"ha":944,"x_min":76,"x_max":981,"o":"m 981 706 l 981 551 l 847 418 l 738 418 l 738 0 l 568 0 l 568 118 l 449 0 l 222 0 l 76 146 l 76 692 l 260 692 l 260 203 l 307 156 l 418 156 l 554 292 l 554 692 l 738 692 l 738 551 l 776 551 l 825 600 l 825 706 l 981 706 z "},"ừ":{"ha":944,"x_min":76,"x_max":981,"o":"m 981 706 l 981 551 l 847 418 l 738 418 l 738 0 l 568 0 l 568 118 l 449 0 l 222 0 l 76 146 l 76 692 l 260 692 l 260 203 l 307 156 l 418 156 l 554 292 l 554 692 l 738 692 l 738 551 l 776 551 l 825 600 l 825 706 l 981 706 m 179 990 l 372 990 l 478 756 l 317 756 l 179 990 z "},"ử":{"ha":944,"x_min":76,"x_max":981,"o":"m 981 706 l 981 551 l 847 418 l 738 418 l 738 0 l 568 0 l 568 118 l 449 0 l 222 0 l 76 146 l 76 692 l 260 692 l 260 203 l 307 156 l 418 156 l 554 292 l 554 692 l 738 692 l 738 551 l 776 551 l 825 600 l 825 706 l 981 706 m 326 836 l 450 929 l 450 968 l 433 985 l 381 985 l 364 968 l 364 914 l 221 914 l 221 1008 l 314 1101 l 500 1101 l 593 1008 l 593 889 l 489 811 l 489 756 l 326 756 l 326 836 z "},"ữ":{"ha":944,"x_min":76,"x_max":981,"o":"m 981 706 l 981 551 l 847 418 l 738 418 l 738 0 l 568 0 l 568 118 l 449 0 l 222 0 l 76 146 l 76 692 l 260 692 l 260 203 l 307 156 l 418 156 l 554 292 l 554 692 l 738 692 l 738 551 l 776 551 l 825 600 l 825 706 l 981 706 m 347 842 l 317 842 l 299 825 l 299 779 l 165 778 l 165 876 l 261 972 l 378 972 l 467 900 l 499 900 l 515 917 l 515 964 l 649 964 l 649 865 l 553 769 l 436 769 l 347 842 z "},"ű":{"ha":821,"x_min":76,"x_max":738,"o":"m 76 146 l 76 692 l 260 692 l 260 203 l 307 156 l 418 156 l 554 292 l 554 692 l 738 692 l 738 0 l 568 0 l 568 118 l 449 0 l 222 0 l 76 146 m 293 990 l 475 990 l 343 756 l 193 756 l 293 990 m 532 990 l 714 990 l 581 756 l 431 756 l 532 990 z "},"ū":{"ha":821,"x_min":76,"x_max":738,"o":"m 76 146 l 76 692 l 260 692 l 260 203 l 307 156 l 418 156 l 554 292 l 554 692 l 738 692 l 738 0 l 568 0 l 568 118 l 449 0 l 222 0 l 76 146 m 171 917 l 643 917 l 643 769 l 171 769 l 171 917 z "},"ų":{"ha":821,"x_min":76,"x_max":781,"o":"m 76 146 l 76 692 l 260 692 l 260 203 l 307 156 l 418 156 l 554 292 l 554 692 l 738 692 l 738 0 l 568 0 l 568 118 l 449 0 l 222 0 l 76 146 m 475 -221 l 475 -100 l 572 0 l 738 0 l 633 -108 l 633 -157 l 658 -182 l 781 -182 l 781 -310 l 564 -310 l 475 -221 z "},"ů":{"ha":821,"x_min":76,"x_max":738,"o":"m 76 146 l 76 692 l 260 692 l 260 203 l 307 156 l 418 156 l 554 292 l 554 692 l 738 692 l 738 0 l 568 0 l 568 118 l 449 0 l 222 0 l 76 146 m 235 851 l 235 988 l 331 1083 l 483 1083 l 579 988 l 579 851 l 483 756 l 331 756 l 235 851 m 438 860 l 471 893 l 471 946 l 438 979 l 376 979 l 343 946 l 343 893 l 376 860 l 438 860 z "},"ũ":{"ha":821,"x_min":76,"x_max":738,"o":"m 76 146 l 76 692 l 260 692 l 260 203 l 307 156 l 418 156 l 554 292 l 554 692 l 738 692 l 738 0 l 568 0 l 568 118 l 449 0 l 222 0 l 76 146 m 347 842 l 317 842 l 299 825 l 299 779 l 165 778 l 165 876 l 261 972 l 378 972 l 467 900 l 499 900 l 515 917 l 515 964 l 649 964 l 649 865 l 553 769 l 436 769 l 347 842 z "},"v":{"ha":708,"x_min":0,"x_max":708,"o":"m 0 692 l 190 692 l 351 210 l 357 210 l 518 692 l 708 692 l 443 0 l 265 0 l 0 692 z "},"w":{"ha":1013,"x_min":28,"x_max":985,"o":"m 28 692 l 214 692 l 293 256 l 299 256 l 424 692 l 590 692 l 706 256 l 711 256 l 799 692 l 985 692 l 806 0 l 635 0 l 507 467 l 501 467 l 365 0 l 194 0 l 28 692 z "},"ẃ":{"ha":1013,"x_min":28,"x_max":985,"o":"m 28 692 l 214 692 l 293 256 l 299 256 l 424 692 l 590 692 l 706 256 l 711 256 l 799 692 l 985 692 l 806 0 l 635 0 l 507 467 l 501 467 l 365 0 l 194 0 l 28 692 m 526 990 l 719 990 l 582 756 l 421 756 l 526 990 z "},"ŵ":{"ha":1013,"x_min":28,"x_max":985,"o":"m 28 692 l 214 692 l 293 256 l 299 256 l 424 692 l 590 692 l 706 256 l 711 256 l 799 692 l 985 692 l 806 0 l 635 0 l 507 467 l 501 467 l 365 0 l 194 0 l 28 692 m 431 979 l 578 979 l 775 756 l 599 756 l 508 860 l 500 860 l 410 756 l 233 756 l 431 979 z "},"ẅ":{"ha":1013,"x_min":28,"x_max":985,"o":"m 28 692 l 214 692 l 293 256 l 299 256 l 424 692 l 590 692 l 706 256 l 711 256 l 799 692 l 985 692 l 806 0 l 635 0 l 507 467 l 501 467 l 365 0 l 194 0 l 28 692 m 251 819 l 251 900 l 306 954 l 399 954 l 451 899 l 451 821 l 399 765 l 306 765 l 251 819 m 557 821 l 557 899 l 610 954 l 703 954 l 757 900 l 757 819 l 703 765 l 610 765 l 557 821 z "},"ẁ":{"ha":1013,"x_min":28,"x_max":985,"o":"m 28 692 l 214 692 l 293 256 l 299 256 l 424 692 l 590 692 l 706 256 l 711 256 l 799 692 l 985 692 l 806 0 l 635 0 l 507 467 l 501 467 l 365 0 l 194 0 l 28 692 m 279 990 l 472 990 l 578 756 l 417 756 l 279 990 z "},"x":{"ha":733,"x_min":7,"x_max":726,"o":"m 519 0 l 367 211 l 214 0 l 7 0 l 265 351 l 14 692 l 221 692 l 367 489 l 513 692 l 719 692 l 469 349 l 726 0 l 519 0 z "},"y":{"ha":824,"x_min":76,"x_max":740,"o":"m 740 692 l 740 -158 l 590 -307 l 226 -307 l 97 -179 l 97 -85 l 281 -85 l 281 -126 l 307 -154 l 510 -154 l 557 -106 l 557 103 l 454 0 l 225 0 l 76 150 l 76 692 l 260 692 l 260 204 l 307 156 l 428 156 l 557 293 l 557 692 l 740 692 z "},"ý":{"ha":824,"x_min":76,"x_max":740,"o":"m 740 692 l 740 -158 l 590 -307 l 226 -307 l 97 -179 l 97 -85 l 281 -85 l 281 -126 l 307 -154 l 510 -154 l 557 -106 l 557 103 l 454 0 l 225 0 l 76 150 l 76 692 l 260 692 l 260 204 l 307 156 l 428 156 l 557 293 l 557 692 l 740 692 m 432 990 l 625 990 l 488 756 l 326 756 l 432 990 z "},"ŷ":{"ha":824,"x_min":76,"x_max":740,"o":"m 740 692 l 740 -158 l 590 -307 l 226 -307 l 97 -179 l 97 -85 l 281 -85 l 281 -126 l 307 -154 l 510 -154 l 557 -106 l 557 103 l 454 0 l 225 0 l 76 150 l 76 692 l 260 692 l 260 204 l 307 156 l 428 156 l 557 293 l 557 692 l 740 692 m 336 979 l 483 979 l 681 756 l 504 756 l 414 860 l 406 860 l 315 756 l 139 756 l 336 979 z "},"ÿ":{"ha":824,"x_min":76,"x_max":740,"o":"m 740 692 l 740 -158 l 590 -307 l 226 -307 l 97 -179 l 97 -85 l 281 -85 l 281 -126 l 307 -154 l 510 -154 l 557 -106 l 557 103 l 454 0 l 225 0 l 76 150 l 76 692 l 260 692 l 260 204 l 307 156 l 428 156 l 557 293 l 557 692 l 740 692 m 157 819 l 157 900 l 211 954 l 304 954 l 357 899 l 357 821 l 304 765 l 211 765 l 157 819 m 463 821 l 463 899 l 515 954 l 608 954 l 663 900 l 663 819 l 608 765 l 515 765 l 463 821 z "},"ẏ":{"ha":824,"x_min":76,"x_max":740,"o":"m 740 692 l 740 -158 l 590 -307 l 226 -307 l 97 -179 l 97 -85 l 281 -85 l 281 -126 l 307 -154 l 510 -154 l 557 -106 l 557 103 l 454 0 l 225 0 l 76 150 l 76 692 l 260 692 l 260 204 l 307 156 l 428 156 l 557 293 l 557 692 l 740 692 m 304 817 l 304 903 l 361 960 l 458 960 l 515 903 l 515 817 l 458 760 l 361 760 l 304 817 z "},"ỵ":{"ha":824,"x_min":76,"x_max":740,"o":"m 740 692 l 740 -158 l 590 -307 l 226 -307 l 97 -179 l 97 -85 l 281 -85 l 281 -126 l 307 -154 l 510 -154 l 557 -106 l 557 103 l 454 0 l 225 0 l 76 150 l 76 692 l 260 692 l 260 204 l 307 156 l 428 156 l 557 293 l 557 692 l 740 692 z "},"ỳ":{"ha":824,"x_min":76,"x_max":740,"o":"m 740 692 l 740 -158 l 590 -307 l 226 -307 l 97 -179 l 97 -85 l 281 -85 l 281 -126 l 307 -154 l 510 -154 l 557 -106 l 557 103 l 454 0 l 225 0 l 76 150 l 76 692 l 260 692 l 260 204 l 307 156 l 428 156 l 557 293 l 557 692 l 740 692 m 179 990 l 372 990 l 478 756 l 317 756 l 179 990 z "},"ỷ":{"ha":824,"x_min":76,"x_max":740,"o":"m 740 692 l 740 -158 l 590 -307 l 226 -307 l 97 -179 l 97 -85 l 281 -85 l 281 -126 l 307 -154 l 510 -154 l 557 -106 l 557 103 l 454 0 l 225 0 l 76 150 l 76 692 l 260 692 l 260 204 l 307 156 l 428 156 l 557 293 l 557 692 l 740 692 m 329 836 l 453 929 l 453 968 l 436 985 l 383 985 l 367 968 l 367 914 l 224 914 l 224 1008 l 317 1101 l 503 1101 l 596 1008 l 596 889 l 492 811 l 492 756 l 329 756 l 329 836 z "},"ỹ":{"ha":824,"x_min":76,"x_max":740,"o":"m 740 692 l 740 -158 l 590 -307 l 226 -307 l 97 -179 l 97 -85 l 281 -85 l 281 -126 l 307 -154 l 510 -154 l 557 -106 l 557 103 l 454 0 l 225 0 l 76 150 l 76 692 l 260 692 l 260 204 l 307 156 l 428 156 l 557 293 l 557 692 l 740 692 m 350 842 l 319 842 l 301 825 l 301 779 l 168 778 l 168 876 l 264 972 l 381 972 l 469 900 l 501 900 l 518 917 l 518 964 l 651 964 l 651 865 l 556 769 l 439 769 l 350 842 z "},"z":{"ha":692,"x_min":35,"x_max":657,"o":"m 35 142 l 419 540 l 419 543 l 49 543 l 49 692 l 657 692 l 657 550 l 272 151 l 272 149 l 657 149 l 657 0 l 35 0 l 35 142 z "},"ź":{"ha":692,"x_min":35,"x_max":657,"o":"m 35 142 l 419 540 l 419 543 l 49 543 l 49 692 l 657 692 l 657 550 l 272 151 l 272 149 l 657 149 l 657 0 l 35 0 l 35 142 m 375 990 l 568 990 l 431 756 l 269 756 l 375 990 z "},"ž":{"ha":692,"x_min":35,"x_max":657,"o":"m 35 142 l 419 540 l 419 543 l 49 543 l 49 692 l 657 692 l 657 550 l 272 151 l 272 149 l 657 149 l 657 0 l 35 0 l 35 142 m 82 979 l 258 979 l 349 875 l 357 875 l 447 979 l 624 979 l 426 756 l 279 756 l 82 979 z "},"ż":{"ha":692,"x_min":35,"x_max":657,"o":"m 35 142 l 419 540 l 419 543 l 49 543 l 49 692 l 657 692 l 657 550 l 272 151 l 272 149 l 657 149 l 657 0 l 35 0 l 35 142 m 247 817 l 247 903 l 304 960 l 401 960 l 458 903 l 458 817 l 401 760 l 304 760 l 247 817 z "},"ẓ":{"ha":692,"x_min":35,"x_max":657,"o":"m 35 142 l 419 540 l 419 543 l 49 543 l 49 692 l 657 692 l 657 550 l 272 151 l 272 149 l 657 149 l 657 0 l 35 0 l 35 142 z "},"ﬁ":{"ha":858,"x_min":21,"x_max":775,"o":"m 775 0 l 592 0 l 592 536 l 329 536 l 329 0 l 146 0 l 146 536 l 21 536 l 21 692 l 146 692 l 146 826 l 286 967 l 547 967 l 547 814 l 368 814 l 329 775 l 329 692 l 775 692 l 775 0 z "},"ﬂ":{"ha":911,"x_min":21,"x_max":821,"o":"m 821 0 l 635 0 l 635 836 l 368 836 l 329 797 l 329 692 l 533 692 l 533 536 l 329 536 l 329 0 l 146 0 l 146 536 l 21 536 l 21 692 l 146 692 l 146 846 l 286 986 l 821 986 l 821 0 z "},"ª":{"ha":594,"x_min":49,"x_max":539,"o":"m 49 585 l 49 679 l 146 778 l 383 778 l 383 829 l 364 849 l 225 849 l 211 835 l 211 808 l 53 808 l 53 860 l 165 972 l 425 972 l 539 858 l 539 488 l 403 488 l 403 553 l 326 488 l 146 488 l 49 585 m 333 604 l 383 649 l 383 681 l 224 681 l 204 661 l 204 624 l 224 604 l 333 604 z "},"º":{"ha":593,"x_min":49,"x_max":544,"o":"m 49 596 l 49 864 l 157 972 l 436 972 l 544 864 l 544 596 l 436 488 l 157 488 l 49 596 m 358 619 l 385 647 l 385 813 l 358 840 l 236 840 l 208 813 l 208 647 l 236 619 l 358 619 z "},"ⁿ":{"ha":603,"x_min":56,"x_max":547,"o":"m 56 972 l 203 972 l 203 900 l 278 972 l 428 972 l 547 853 l 547 488 l 383 488 l 383 811 l 361 833 l 288 833 l 219 764 l 219 488 l 56 488 l 56 972 z "},"Δ":{"ha":925,"x_min":28,"x_max":897,"o":"m 28 122 l 361 972 l 564 972 l 897 122 l 897 0 l 28 0 l 28 122 m 703 156 l 467 781 l 458 781 l 222 156 l 703 156 z "},"Ω":{"ha":993,"x_min":63,"x_max":931,"o":"m 63 156 l 243 156 l 243 231 l 88 386 l 88 811 l 249 972 l 744 972 l 906 811 l 906 386 l 750 231 l 750 156 l 931 156 l 931 0 l 569 0 l 569 288 l 717 436 l 717 753 l 658 811 l 335 811 l 276 753 l 276 436 l 424 288 l 424 0 l 63 0 l 63 156 z "},"μ":{"ha":828,"x_min":83,"x_max":744,"o":"m 744 692 l 744 0 l 572 0 l 572 114 l 461 0 l 315 0 l 264 51 l 264 -278 l 83 -278 l 83 692 l 267 692 l 267 232 l 342 156 l 429 156 l 561 292 l 561 692 l 744 692 z "},"π":{"ha":1019,"x_min":56,"x_max":964,"o":"m 800 536 l 800 196 l 842 156 l 964 156 l 964 0 l 753 0 l 617 136 l 617 536 l 386 536 l 386 0 l 203 0 l 203 536 l 56 536 l 56 692 l 964 692 l 964 536 l 800 536 z "},"ก":{"ha":865,"x_min":49,"x_max":775,"o":"m 107 382 l 176 479 l 49 592 l 217 775 l 642 775 l 775 640 l 775 0 l 589 0 l 589 579 l 553 617 l 288 617 l 256 583 l 368 478 l 293 364 l 293 0 l 107 0 l 107 382 z "},"ข":{"ha":836,"x_min":28,"x_max":746,"o":"m 292 118 l 292 374 l 361 529 l 361 618 l 313 671 l 214 671 l 179 636 l 233 636 l 300 567 l 300 469 l 224 386 l 110 386 l 28 469 l 28 647 l 156 789 l 385 789 l 508 663 l 508 508 l 464 406 l 464 175 l 486 150 l 549 150 l 571 175 l 571 775 l 746 775 l 746 118 l 629 0 l 408 0 l 292 118 m 186 469 l 214 497 l 214 542 l 186 569 l 142 569 l 114 542 l 114 497 l 142 469 l 186 469 z "},"ฃ":{"ha":865,"x_min":21,"x_max":775,"o":"m 321 118 l 321 388 l 392 554 l 392 650 l 379 664 l 363 664 l 299 599 l 231 664 l 197 664 l 153 614 l 228 614 l 294 544 l 294 447 l 218 364 l 103 364 l 21 447 l 21 632 l 147 789 l 242 789 l 299 732 l 356 789 l 450 789 l 539 689 l 539 539 l 493 425 l 493 175 l 515 150 l 575 150 l 597 175 l 597 775 l 775 775 l 775 118 l 658 0 l 438 0 l 321 118 m 182 447 l 208 475 l 208 519 l 182 547 l 136 547 l 108 519 l 108 475 l 136 447 l 182 447 z "},"ค":{"ha":892,"x_min":90,"x_max":801,"o":"m 801 636 l 801 0 l 618 0 l 618 576 l 579 617 l 307 617 l 268 576 l 268 363 l 381 474 l 501 474 l 588 383 l 588 281 l 501 190 l 390 190 l 338 246 l 311 215 l 271 176 l 271 0 l 90 0 l 90 636 l 229 775 l 663 775 l 801 636 m 390 308 l 417 281 l 467 281 l 493 308 l 493 356 l 467 383 l 417 383 l 390 356 l 390 308 z "},"ฅ":{"ha":894,"x_min":90,"x_max":804,"o":"m 804 644 l 804 0 l 621 0 l 621 588 l 597 617 l 550 617 l 447 538 l 342 617 l 293 617 l 268 588 l 268 353 l 381 464 l 501 464 l 588 374 l 588 271 l 501 181 l 390 181 l 338 236 l 311 206 l 271 167 l 271 0 l 90 0 l 90 644 l 206 775 l 353 775 l 447 699 l 542 775 l 689 775 l 804 644 m 390 299 l 417 271 l 467 271 l 493 299 l 493 346 l 467 374 l 417 374 l 390 346 l 390 299 z "},"ฆ":{"ha":938,"x_min":35,"x_max":847,"o":"m 847 775 l 847 0 l 719 0 l 471 150 l 471 93 l 378 0 l 238 0 l 138 100 l 138 217 l 235 315 l 294 315 l 294 364 l 424 517 l 424 649 l 410 664 l 376 664 l 313 599 l 244 664 l 211 664 l 167 614 l 242 614 l 308 544 l 308 447 l 232 364 l 117 364 l 35 447 l 35 632 l 161 789 l 256 789 l 313 732 l 369 789 l 488 789 l 579 686 l 579 488 l 472 364 l 472 304 l 661 190 l 661 775 l 847 775 m 150 547 l 122 519 l 122 475 l 150 447 l 196 447 l 222 475 l 222 519 l 196 547 l 150 547 m 360 183 l 332 211 l 282 211 l 254 183 l 254 133 l 282 106 l 332 106 l 360 133 l 360 183 z "},"ง":{"ha":714,"x_min":14,"x_max":624,"o":"m 14 426 l 147 515 l 410 158 l 440 158 l 440 403 l 451 449 l 374 449 l 274 549 l 274 672 l 376 775 l 521 775 l 624 672 l 624 78 l 546 0 l 335 0 l 14 426 m 475 557 l 501 585 l 501 635 l 475 663 l 422 663 l 396 635 l 396 585 l 422 557 l 475 557 z "},"จ":{"ha":811,"x_min":21,"x_max":721,"o":"m 721 639 l 721 0 l 535 0 l 535 196 l 518 210 l 488 243 l 417 169 l 285 169 l 189 265 l 189 393 l 285 489 l 424 489 l 540 381 l 540 579 l 504 617 l 240 617 l 204 579 l 204 501 l 21 501 l 21 639 l 154 775 l 588 775 l 721 639 m 406 353 l 379 381 l 328 381 l 300 353 l 300 303 l 328 275 l 379 275 l 406 303 l 406 353 z "},"ฉ":{"ha":868,"x_min":42,"x_max":826,"o":"m 826 231 l 826 99 l 728 0 l 586 0 l 493 93 l 493 131 l 325 0 l 190 0 l 190 110 l 197 167 l 135 167 l 42 260 l 42 388 l 135 481 l 276 481 l 369 388 l 369 193 l 576 344 l 576 582 l 540 619 l 275 619 l 239 582 l 239 543 l 53 543 l 53 639 l 186 775 l 629 775 l 763 639 l 763 294 l 826 231 m 258 347 l 231 375 l 181 375 l 153 347 l 153 297 l 181 269 l 231 269 l 258 297 l 258 347 m 710 190 l 682 218 l 632 218 l 604 190 l 604 140 l 632 113 l 682 113 l 710 140 l 710 190 z "},"ช":{"ha":856,"x_min":28,"x_max":876,"o":"m 292 118 l 292 374 l 361 529 l 361 618 l 313 671 l 214 671 l 179 636 l 233 636 l 300 567 l 300 469 l 224 386 l 110 386 l 28 469 l 28 647 l 156 789 l 385 789 l 508 663 l 508 508 l 464 406 l 464 175 l 486 150 l 565 150 l 588 175 l 588 536 l 554 588 l 554 650 l 771 863 l 876 751 l 721 601 l 763 531 l 763 118 l 646 0 l 408 0 l 292 118 m 186 469 l 214 497 l 214 542 l 186 569 l 142 569 l 114 542 l 114 497 l 142 469 l 186 469 z "},"ซ":{"ha":881,"x_min":21,"x_max":901,"o":"m 321 118 l 321 388 l 392 554 l 392 650 l 379 664 l 363 664 l 299 599 l 231 664 l 197 664 l 153 614 l 228 614 l 294 544 l 294 447 l 218 364 l 103 364 l 21 447 l 21 632 l 147 789 l 242 789 l 299 732 l 356 789 l 450 789 l 539 689 l 539 539 l 493 425 l 493 178 l 515 153 l 590 153 l 613 178 l 613 543 l 586 590 l 586 657 l 796 863 l 901 751 l 746 601 l 788 531 l 788 118 l 671 0 l 438 0 l 321 118 m 182 447 l 208 475 l 208 519 l 182 547 l 136 547 l 108 519 l 108 475 l 136 447 l 182 447 z "},"ฌ":{"ha":1232,"x_min":49,"x_max":1142,"o":"m 1142 775 l 1142 0 l 1015 0 l 817 122 l 817 96 l 722 0 l 586 0 l 490 97 l 490 222 l 585 319 l 585 579 l 549 617 l 288 617 l 256 583 l 368 478 l 289 374 l 289 331 l 286 314 l 342 314 l 436 224 l 436 93 l 340 0 l 199 0 l 106 93 l 106 389 l 176 479 l 49 592 l 217 775 l 632 775 l 765 640 l 765 308 l 956 193 l 956 775 l 1142 775 m 707 183 l 679 211 l 632 211 l 604 183 l 604 136 l 632 108 l 679 108 l 707 136 l 707 183 m 249 210 l 221 182 l 221 135 l 249 107 l 296 107 l 324 135 l 324 182 l 296 210 l 249 210 z "},"ญ":{"ha":1249,"x_min":49,"x_max":1186,"o":"m 106 93 l 106 389 l 176 479 l 49 592 l 217 775 l 622 775 l 756 640 l 756 192 l 789 158 l 939 158 l 972 192 l 972 775 l 1158 775 l 1158 125 l 1033 0 l 697 0 l 572 125 l 572 579 l 536 617 l 288 617 l 256 583 l 368 478 l 289 374 l 289 328 l 286 311 l 344 311 l 436 219 l 436 93 l 343 0 l 199 0 l 106 93 m 296 104 l 324 132 l 324 179 l 296 207 l 249 207 l 221 179 l 221 132 l 249 104 l 296 104 m 575 -247 l 575 -139 l 665 -49 l 789 -49 l 881 -140 l 881 -193 l 936 -193 l 1079 -56 l 1186 -169 l 1010 -337 l 665 -337 l 575 -247 m 750 -240 l 778 -212 l 778 -171 l 750 -143 l 706 -143 l 678 -171 l 678 -212 l 706 -240 l 750 -240 z "},"ฎ":{"ha":888,"x_min":21,"x_max":797,"o":"m 122 -285 l 122 -167 l 218 -74 l 506 -74 l 611 -176 l 611 579 l 575 617 l 307 617 l 275 583 l 411 478 l 353 369 l 353 94 l 260 0 l 117 0 l 21 93 l 21 224 l 111 314 l 175 314 l 169 336 l 169 394 l 219 479 l 68 592 l 236 775 l 664 775 l 797 640 l 797 -381 l 671 -381 l 594 -306 l 521 -381 l 218 -381 l 122 -285 m 210 107 l 238 135 l 238 182 l 210 210 l 163 210 l 135 182 l 135 135 l 163 107 l 210 107 m 461 -275 l 501 -231 l 450 -179 l 282 -179 l 256 -206 l 256 -249 l 282 -275 l 461 -275 z "},"ฏ":{"ha":888,"x_min":21,"x_max":797,"o":"m 89 -290 l 89 -171 l 179 -81 l 361 -81 l 479 -219 l 533 -119 l 611 -206 l 611 579 l 575 617 l 307 617 l 275 583 l 411 478 l 353 369 l 353 94 l 260 0 l 117 0 l 21 93 l 21 224 l 111 314 l 175 314 l 169 336 l 169 394 l 219 479 l 68 592 l 236 775 l 664 775 l 797 640 l 797 -381 l 654 -381 l 556 -275 l 493 -381 l 417 -289 l 336 -381 l 179 -381 l 89 -290 m 210 107 l 238 135 l 238 182 l 210 210 l 163 210 l 135 182 l 135 135 l 163 107 l 210 107 m 310 -276 l 353 -226 l 311 -179 l 224 -179 l 199 -204 l 199 -251 l 224 -276 l 310 -276 z "},"ฐ":{"ha":761,"x_min":3,"x_max":714,"o":"m 493 407 l 28 489 l 28 639 l 163 775 l 685 775 l 685 631 l 242 631 l 214 601 l 214 589 l 671 514 l 671 0 l 485 0 l 485 99 l 435 149 l 364 81 l 242 81 l 147 176 l 147 290 l 240 385 l 372 385 l 493 264 l 493 407 m 357 256 l 329 283 l 283 283 l 256 256 l 256 210 l 283 182 l 329 182 l 357 210 l 357 256 m 714 -111 l 714 -425 l 486 -425 l 421 -361 l 354 -425 l 282 -347 l 211 -425 l 93 -425 l 3 -335 l 3 -210 l 89 -119 l 224 -119 l 361 -285 l 413 -236 l 490 -314 l 575 -314 l 575 -293 l 578 -279 l 522 -279 l 453 -211 l 453 -114 l 525 -40 l 643 -40 l 714 -111 m 564 -207 l 601 -207 l 625 -183 l 625 -144 l 601 -121 l 564 -121 l 540 -144 l 540 -183 l 564 -207 m 226 -271 l 185 -218 l 131 -218 l 106 -243 l 106 -299 l 131 -324 l 183 -324 l 226 -271 z "},"ฑ":{"ha":1007,"x_min":14,"x_max":917,"o":"m 297 379 l 385 554 l 385 650 l 372 664 l 356 664 l 292 599 l 224 664 l 190 664 l 146 614 l 221 614 l 288 544 l 288 447 l 211 364 l 96 364 l 14 447 l 14 632 l 140 789 l 235 789 l 292 732 l 349 789 l 428 789 l 519 686 l 519 538 l 440 371 l 440 194 l 442 194 l 646 775 l 781 775 l 917 639 l 917 0 l 731 0 l 731 585 l 707 611 l 701 611 l 479 0 l 297 0 l 297 379 m 175 447 l 201 475 l 201 519 l 175 547 l 129 547 l 101 519 l 101 475 l 129 447 l 175 447 z "},"ฒ":{"ha":1258,"x_min":90,"x_max":1168,"o":"m 1168 775 l 1168 0 l 1042 0 l 857 121 l 857 82 l 774 0 l 644 0 l 558 86 l 558 207 l 626 272 l 626 588 l 603 617 l 553 617 l 447 538 l 342 617 l 286 617 l 261 588 l 261 153 l 328 217 l 356 238 l 300 289 l 300 406 l 382 488 l 501 488 l 581 408 l 581 283 l 276 0 l 90 0 l 90 644 l 206 775 l 353 775 l 447 699 l 542 775 l 689 775 l 804 644 l 804 308 l 982 193 l 982 775 l 1168 775 m 389 325 l 415 297 l 465 297 l 492 325 l 492 372 l 465 400 l 415 400 l 389 372 l 389 325 m 763 172 l 735 200 l 688 200 l 660 172 l 660 125 l 688 97 l 735 97 l 763 125 l 763 172 z "},"ณ":{"ha":1247,"x_min":49,"x_max":1213,"o":"m 1213 231 l 1213 99 l 1114 0 l 971 0 l 879 93 l 879 132 l 704 0 l 572 0 l 572 579 l 536 617 l 288 617 l 256 583 l 368 478 l 289 374 l 289 328 l 286 311 l 344 311 l 436 219 l 436 93 l 343 0 l 199 0 l 106 93 l 106 389 l 176 479 l 49 592 l 217 775 l 619 775 l 753 640 l 753 192 l 963 340 l 963 775 l 1149 775 l 1149 294 l 1213 231 m 1096 189 l 1068 217 l 1021 217 l 993 189 l 993 142 l 1021 114 l 1068 114 l 1096 142 l 1096 189 m 249 207 l 221 179 l 221 132 l 249 104 l 296 104 l 324 132 l 324 179 l 296 207 l 249 207 z "},"ด":{"ha":892,"x_min":90,"x_max":801,"o":"m 801 639 l 801 0 l 618 0 l 618 579 l 582 617 l 300 617 l 264 579 l 264 158 l 328 217 l 356 238 l 300 292 l 300 411 l 382 493 l 507 493 l 586 414 l 586 283 l 276 0 l 90 0 l 90 639 l 224 775 l 668 775 l 801 639 m 392 328 l 418 300 l 468 300 l 494 328 l 494 375 l 468 403 l 418 403 l 392 375 l 392 328 z "},"ต":{"ha":894,"x_min":90,"x_max":804,"o":"m 804 644 l 804 0 l 621 0 l 621 588 l 597 617 l 553 617 l 447 538 l 342 617 l 289 617 l 264 588 l 264 158 l 328 214 l 356 235 l 300 286 l 300 406 l 382 488 l 507 488 l 586 408 l 586 278 l 276 0 l 90 0 l 90 644 l 206 775 l 353 775 l 447 699 l 542 775 l 689 775 l 804 644 m 392 322 l 418 294 l 468 294 l 494 322 l 494 369 l 468 397 l 418 397 l 392 369 l 392 322 z "},"ถ":{"ha":865,"x_min":49,"x_max":775,"o":"m 104 93 l 104 389 l 176 479 l 49 592 l 217 775 l 642 775 l 775 640 l 775 0 l 589 0 l 589 579 l 553 617 l 288 617 l 256 583 l 368 478 l 288 374 l 288 328 l 285 311 l 343 311 l 435 219 l 435 93 l 342 0 l 197 0 l 104 93 m 294 104 l 322 132 l 322 179 l 294 207 l 247 207 l 219 179 l 219 132 l 247 104 l 294 104 z "},"ท":{"ha":917,"x_min":21,"x_max":826,"o":"m 186 399 l 197 444 l 119 444 l 21 540 l 21 674 l 117 775 l 263 775 l 358 674 l 358 313 l 360 313 l 536 775 l 693 775 l 826 639 l 826 0 l 640 0 l 640 585 l 617 614 l 610 614 l 365 0 l 186 0 l 186 399 m 215 556 l 242 583 l 242 633 l 215 661 l 164 661 l 136 633 l 136 583 l 164 556 l 215 556 z "},"ธ":{"ha":800,"x_min":63,"x_max":724,"o":"m 99 125 l 99 363 l 279 363 l 279 189 l 311 156 l 504 156 l 536 189 l 536 364 l 63 475 l 63 639 l 196 775 l 724 775 l 724 624 l 279 624 l 249 593 l 249 572 l 717 461 l 717 125 l 594 0 l 221 0 l 99 125 z "},"น":{"ha":892,"x_min":21,"x_max":857,"o":"m 857 231 l 857 99 l 758 0 l 615 0 l 524 93 l 524 136 l 322 0 l 188 0 l 188 397 l 199 444 l 122 444 l 21 546 l 21 671 l 125 775 l 271 775 l 374 671 l 374 194 l 607 343 l 607 775 l 793 775 l 793 294 l 857 231 m 249 633 l 221 661 l 171 661 l 143 633 l 143 583 l 171 556 l 221 556 l 249 583 l 249 633 m 740 189 l 713 217 l 665 217 l 638 189 l 638 142 l 665 114 l 713 114 l 740 142 l 740 189 z "},"บ":{"ha":919,"x_min":21,"x_max":829,"o":"m 188 114 l 188 397 l 199 444 l 122 444 l 21 546 l 21 671 l 125 775 l 271 775 l 374 671 l 374 189 l 403 158 l 614 158 l 643 189 l 643 775 l 829 775 l 829 114 l 717 0 l 300 0 l 188 114 m 221 556 l 249 583 l 249 633 l 221 661 l 171 661 l 143 633 l 143 583 l 171 556 l 221 556 z "},"ป":{"ha":922,"x_min":21,"x_max":832,"o":"m 188 114 l 188 397 l 199 444 l 122 444 l 21 546 l 21 671 l 125 775 l 271 775 l 374 671 l 374 189 l 403 158 l 617 158 l 646 189 l 646 1067 l 832 1067 l 832 114 l 719 0 l 300 0 l 188 114 m 221 556 l 249 583 l 249 633 l 221 661 l 171 661 l 143 633 l 143 583 l 171 556 l 221 556 z "},"ผ":{"ha":879,"x_min":90,"x_max":789,"o":"m 90 671 l 194 775 l 329 775 l 432 671 l 432 549 l 335 451 l 264 451 l 271 394 l 271 235 l 272 235 l 396 396 l 482 396 l 604 233 l 606 233 l 606 775 l 789 775 l 789 0 l 625 0 l 439 247 l 254 0 l 90 0 l 90 671 m 289 558 l 315 586 l 315 636 l 289 664 l 238 664 l 210 636 l 210 586 l 238 558 l 289 558 z "},"ฝ":{"ha":882,"x_min":90,"x_max":792,"o":"m 90 671 l 194 775 l 329 775 l 432 671 l 432 549 l 335 451 l 264 451 l 271 394 l 271 235 l 272 235 l 397 396 l 483 396 l 607 233 l 608 233 l 608 1067 l 792 1067 l 792 0 l 628 0 l 440 247 l 254 0 l 90 0 l 90 671 m 289 558 l 315 586 l 315 636 l 289 664 l 238 664 l 210 636 l 210 586 l 238 558 l 289 558 z "},"พ":{"ha":978,"x_min":21,"x_max":888,"o":"m 188 397 l 199 444 l 122 444 l 21 546 l 21 671 l 125 775 l 268 775 l 368 675 l 368 311 l 372 311 l 503 611 l 575 611 l 703 313 l 707 313 l 707 775 l 888 775 l 888 0 l 708 0 l 539 394 l 368 0 l 188 0 l 188 397 m 219 556 l 247 583 l 247 633 l 219 661 l 169 661 l 142 633 l 142 583 l 169 556 l 219 556 z "},"ฟ":{"ha":981,"x_min":21,"x_max":890,"o":"m 188 397 l 199 444 l 122 444 l 21 546 l 21 671 l 125 775 l 268 775 l 368 675 l 368 311 l 372 311 l 504 611 l 576 611 l 706 313 l 710 313 l 710 1067 l 890 1067 l 890 0 l 711 0 l 540 394 l 368 0 l 188 0 l 188 397 m 219 556 l 247 583 l 247 633 l 219 661 l 169 661 l 142 633 l 142 583 l 169 556 l 219 556 z "},"ภ":{"ha":885,"x_min":21,"x_max":794,"o":"m 21 93 l 21 224 l 111 314 l 175 314 l 169 336 l 169 394 l 219 479 l 68 592 l 236 775 l 661 775 l 794 640 l 794 0 l 608 0 l 608 579 l 572 617 l 307 617 l 275 583 l 411 478 l 353 369 l 353 94 l 260 0 l 117 0 l 21 93 m 210 107 l 238 135 l 238 182 l 210 210 l 163 210 l 135 182 l 135 135 l 163 107 l 210 107 z "},"ม":{"ha":883,"x_min":42,"x_max":793,"o":"m 793 775 l 793 0 l 657 0 l 399 144 l 399 96 l 304 0 l 165 0 l 63 103 l 63 225 l 165 328 l 208 328 l 208 397 l 219 444 l 143 444 l 42 546 l 42 671 l 146 775 l 292 775 l 394 671 l 394 311 l 607 193 l 607 775 l 793 775 m 242 556 l 269 583 l 269 633 l 242 661 l 192 661 l 164 633 l 164 583 l 192 556 l 242 556 m 283 188 l 257 215 l 208 215 l 181 188 l 181 140 l 208 113 l 257 113 l 283 140 l 283 188 z "},"ย":{"ha":843,"x_min":76,"x_max":753,"o":"m 753 775 l 753 122 l 633 0 l 196 0 l 76 122 l 76 258 l 178 336 l 76 415 l 76 671 l 178 775 l 319 775 l 418 674 l 418 560 l 331 469 l 238 469 l 238 447 l 304 401 l 453 401 l 453 276 l 318 276 l 263 231 l 263 183 l 290 156 l 536 156 l 567 186 l 567 775 l 753 775 m 196 593 l 224 565 l 274 565 l 301 593 l 301 643 l 274 671 l 224 671 l 196 643 l 196 593 z "},"ร":{"ha":701,"x_min":42,"x_max":646,"o":"m 238 93 l 238 228 l 329 319 l 406 319 l 403 344 l 403 386 l 42 471 l 42 642 l 172 775 l 646 775 l 646 619 l 256 619 l 228 590 l 228 568 l 586 488 l 586 93 l 493 0 l 332 0 l 238 93 m 438 107 l 464 135 l 464 185 l 438 213 l 385 213 l 358 185 l 358 135 l 385 107 l 438 107 z "},"ฤ":{"ha":868,"x_min":49,"x_max":778,"o":"m 592 579 l 556 617 l 288 617 l 256 583 l 368 478 l 289 374 l 289 328 l 286 311 l 344 311 l 436 219 l 436 93 l 343 0 l 199 0 l 106 93 l 106 389 l 176 479 l 49 592 l 217 775 l 644 775 l 778 640 l 778 -292 l 592 -292 l 592 579 m 296 104 l 324 132 l 324 179 l 296 207 l 249 207 l 221 179 l 221 132 l 249 104 l 296 104 z "},"ล":{"ha":856,"x_min":63,"x_max":765,"o":"m 97 93 l 97 363 l 233 494 l 493 494 l 582 407 l 582 582 l 546 619 l 285 619 l 249 582 l 249 543 l 63 543 l 63 639 l 196 775 l 632 775 l 765 639 l 765 0 l 579 0 l 579 222 l 453 350 l 299 350 l 278 328 l 278 317 l 275 303 l 335 303 l 425 213 l 425 93 l 332 0 l 190 0 l 97 93 m 286 101 l 314 129 l 314 176 l 286 204 l 239 204 l 211 176 l 211 129 l 239 101 l 286 101 z "},"ฦ":{"ha":888,"x_min":21,"x_max":797,"o":"m 611 579 l 575 617 l 307 617 l 275 583 l 411 478 l 353 369 l 353 94 l 260 0 l 117 0 l 21 93 l 21 224 l 111 314 l 175 314 l 169 336 l 169 394 l 219 479 l 68 592 l 236 775 l 664 775 l 797 640 l 797 -292 l 611 -292 l 611 579 m 210 107 l 238 135 l 238 182 l 210 210 l 163 210 l 135 182 l 135 135 l 163 107 l 210 107 z "},"ว":{"ha":750,"x_min":28,"x_max":660,"o":"m 310 104 l 310 229 l 408 331 l 482 331 l 474 374 l 474 579 l 436 617 l 249 617 l 211 579 l 211 485 l 28 485 l 28 639 l 161 775 l 526 775 l 660 639 l 660 104 l 556 0 l 413 0 l 310 104 m 510 114 l 538 142 l 538 192 l 510 219 l 460 219 l 432 192 l 432 142 l 460 114 l 510 114 z "},"ศ":{"ha":892,"x_min":90,"x_max":833,"o":"m 746 657 l 801 593 l 801 0 l 618 0 l 618 576 l 579 617 l 307 617 l 268 576 l 268 363 l 381 474 l 501 474 l 588 383 l 588 281 l 501 190 l 390 190 l 338 246 l 311 215 l 271 176 l 271 0 l 90 0 l 90 632 l 232 775 l 618 775 l 711 868 l 833 746 l 746 657 m 390 308 l 417 281 l 467 281 l 493 308 l 493 356 l 467 383 l 417 383 l 390 356 l 390 308 z "},"ษ":{"ha":949,"x_min":21,"x_max":858,"o":"m 858 775 l 858 114 l 746 0 l 300 0 l 188 114 l 188 397 l 199 444 l 122 444 l 21 546 l 21 671 l 125 775 l 267 775 l 367 674 l 367 189 l 396 158 l 651 158 l 681 189 l 681 268 l 475 268 l 397 344 l 397 451 l 478 532 l 575 532 l 653 451 l 653 399 l 647 381 l 681 389 l 681 775 l 858 775 m 249 633 l 221 661 l 171 661 l 143 633 l 143 583 l 171 556 l 221 556 l 249 583 l 249 633 m 572 419 l 546 446 l 508 446 l 482 419 l 482 381 l 508 354 l 546 354 l 572 381 l 572 419 z "},"ส":{"ha":856,"x_min":63,"x_max":833,"o":"m 735 646 l 765 611 l 765 0 l 579 0 l 579 222 l 453 350 l 299 350 l 278 328 l 278 317 l 275 303 l 335 303 l 425 213 l 425 93 l 332 0 l 190 0 l 97 93 l 97 363 l 233 494 l 493 494 l 582 407 l 582 582 l 546 619 l 285 619 l 249 582 l 249 543 l 63 543 l 63 639 l 196 775 l 618 775 l 711 868 l 833 746 l 735 646 m 239 204 l 211 176 l 211 129 l 239 101 l 286 101 l 314 129 l 314 176 l 286 204 l 239 204 z "},"ห":{"ha":919,"x_min":21,"x_max":829,"o":"m 829 547 l 772 492 l 829 439 l 829 0 l 643 0 l 643 368 l 632 382 l 338 0 l 188 0 l 188 397 l 199 444 l 122 444 l 21 546 l 21 671 l 125 775 l 271 775 l 374 671 l 374 260 l 544 482 l 479 547 l 479 671 l 579 775 l 726 775 l 829 671 l 829 547 m 601 586 l 629 558 l 679 558 l 707 586 l 707 636 l 679 664 l 629 664 l 601 636 l 601 586 m 249 633 l 221 661 l 171 661 l 143 633 l 143 583 l 171 556 l 221 556 l 249 583 l 249 633 z "},"ฬ":{"ha":1003,"x_min":21,"x_max":1010,"o":"m 188 397 l 199 444 l 122 444 l 21 546 l 21 671 l 125 775 l 268 775 l 368 675 l 368 279 l 372 279 l 503 531 l 572 531 l 704 281 l 708 281 l 708 563 l 714 597 l 650 597 l 558 689 l 558 811 l 650 903 l 788 903 l 869 818 l 869 778 l 938 849 l 1010 754 l 889 629 l 889 0 l 711 0 l 538 329 l 368 0 l 188 0 l 188 397 m 736 701 l 764 729 l 764 771 l 736 799 l 696 799 l 667 771 l 667 729 l 696 701 l 736 701 m 221 556 l 249 583 l 249 633 l 221 661 l 171 661 l 143 633 l 143 583 l 171 556 l 221 556 z "},"อ":{"ha":835,"x_min":56,"x_max":751,"o":"m 90 125 l 90 417 l 183 510 l 324 510 l 417 417 l 417 294 l 326 207 l 269 207 l 271 193 l 271 179 l 296 153 l 529 153 l 565 190 l 565 582 l 529 619 l 278 619 l 242 582 l 242 543 l 56 543 l 56 639 l 189 775 l 618 775 l 751 639 l 751 125 l 629 0 l 211 0 l 90 125 m 279 301 l 306 329 l 306 379 l 279 407 l 231 407 l 204 379 l 204 329 l 231 301 l 279 301 z "},"ฮ":{"ha":835,"x_min":56,"x_max":779,"o":"m 90 125 l 90 400 l 183 493 l 324 493 l 417 400 l 417 286 l 332 204 l 269 204 l 271 190 l 271 179 l 296 153 l 532 153 l 568 190 l 568 586 l 549 606 l 468 528 l 128 528 l 56 600 l 56 703 l 128 775 l 569 775 l 668 867 l 779 763 l 700 688 l 751 635 l 751 125 l 629 0 l 211 0 l 90 125 m 399 624 l 457 679 l 226 679 l 210 663 l 210 640 l 225 624 l 399 624 m 279 290 l 306 318 l 306 368 l 279 396 l 231 396 l 204 368 l 204 318 l 231 290 l 279 290 z "},"ะ":{"ha":733,"x_min":49,"x_max":706,"o":"m 49 515 l 49 651 l 150 753 l 278 753 l 379 651 l 379 569 l 433 569 l 596 732 l 706 604 l 515 414 l 150 414 l 49 515 m 243 532 l 269 560 l 269 610 l 243 638 l 190 638 l 164 610 l 164 560 l 190 532 l 243 532 m 49 126 l 49 263 l 150 364 l 278 364 l 379 263 l 379 181 l 433 181 l 596 343 l 706 215 l 515 25 l 150 25 l 49 126 m 243 143 l 269 171 l 269 221 l 243 249 l 190 249 l 164 221 l 164 171 l 190 143 l 243 143 z "},"า":{"ha":754,"x_min":28,"x_max":664,"o":"m 478 579 l 440 617 l 247 617 l 211 579 l 211 485 l 28 485 l 28 639 l 163 775 l 529 775 l 664 639 l 664 0 l 478 0 l 478 579 z "},"ำ":{"ha":754,"x_min":-351,"x_max":664,"o":"m -351 961 l -351 1094 l -251 1194 l -100 1194 l -1 1094 l -1 961 l -100 861 l -251 861 l -351 961 m -153 976 l -125 1004 l -125 1051 l -153 1079 l -199 1079 l -226 1051 l -226 1004 l -199 976 l -153 976 m 478 579 l 440 617 l 247 617 l 211 579 l 211 485 l 28 485 l 28 639 l 163 775 l 529 775 l 664 639 l 664 0 l 478 0 l 478 579 z "},"เ":{"ha":464,"x_min":90,"x_max":443,"o":"m 90 101 l 90 775 l 276 775 l 276 376 l 265 331 l 344 331 l 443 229 l 443 101 l 342 0 l 192 0 l 90 101 m 293 114 l 321 142 l 321 192 l 293 219 l 243 219 l 215 192 l 215 142 l 243 114 l 293 114 z "},"แ":{"ha":874,"x_min":90,"x_max":853,"o":"m 90 101 l 90 775 l 276 775 l 276 376 l 265 331 l 342 331 l 440 229 l 440 101 l 339 0 l 192 0 l 90 101 m 500 101 l 500 775 l 686 775 l 686 376 l 675 331 l 754 331 l 853 229 l 853 101 l 751 0 l 601 0 l 500 101 m 293 114 l 321 142 l 321 192 l 293 219 l 243 219 l 215 192 l 215 142 l 243 114 l 293 114 m 703 114 l 731 142 l 731 192 l 703 219 l 653 219 l 625 192 l 625 142 l 653 114 l 703 114 z "},"โ":{"ha":543,"x_min":-62,"x_max":525,"o":"m 169 101 l 169 890 l -62 1006 l -62 1160 l 72 1294 l 525 1294 l 525 1144 l 146 1144 l 118 1117 l 118 1085 l 356 968 l 356 376 l 344 331 l 424 331 l 522 229 l 522 101 l 421 0 l 271 0 l 169 101 m 372 114 l 400 142 l 400 192 l 372 219 l 322 219 l 294 192 l 294 142 l 322 114 l 372 114 z "},"ใ":{"ha":538,"x_min":-60,"x_max":517,"o":"m 164 101 l 164 794 l 325 990 l 325 1149 l 285 1189 l 132 1189 l 88 1147 l 157 1147 l 226 1075 l 226 969 l 143 886 l 24 886 l -60 969 l -60 1168 l 92 1322 l 360 1322 l 497 1185 l 497 965 l 350 783 l 350 376 l 339 331 l 418 331 l 517 229 l 517 101 l 415 0 l 265 0 l 164 101 m 107 975 l 135 1003 l 135 1047 l 107 1075 l 63 1075 l 35 1047 l 35 1003 l 63 975 l 107 975 m 367 114 l 394 142 l 394 192 l 367 219 l 317 219 l 289 192 l 289 142 l 317 114 l 367 114 z "},"ไ":{"ha":524,"x_min":-56,"x_max":503,"o":"m 150 101 l 150 892 l 326 1096 l 326 1146 l 315 1158 l 261 1158 l 157 1060 l 49 1158 l -56 1158 l -56 1308 l 79 1308 l 157 1231 l 233 1308 l 411 1308 l 499 1221 l 501 1063 l 336 863 l 336 376 l 325 331 l 404 331 l 503 229 l 503 101 l 401 0 l 251 0 l 150 101 m 353 114 l 381 142 l 381 192 l 353 219 l 303 219 l 275 192 l 275 142 l 303 114 l 353 114 z "},"ๅ":{"ha":754,"x_min":28,"x_max":664,"o":"m 478 579 l 440 617 l 247 617 l 211 579 l 211 485 l 28 485 l 28 639 l 163 775 l 529 775 l 664 639 l 664 -292 l 478 -292 l 478 579 z "},"ℊ":{"ha":836,"x_min":69,"x_max":869,"o":"m 114 -297 l 114 -161 l 229 -46 l 569 -46 l 569 115 l 471 25 l 213 25 l 69 169 l 69 547 l 213 692 l 485 692 l 583 597 l 583 692 l 753 692 l 753 -40 l 869 -40 l 869 -176 l 753 -176 l 753 -282 l 613 -422 l 239 -422 l 114 -297 m 457 175 l 569 285 l 569 451 l 475 536 l 306 536 l 253 482 l 253 229 l 306 175 l 457 175 m 532 -292 l 572 -251 l 572 -174 l 313 -174 l 286 -200 l 286 -258 l 319 -292 l 532 -292 z "},"₀":{"ha":633,"x_min":56,"x_max":578,"o":"m 56 -97 l 56 264 l 167 375 l 467 375 l 578 264 l 578 -97 l 467 -208 l 167 -208 l 56 -97 m 378 -64 l 403 -39 l 403 206 l 378 231 l 256 231 l 231 206 l 231 -37 l 256 -64 l 378 -64 z "},"₁":{"ha":406,"x_min":28,"x_max":336,"o":"m 161 189 l 28 124 l 28 282 l 197 375 l 336 375 l 336 -208 l 161 -208 l 161 189 z "},"₂":{"ha":553,"x_min":35,"x_max":525,"o":"m 38 -74 l 347 167 l 347 211 l 328 231 l 226 231 l 207 211 l 207 156 l 35 156 l 35 264 l 146 375 l 411 375 l 522 264 l 522 115 l 268 -67 l 268 -72 l 525 -72 l 525 -208 l 38 -208 l 38 -74 z "},"₃":{"ha":599,"x_min":42,"x_max":543,"o":"m 42 -100 l 42 -12 l 214 -12 l 214 -49 l 232 -68 l 349 -68 l 368 -49 l 368 8 l 353 24 l 190 24 l 190 146 l 353 146 l 368 163 l 368 215 l 349 235 l 239 235 l 219 215 l 219 179 l 47 179 l 47 267 l 156 375 l 435 375 l 543 267 l 543 128 l 500 85 l 543 42 l 543 -100 l 436 -208 l 150 -208 l 42 -100 z "},"₄":{"ha":578,"x_min":21,"x_max":557,"o":"m 311 -117 l 21 -117 l 21 25 l 285 375 l 486 375 l 486 28 l 557 28 l 557 -117 l 486 -117 l 486 -208 l 311 -208 l 311 -117 m 328 19 l 328 207 l 325 207 l 196 31 l 196 19 l 328 19 z "},"₅":{"ha":583,"x_min":49,"x_max":549,"o":"m 49 -100 l 49 -10 l 221 -10 l 221 -47 l 240 -67 l 354 -67 l 374 -47 l 374 22 l 354 42 l 57 42 l 57 375 l 538 375 l 538 236 l 226 236 l 226 181 l 436 181 l 549 68 l 549 -100 l 440 -208 l 157 -208 l 49 -100 z "},"₆":{"ha":603,"x_min":56,"x_max":561,"o":"m 56 -100 l 56 264 l 167 375 l 447 375 l 557 264 l 557 189 l 390 189 l 390 217 l 371 236 l 244 236 l 225 217 l 225 128 l 267 156 l 453 156 l 561 47 l 561 -100 l 453 -208 l 164 -208 l 56 -100 m 369 -69 l 389 -50 l 389 8 l 369 28 l 263 28 l 228 -1 l 228 -50 l 247 -69 l 369 -69 z "},"₇":{"ha":529,"x_min":21,"x_max":501,"o":"m 300 222 l 300 228 l 21 228 l 21 375 l 501 375 l 501 242 l 260 -208 l 68 -208 l 300 222 z "},"₈":{"ha":615,"x_min":49,"x_max":567,"o":"m 49 -103 l 49 29 l 113 90 l 57 150 l 57 269 l 163 375 l 454 375 l 558 269 l 558 150 l 504 90 l 567 29 l 567 -103 l 463 -208 l 154 -208 l 49 -103 m 369 150 l 389 169 l 389 221 l 369 240 l 247 240 l 228 221 l 228 169 l 247 150 l 369 150 m 378 -74 l 397 -54 l 397 3 l 378 22 l 239 22 l 219 3 l 219 -54 l 239 -74 l 378 -74 z "},"₉":{"ha":603,"x_min":42,"x_max":547,"o":"m 50 -100 l 50 -25 l 219 -25 l 219 -50 l 239 -69 l 358 -69 l 378 -50 l 378 29 l 350 7 l 147 7 l 42 113 l 42 264 l 153 375 l 436 375 l 547 264 l 547 -100 l 439 -208 l 158 -208 l 50 -100 m 350 135 l 375 157 l 375 217 l 356 236 l 233 236 l 214 217 l 214 154 l 233 135 l 350 135 z "},"⁰":{"ha":633,"x_min":56,"x_max":578,"o":"m 56 500 l 56 861 l 167 972 l 467 972 l 578 861 l 578 500 l 467 389 l 167 389 l 56 500 m 378 533 l 403 558 l 403 803 l 378 828 l 256 828 l 231 803 l 231 560 l 256 533 l 378 533 z "},"¹":{"ha":406,"x_min":28,"x_max":336,"o":"m 161 786 l 28 721 l 28 879 l 197 972 l 336 972 l 336 389 l 161 389 l 161 786 z "},"²":{"ha":553,"x_min":35,"x_max":525,"o":"m 38 524 l 347 764 l 347 808 l 328 828 l 226 828 l 207 808 l 207 753 l 35 753 l 35 861 l 146 972 l 411 972 l 522 861 l 522 713 l 268 531 l 268 525 l 525 525 l 525 389 l 38 389 l 38 524 z "},"³":{"ha":599,"x_min":42,"x_max":543,"o":"m 42 497 l 42 585 l 214 585 l 214 549 l 232 529 l 349 529 l 368 549 l 368 606 l 353 621 l 190 621 l 190 743 l 353 743 l 368 760 l 368 813 l 349 832 l 239 832 l 219 813 l 219 776 l 47 776 l 47 864 l 156 972 l 435 972 l 543 864 l 543 725 l 500 682 l 543 639 l 543 497 l 436 389 l 150 389 l 42 497 z "},"⁴":{"ha":578,"x_min":21,"x_max":557,"o":"m 311 481 l 21 481 l 21 622 l 285 972 l 486 972 l 486 625 l 557 625 l 557 481 l 486 481 l 486 389 l 311 389 l 311 481 m 328 617 l 328 804 l 325 804 l 196 628 l 196 617 l 328 617 z "},"⁵":{"ha":583,"x_min":49,"x_max":549,"o":"m 49 497 l 49 588 l 221 588 l 221 550 l 240 531 l 354 531 l 374 550 l 374 619 l 354 639 l 57 639 l 57 972 l 538 972 l 538 833 l 226 833 l 226 778 l 436 778 l 549 665 l 549 497 l 440 389 l 157 389 l 49 497 z "},"⁶":{"ha":603,"x_min":56,"x_max":561,"o":"m 56 497 l 56 861 l 167 972 l 447 972 l 557 861 l 557 786 l 390 786 l 390 814 l 371 833 l 244 833 l 225 814 l 225 725 l 267 753 l 453 753 l 561 644 l 561 497 l 453 389 l 164 389 l 56 497 m 369 528 l 389 547 l 389 606 l 369 625 l 263 625 l 228 596 l 228 547 l 247 528 l 369 528 z "},"⁷":{"ha":529,"x_min":21,"x_max":501,"o":"m 300 819 l 300 825 l 21 825 l 21 972 l 501 972 l 501 839 l 260 389 l 68 389 l 300 819 z "},"⁸":{"ha":615,"x_min":49,"x_max":567,"o":"m 49 494 l 49 626 l 113 688 l 57 747 l 57 867 l 163 972 l 454 972 l 558 867 l 558 747 l 504 688 l 567 626 l 567 494 l 463 389 l 154 389 l 49 494 m 369 747 l 389 767 l 389 818 l 369 838 l 247 838 l 228 818 l 228 767 l 247 747 l 369 747 m 378 524 l 397 543 l 397 600 l 378 619 l 239 619 l 219 600 l 219 543 l 239 524 l 378 524 z "},"⁹":{"ha":603,"x_min":42,"x_max":547,"o":"m 50 497 l 50 572 l 219 572 l 219 547 l 239 528 l 358 528 l 378 547 l 378 626 l 350 604 l 147 604 l 42 710 l 42 861 l 153 972 l 436 972 l 547 861 l 547 497 l 439 389 l 158 389 l 50 497 m 350 732 l 375 754 l 375 814 l 356 833 l 233 833 l 214 814 l 214 751 l 233 732 l 350 732 z "},"⁄":{"ha":815,"x_min":35,"x_max":781,"o":"m 781 972 l 224 0 l 35 0 l 592 972 l 781 972 z "},"½":{"ha":1279,"x_min":56,"x_max":1224,"o":"m 951 972 l 394 0 l 206 0 l 763 972 l 951 972 m 189 786 l 56 721 l 56 879 l 225 972 l 364 972 l 364 389 l 189 389 l 189 786 m 736 135 l 1046 375 l 1046 419 l 1026 439 l 925 439 l 906 419 l 906 364 l 733 364 l 733 472 l 844 583 l 1110 583 l 1221 472 l 1221 324 l 967 142 l 967 136 l 1224 136 l 1224 0 l 736 0 l 736 135 z "},"⅓":{"ha":1286,"x_min":56,"x_max":1231,"o":"m 729 108 l 729 196 l 901 196 l 901 160 l 919 140 l 1036 140 l 1056 160 l 1056 217 l 1040 232 l 878 232 l 878 354 l 1040 354 l 1056 371 l 1056 424 l 1036 443 l 926 443 l 907 424 l 907 388 l 735 388 l 735 475 l 843 583 l 1122 583 l 1231 475 l 1231 336 l 1188 293 l 1231 250 l 1231 108 l 1124 0 l 838 0 l 729 108 m 951 972 l 394 0 l 206 0 l 763 972 l 951 972 m 189 786 l 56 721 l 56 879 l 225 972 l 364 972 l 364 389 l 189 389 l 189 786 z "},"⅔":{"ha":1446,"x_min":56,"x_max":1390,"o":"m 58 524 l 368 764 l 368 808 l 349 828 l 247 828 l 228 808 l 228 753 l 56 753 l 56 861 l 167 972 l 432 972 l 543 861 l 543 713 l 289 531 l 289 525 l 546 525 l 546 389 l 58 389 l 58 524 m 889 108 l 889 196 l 1061 196 l 1061 160 l 1079 140 l 1196 140 l 1215 160 l 1215 217 l 1200 232 l 1038 232 l 1038 354 l 1200 354 l 1215 371 l 1215 424 l 1196 443 l 1086 443 l 1067 424 l 1067 388 l 894 388 l 894 475 l 1003 583 l 1282 583 l 1390 475 l 1390 336 l 1347 293 l 1390 250 l 1390 108 l 1283 0 l 997 0 l 889 108 m 1118 972 l 561 0 l 372 0 l 929 972 l 1118 972 z "},"¼":{"ha":1213,"x_min":56,"x_max":1157,"o":"m 911 92 l 621 92 l 621 233 l 885 583 l 1086 583 l 1086 236 l 1157 236 l 1157 92 l 1086 92 l 1086 0 l 911 0 l 911 92 m 928 228 l 928 415 l 925 415 l 796 239 l 796 228 l 928 228 m 951 972 l 394 0 l 206 0 l 763 972 l 951 972 m 189 786 l 56 721 l 56 879 l 225 972 l 364 972 l 364 389 l 189 389 l 189 786 z "},"¾":{"ha":1351,"x_min":56,"x_max":1296,"o":"m 56 497 l 56 585 l 228 585 l 228 549 l 246 529 l 363 529 l 382 549 l 382 606 l 367 621 l 204 621 l 204 743 l 367 743 l 382 760 l 382 813 l 363 832 l 253 832 l 233 813 l 233 776 l 61 776 l 61 864 l 169 972 l 449 972 l 557 864 l 557 725 l 514 682 l 557 639 l 557 497 l 450 389 l 164 389 l 56 497 m 1050 92 l 760 92 l 760 233 l 1024 583 l 1225 583 l 1225 236 l 1296 236 l 1296 92 l 1225 92 l 1225 0 l 1050 0 l 1050 92 m 1067 228 l 1067 415 l 1064 415 l 935 239 l 935 228 l 1067 228 m 1090 972 l 533 0 l 344 0 l 901 972 l 1090 972 z "},"⅛":{"ha":1307,"x_min":56,"x_max":1251,"o":"m 733 107 l 733 239 l 797 300 l 742 360 l 742 479 l 847 585 l 1139 585 l 1243 479 l 1243 360 l 1189 300 l 1251 239 l 1251 107 l 1147 1 l 839 1 l 733 107 m 1054 360 l 1074 379 l 1074 431 l 1054 450 l 932 450 l 913 431 l 913 379 l 932 360 l 1054 360 m 1063 136 l 1082 156 l 1082 213 l 1063 232 l 924 232 l 904 213 l 904 156 l 924 136 l 1063 136 m 951 972 l 394 0 l 206 0 l 763 972 l 951 972 m 189 786 l 56 721 l 56 879 l 225 972 l 364 972 l 364 389 l 189 389 l 189 786 z "},"⅜":{"ha":1439,"x_min":56,"x_max":1383,"o":"m 56 497 l 56 585 l 228 585 l 228 549 l 246 529 l 363 529 l 382 549 l 382 606 l 367 621 l 204 621 l 204 743 l 367 743 l 382 760 l 382 813 l 363 832 l 253 832 l 233 813 l 233 776 l 61 776 l 61 864 l 169 972 l 449 972 l 557 864 l 557 725 l 514 682 l 557 639 l 557 497 l 450 389 l 164 389 l 56 497 m 865 107 l 865 239 l 929 300 l 874 360 l 874 479 l 979 585 l 1271 585 l 1375 479 l 1375 360 l 1321 300 l 1383 239 l 1383 107 l 1279 1 l 971 1 l 865 107 m 1186 360 l 1206 379 l 1206 431 l 1186 450 l 1064 450 l 1044 431 l 1044 379 l 1064 360 l 1186 360 m 1194 136 l 1214 156 l 1214 213 l 1194 232 l 1056 232 l 1036 213 l 1036 156 l 1056 136 l 1194 136 m 1090 972 l 533 0 l 344 0 l 901 972 l 1090 972 z "},"⅝":{"ha":1438,"x_min":56,"x_max":1382,"o":"m 56 497 l 56 588 l 228 588 l 228 550 l 247 531 l 361 531 l 381 550 l 381 619 l 361 639 l 64 639 l 64 972 l 544 972 l 544 833 l 233 833 l 233 778 l 443 778 l 556 665 l 556 497 l 447 389 l 164 389 l 56 497 m 864 107 l 864 239 l 928 300 l 872 360 l 872 479 l 978 585 l 1269 585 l 1374 479 l 1374 360 l 1319 300 l 1382 239 l 1382 107 l 1278 1 l 969 1 l 864 107 m 1185 360 l 1204 379 l 1204 431 l 1185 450 l 1063 450 l 1043 431 l 1043 379 l 1063 360 l 1185 360 m 1193 136 l 1213 156 l 1213 213 l 1193 232 l 1054 232 l 1035 213 l 1035 156 l 1054 136 l 1193 136 m 1089 972 l 532 0 l 343 0 l 900 972 l 1089 972 z "},"⅞":{"ha":1303,"x_min":56,"x_max":1247,"o":"m 335 819 l 335 825 l 56 825 l 56 972 l 536 972 l 536 839 l 294 389 l 103 389 l 335 819 m 729 107 l 729 239 l 793 300 l 738 360 l 738 479 l 843 585 l 1135 585 l 1239 479 l 1239 360 l 1185 300 l 1247 239 l 1247 107 l 1143 1 l 835 1 l 729 107 m 1050 360 l 1069 379 l 1069 431 l 1050 450 l 928 450 l 908 431 l 908 379 l 928 360 l 1050 360 m 1058 136 l 1078 156 l 1078 213 l 1058 232 l 919 232 l 900 213 l 900 156 l 919 136 l 1058 136 m 951 972 l 394 0 l 206 0 l 763 972 l 951 972 z "},"๐":{"ha":914,"x_min":69,"x_max":844,"o":"m 69 144 l 69 515 l 214 660 l 700 660 l 844 515 l 844 144 l 700 0 l 214 0 l 69 144 m 615 154 l 663 201 l 663 456 l 613 506 l 301 506 l 251 456 l 251 201 l 299 154 l 615 154 z "},"๑":{"ha":911,"x_min":69,"x_max":842,"o":"m 550 -17 l 661 101 l 661 453 l 611 504 l 289 504 l 239 453 l 239 160 l 267 131 l 329 131 l 288 178 l 288 256 l 376 344 l 506 344 l 601 247 l 601 126 l 479 0 l 193 0 l 69 124 l 69 508 l 218 660 l 693 660 l 842 508 l 842 42 l 671 -132 l 550 -17 m 463 133 l 493 165 l 493 211 l 463 242 l 421 242 l 390 211 l 390 171 l 424 133 l 463 133 z "},"๒":{"ha":1054,"x_min":76,"x_max":985,"o":"m 76 143 l 76 931 l 260 931 l 260 201 l 306 154 l 758 154 l 804 201 l 804 483 l 772 515 l 756 515 l 656 408 l 547 515 l 489 515 l 453 479 l 453 461 l 531 461 l 607 385 l 607 285 l 533 211 l 401 211 l 319 294 l 319 514 l 451 660 l 578 660 l 656 575 l 726 660 l 853 660 l 985 522 l 985 143 l 843 0 l 218 0 l 76 143 m 493 285 l 521 313 l 521 357 l 493 385 l 449 385 l 421 357 l 421 313 l 449 285 l 493 285 z "},"๓":{"ha":1050,"x_min":76,"x_max":974,"o":"m 76 97 l 76 513 l 224 660 l 465 660 l 538 586 l 611 660 l 826 660 l 974 513 l 974 0 l 792 0 l 792 460 l 747 504 l 667 504 l 625 463 l 625 0 l 450 0 l 450 463 l 408 504 l 299 504 l 254 460 l 254 304 l 307 304 l 404 207 l 404 97 l 307 0 l 174 0 l 76 97 m 267 103 l 294 131 l 294 178 l 267 206 l 219 206 l 192 178 l 192 131 l 219 103 l 267 103 z "},"๔":{"ha":954,"x_min":69,"x_max":968,"o":"m 69 150 l 69 510 l 219 660 l 701 660 l 847 804 l 968 683 l 792 504 l 303 504 l 253 454 l 253 197 l 300 150 l 454 150 l 379 239 l 379 371 l 469 461 l 617 461 l 707 371 l 707 261 l 631 185 l 592 185 l 621 150 l 889 150 l 889 0 l 219 0 l 69 150 m 572 261 l 600 289 l 600 336 l 572 364 l 525 364 l 497 336 l 497 289 l 525 261 l 572 261 z "},"๕":{"ha":954,"x_min":69,"x_max":968,"o":"m 621 150 l 889 150 l 889 0 l 219 0 l 69 150 l 69 510 l 219 660 l 326 660 l 326 739 l 425 838 l 558 838 l 657 739 l 657 660 l 701 660 l 847 804 l 968 683 l 792 504 l 303 504 l 253 454 l 253 197 l 300 150 l 454 150 l 379 239 l 379 371 l 469 461 l 617 461 l 707 371 l 707 261 l 631 185 l 592 185 l 621 150 m 444 661 l 472 633 l 517 633 l 544 661 l 544 706 l 517 733 l 472 733 l 444 706 l 444 661 m 572 261 l 600 289 l 600 336 l 572 364 l 525 364 l 497 336 l 497 289 l 525 261 l 572 261 z "},"๖":{"ha":906,"x_min":-14,"x_max":836,"o":"m 99 118 l 99 243 l 210 354 l 335 354 l 443 246 l 443 186 l 415 156 l 603 156 l 653 207 l 653 458 l 608 504 l 164 504 l -14 683 l 107 804 l 251 660 l 692 660 l 836 514 l 836 149 l 689 0 l 219 0 l 99 118 m 289 129 l 324 167 l 324 206 l 293 235 l 250 235 l 221 206 l 221 160 l 250 129 l 289 129 z "},"๗":{"ha":1246,"x_min":76,"x_max":1169,"o":"m 76 94 l 76 513 l 224 660 l 447 660 l 519 586 l 593 660 l 783 660 l 925 518 l 925 153 l 972 153 l 994 175 l 994 931 l 1169 931 l 1169 119 l 1050 0 l 749 0 l 749 463 l 707 504 l 644 504 l 603 463 l 603 0 l 436 0 l 436 463 l 394 504 l 300 504 l 256 460 l 256 301 l 303 301 l 400 204 l 400 94 l 306 0 l 171 0 l 76 94 m 264 100 l 292 128 l 292 175 l 264 203 l 217 203 l 189 175 l 189 128 l 217 100 l 264 100 z "},"๘":{"ha":963,"x_min":69,"x_max":935,"o":"m 69 133 l 69 510 l 219 660 l 668 660 l 814 804 l 935 683 l 760 504 l 303 504 l 253 454 l 253 189 l 286 156 l 317 156 l 450 285 l 593 147 l 711 147 l 733 167 l 733 188 l 674 188 l 594 267 l 594 369 l 679 457 l 815 457 l 906 367 l 906 136 l 769 0 l 549 0 l 450 97 l 353 0 l 203 0 l 69 133 m 772 267 l 800 294 l 800 339 l 772 367 l 728 367 l 700 339 l 700 294 l 728 267 l 772 267 z "},"๙":{"ha":942,"x_min":69,"x_max":963,"o":"m 633 471 l 894 72 l 772 -26 l 422 504 l 279 504 l 233 458 l 233 178 l 283 128 l 318 128 l 288 160 l 288 225 l 368 306 l 488 306 l 571 222 l 571 96 l 472 0 l 207 0 l 69 138 l 69 510 l 219 660 l 510 660 l 551 596 l 615 660 l 721 660 l 861 804 l 963 692 l 789 510 l 672 510 l 633 471 m 379 149 l 417 111 l 453 111 l 482 142 l 482 188 l 453 217 l 410 217 l 379 186 l 379 149 z "},".":{"ha":331,"x_min":56,"x_max":275,"o":"m 56 60 l 56 149 l 115 208 l 217 208 l 275 147 l 275 61 l 217 0 l 115 0 l 56 60 z "},",":{"ha":331,"x_min":53,"x_max":275,"o":"m 143 0 l 113 0 l 53 60 l 53 149 l 113 208 l 217 208 l 275 147 l 275 0 l 196 -186 l 88 -186 l 143 0 z "},":":{"ha":322,"x_min":56,"x_max":267,"o":"m 56 496 l 56 582 l 113 639 l 211 639 l 267 581 l 267 497 l 211 439 l 113 439 l 56 496 m 56 57 l 56 143 l 113 200 l 211 200 l 267 142 l 267 58 l 211 0 l 113 0 l 56 57 z "},";":{"ha":322,"x_min":56,"x_max":278,"o":"m 58 496 l 58 582 l 115 639 l 214 639 l 269 581 l 269 497 l 214 439 l 115 439 l 58 496 m 146 0 l 115 0 l 56 60 l 56 149 l 115 208 l 219 208 l 278 147 l 278 0 l 199 -186 l 90 -186 l 146 0 z "},"…":{"ha":992,"x_min":56,"x_max":936,"o":"m 56 60 l 56 149 l 115 208 l 217 208 l 275 147 l 275 61 l 217 0 l 115 0 l 56 60 m 386 60 l 386 149 l 446 208 l 547 208 l 606 147 l 606 61 l 547 0 l 446 0 l 386 60 m 717 60 l 717 149 l 776 208 l 878 208 l 936 147 l 936 61 l 878 0 l 776 0 l 717 60 z "},"!":{"ha":381,"x_min":83,"x_max":297,"o":"m 96 786 l 96 972 l 285 972 l 285 786 l 263 281 l 118 281 l 96 786 m 83 60 l 83 143 l 143 203 l 238 203 l 297 143 l 297 60 l 238 0 l 143 0 l 83 60 z "},"¡":{"ha":381,"x_min":83,"x_max":297,"o":"m 238 692 l 297 632 l 297 549 l 238 489 l 143 489 l 83 549 l 83 632 l 143 692 l 238 692 m 263 411 l 285 -94 l 285 -281 l 96 -281 l 96 -94 l 118 411 l 263 411 z "},"?":{"ha":781,"x_min":35,"x_max":725,"o":"m 289 436 l 539 678 l 539 740 l 468 811 l 286 811 l 221 746 l 221 667 l 35 667 l 35 803 l 204 972 l 550 972 l 725 797 l 725 622 l 472 378 l 472 265 l 289 265 l 289 436 m 274 60 l 274 143 l 333 203 l 428 203 l 488 143 l 488 60 l 428 0 l 333 0 l 274 60 z "},"¿":{"ha":781,"x_min":56,"x_max":746,"o":"m 507 632 l 507 549 l 447 489 l 353 489 l 293 549 l 293 632 l 353 692 l 447 692 l 507 632 m 492 256 l 242 14 l 242 -49 l 313 -119 l 494 -119 l 560 -54 l 560 25 l 746 25 l 746 -111 l 576 -281 l 231 -281 l 56 -106 l 56 69 l 308 314 l 308 426 l 492 426 l 492 256 z "},"·":{"ha":331,"x_min":56,"x_max":275,"o":"m 56 343 l 56 432 l 115 492 l 217 492 l 275 431 l 275 344 l 217 283 l 115 283 l 56 343 z "},"•":{"ha":422,"x_min":56,"x_max":367,"o":"m 56 336 l 56 471 l 140 558 l 282 558 l 367 471 l 367 336 l 282 249 l 140 249 l 56 336 z "},"*":{"ha":485,"x_min":56,"x_max":429,"o":"m 200 724 l 107 650 l 56 747 l 176 792 l 56 839 l 107 936 l 200 861 l 183 972 l 301 972 l 285 861 l 378 936 l 429 839 l 308 792 l 429 747 l 378 650 l 285 724 l 301 613 l 183 613 l 200 724 z "},"#":{"ha":996,"x_min":56,"x_max":940,"o":"m 774 578 l 743 400 l 913 400 l 913 242 l 715 242 l 674 0 l 490 0 l 532 242 l 378 242 l 336 0 l 153 0 l 194 242 l 56 242 l 56 400 l 222 400 l 253 578 l 83 578 l 83 736 l 281 736 l 321 972 l 504 972 l 464 736 l 618 736 l 658 972 l 842 972 l 801 736 l 940 736 l 940 578 l 774 578 m 590 578 l 436 578 l 406 400 l 560 400 l 590 578 z "},"/":{"ha":725,"x_min":0,"x_max":725,"o":"m 536 972 l 725 972 l 189 0 l 0 0 l 536 972 z "},"\\":{"ha":746,"x_min":0,"x_max":746,"o":"m 0 972 l 190 972 l 746 0 l 557 0 l 0 972 z "},"₍":{"ha":344,"x_min":56,"x_max":331,"o":"m 56 -182 l 56 369 l 163 478 l 331 478 l 331 339 l 258 339 l 222 303 l 222 -115 l 258 -151 l 331 -151 l 331 -290 l 163 -290 l 56 -182 z "},"₎":{"ha":344,"x_min":14,"x_max":289,"o":"m 14 -290 l 14 -151 l 86 -151 l 122 -115 l 122 303 l 86 339 l 14 339 l 14 478 l 182 478 l 289 369 l 289 -182 l 182 -290 l 14 -290 z "},"(":{"ha":483,"x_min":90,"x_max":463,"o":"m 90 15 l 90 956 l 268 1133 l 463 1133 l 463 975 l 357 975 l 274 892 l 274 79 l 357 -4 l 463 -4 l 463 -162 l 268 -162 l 90 15 z "},")":{"ha":483,"x_min":21,"x_max":393,"o":"m 21 -162 l 21 -4 l 126 -4 l 210 79 l 210 892 l 126 975 l 21 975 l 21 1133 l 215 1133 l 393 956 l 393 15 l 215 -162 l 21 -162 z "},"{":{"ha":524,"x_min":42,"x_max":503,"o":"m 150 -15 l 150 331 l 42 442 l 42 531 l 150 642 l 150 986 l 297 1133 l 503 1133 l 503 975 l 381 975 l 333 928 l 333 596 l 232 492 l 232 481 l 333 376 l 333 43 l 381 -4 l 503 -4 l 503 -162 l 297 -162 l 150 -15 z "},"}":{"ha":524,"x_min":21,"x_max":482,"o":"m 21 -162 l 21 -4 l 143 -4 l 190 43 l 190 376 l 292 481 l 292 492 l 190 596 l 190 928 l 143 975 l 21 975 l 21 1133 l 226 1133 l 374 986 l 374 642 l 482 531 l 482 442 l 374 331 l 374 -15 l 226 -162 l 21 -162 z "},"[":{"ha":478,"x_min":90,"x_max":457,"o":"m 90 1133 l 457 1133 l 457 975 l 274 975 l 274 -4 l 457 -4 l 457 -162 l 90 -162 l 90 1133 z "},"]":{"ha":478,"x_min":21,"x_max":388,"o":"m 21 -162 l 21 -4 l 204 -4 l 204 975 l 21 975 l 21 1133 l 388 1133 l 388 -162 l 21 -162 z "},"⁽":{"ha":344,"x_min":56,"x_max":331,"o":"m 56 397 l 56 949 l 163 1057 l 331 1057 l 331 918 l 258 918 l 222 882 l 222 464 l 258 428 l 331 428 l 331 289 l 163 289 l 56 397 z "},"⁾":{"ha":344,"x_min":14,"x_max":289,"o":"m 14 289 l 14 428 l 86 428 l 122 464 l 122 882 l 86 918 l 14 918 l 14 1057 l 182 1057 l 289 949 l 289 397 l 182 289 l 14 289 z "},"-":{"ha":600,"x_min":56,"x_max":544,"o":"m 56 436 l 544 436 l 544 278 l 56 278 l 56 436 z "},"­":{"ha":600,"x_min":56,"x_max":544,"o":"m 56 436 l 544 436 l 544 278 l 56 278 l 56 436 z "},"–":{"ha":885,"x_min":56,"x_max":829,"o":"m 56 436 l 829 436 l 829 278 l 56 278 l 56 436 z "},"—":{"ha":1043,"x_min":56,"x_max":988,"o":"m 56 436 l 988 436 l 988 278 l 56 278 l 56 436 z "},"‒":{"ha":864,"x_min":56,"x_max":808,"o":"m 56 436 l 808 436 l 808 278 l 56 278 l 56 436 z "},"―":{"ha":1294,"x_min":56,"x_max":1239,"o":"m 56 436 l 1239 436 l 1239 278 l 56 278 l 56 436 z "},"‐":{"ha":1089,"x_min":56,"x_max":1033,"o":"m 56 436 l 1033 436 l 1033 278 l 56 278 l 56 436 z "},"_":{"ha":669,"x_min":0,"x_max":669,"o":"m 0 -14 l 669 -14 l 669 -169 l 0 -169 l 0 -14 z "},"‚":{"ha":325,"x_min":53,"x_max":275,"o":"m 143 0 l 113 0 l 53 60 l 53 149 l 113 208 l 217 208 l 275 147 l 275 0 l 196 -186 l 88 -186 l 143 0 z "},"„":{"ha":613,"x_min":53,"x_max":563,"o":"m 143 0 l 113 0 l 53 60 l 53 149 l 113 208 l 217 208 l 275 147 l 275 0 l 196 -186 l 88 -186 l 143 0 m 431 0 l 400 0 l 340 60 l 340 149 l 400 208 l 504 208 l 563 147 l 563 0 l 483 -186 l 375 -186 l 431 0 z "},"“":{"ha":613,"x_min":51,"x_max":561,"o":"m 183 786 l 214 786 l 274 726 l 274 638 l 214 578 l 110 578 l 51 639 l 51 786 l 131 972 l 239 972 l 183 786 m 471 786 l 501 786 l 561 726 l 561 638 l 501 578 l 397 578 l 339 639 l 339 786 l 418 972 l 526 972 l 471 786 z "},"”":{"ha":613,"x_min":53,"x_max":563,"o":"m 143 764 l 113 764 l 53 824 l 53 913 l 113 972 l 217 972 l 275 911 l 275 764 l 196 578 l 88 578 l 143 764 m 431 764 l 400 764 l 340 824 l 340 913 l 400 972 l 504 972 l 563 911 l 563 764 l 483 578 l 375 578 l 431 764 z "},"‘":{"ha":325,"x_min":51,"x_max":274,"o":"m 183 786 l 214 786 l 274 726 l 274 638 l 214 578 l 110 578 l 51 639 l 51 786 l 131 972 l 239 972 l 183 786 z "},"’":{"ha":325,"x_min":53,"x_max":275,"o":"m 143 764 l 113 764 l 53 824 l 53 913 l 113 972 l 217 972 l 275 911 l 275 764 l 196 578 l 88 578 l 143 764 z "},"«":{"ha":793,"x_min":28,"x_max":738,"o":"m 28 313 l 28 435 l 379 703 l 379 511 l 200 378 l 200 369 l 379 236 l 379 44 l 28 313 m 386 313 l 386 435 l 738 703 l 738 511 l 558 378 l 558 369 l 738 236 l 738 44 l 386 313 z "},"»":{"ha":793,"x_min":56,"x_max":765,"o":"m 56 236 l 235 369 l 235 378 l 56 511 l 56 703 l 407 435 l 407 313 l 56 44 l 56 236 m 414 236 l 593 369 l 593 378 l 414 511 l 414 703 l 765 435 l 765 313 l 414 44 l 414 236 z "},"‹":{"ha":435,"x_min":28,"x_max":379,"o":"m 28 313 l 28 435 l 379 703 l 379 511 l 200 378 l 200 369 l 379 236 l 379 44 l 28 313 z "},"›":{"ha":435,"x_min":56,"x_max":407,"o":"m 56 236 l 235 369 l 235 378 l 56 511 l 56 703 l 407 435 l 407 313 l 56 44 l 56 236 z "},"\"":{"ha":639,"x_min":83,"x_max":556,"o":"m 83 814 l 83 972 l 272 972 l 272 814 l 250 611 l 106 611 l 83 814 m 367 814 l 367 972 l 556 972 l 556 814 l 533 611 l 389 611 l 367 814 z "},"'":{"ha":356,"x_min":83,"x_max":272,"o":"m 83 814 l 83 972 l 272 972 l 272 814 l 250 611 l 106 611 l 83 814 z "},"๚":{"ha":1057,"x_min":21,"x_max":974,"o":"m 476 471 l 411 419 l 142 419 l 21 540 l 21 672 l 124 775 l 253 775 l 351 676 l 351 583 l 319 544 l 358 547 l 382 547 l 482 635 l 482 775 l 657 775 l 657 550 l 703 550 l 799 638 l 799 775 l 974 775 l 974 0 l 793 0 l 793 468 l 715 406 l 657 406 l 657 0 l 476 0 l 476 471 m 217 560 l 243 588 l 243 636 l 217 664 l 165 664 l 138 636 l 138 588 l 165 560 l 217 560 z "},"๏":{"ha":821,"x_min":56,"x_max":765,"o":"m 56 244 l 56 531 l 267 742 l 554 742 l 765 531 l 765 244 l 554 35 l 267 35 l 56 244 m 499 164 l 633 299 l 633 476 l 499 613 l 322 613 l 188 476 l 188 299 l 322 164 l 499 164 m 240 317 l 240 458 l 340 558 l 481 558 l 581 458 l 581 317 l 482 218 l 339 218 l 240 317 m 438 325 l 474 361 l 474 415 l 436 451 l 386 451 l 349 415 l 349 361 l 385 325 l 438 325 z "},"๛":{"ha":1651,"x_min":56,"x_max":1624,"o":"m 56 186 l 56 583 l 203 731 l 506 731 l 628 608 l 628 321 l 528 231 l 383 231 l 293 321 l 293 449 l 369 525 l 436 525 l 460 507 l 469 507 l 469 543 l 439 572 l 281 572 l 233 525 l 233 242 l 281 194 l 592 194 l 651 250 l 764 629 l 882 629 l 975 367 l 1054 601 l 1154 601 l 1229 400 l 1297 574 l 1385 574 l 1453 453 l 1624 453 l 1624 306 l 1415 306 l 1360 399 l 1276 186 l 1182 186 l 1104 383 l 1028 158 l 922 158 l 840 383 l 781 174 l 647 39 l 203 39 l 56 186 m 479 331 l 506 358 l 506 406 l 479 433 l 432 433 l 404 406 l 404 358 l 432 331 l 479 331 z "},"ๆ":{"ha":735,"x_min":28,"x_max":644,"o":"m 458 626 l 439 647 l 410 647 l 339 574 l 261 650 l 211 650 l 167 607 l 231 607 l 308 528 l 308 433 l 229 350 l 113 350 l 28 433 l 28 642 l 163 789 l 271 789 l 339 719 l 406 789 l 544 789 l 644 679 l 644 -153 l 458 -153 l 458 626 m 196 433 l 224 461 l 224 506 l 196 533 l 151 533 l 124 506 l 124 461 l 151 433 l 196 433 z "},"ฯ":{"ha":746,"x_min":21,"x_max":663,"o":"m 476 471 l 411 419 l 142 419 l 21 540 l 21 672 l 124 775 l 253 775 l 351 676 l 351 583 l 319 544 l 358 547 l 382 547 l 482 635 l 482 775 l 663 775 l 663 0 l 476 0 l 476 471 m 217 560 l 243 588 l 243 636 l 217 664 l 165 664 l 138 636 l 138 588 l 165 560 l 217 560 z "}," ":{"ha":906,"x_min":0,"x_max":0,"o":""}," ":{"ha":378,"x_min":0,"x_max":0,"o":""},"฿":{"ha":931,"x_min":90,"x_max":882,"o":"m 882 404 l 882 150 l 732 0 l 546 0 l 546 -153 l 388 -153 l 388 0 l 90 0 l 90 972 l 388 972 l 388 1125 l 546 1125 l 546 972 l 700 972 l 839 833 l 839 561 l 783 504 l 882 404 m 275 565 l 388 565 l 388 814 l 275 814 l 275 565 m 546 814 l 546 565 l 603 565 l 653 615 l 653 765 l 604 814 l 546 814 m 388 158 l 388 414 l 275 414 l 275 158 l 388 158 m 696 354 l 636 414 l 546 414 l 546 158 l 636 158 l 696 218 l 696 354 z "},"₵":{"ha":910,"x_min":76,"x_max":868,"o":"m 679 667 l 679 746 l 614 811 l 563 811 l 563 161 l 614 161 l 679 226 l 679 306 l 868 306 l 868 157 l 711 0 l 563 0 l 563 -153 l 404 -153 l 404 0 l 236 0 l 76 160 l 76 813 l 236 972 l 404 972 l 404 1125 l 563 1125 l 563 972 l 711 972 l 868 815 l 868 667 l 679 667 m 404 811 l 336 811 l 265 740 l 265 232 l 336 161 l 404 161 l 404 811 z "},"¢":{"ha":775,"x_min":69,"x_max":733,"o":"m 550 419 l 550 488 l 501 536 l 301 536 l 253 488 l 253 204 l 301 156 l 501 156 l 550 204 l 550 272 l 733 272 l 733 144 l 590 0 l 485 0 l 485 -153 l 321 -153 l 321 0 l 210 0 l 69 142 l 69 550 l 210 692 l 321 692 l 321 831 l 485 831 l 485 692 l 590 692 l 733 547 l 733 419 l 550 419 z "},"₡":{"ha":910,"x_min":76,"x_max":868,"o":"m 711 667 l 601 161 l 614 161 l 679 226 l 679 306 l 868 306 l 868 157 l 711 0 l 567 0 l 533 -153 l 394 -153 l 428 0 l 331 0 l 297 -153 l 158 -153 l 200 36 l 76 160 l 76 813 l 236 972 l 401 972 l 435 1125 l 574 1125 l 540 972 l 638 972 l 671 1125 l 810 1125 l 765 918 l 868 815 l 868 667 l 711 667 m 265 342 l 367 811 l 336 811 l 265 740 l 265 342 m 463 161 l 603 811 l 506 811 l 365 161 l 463 161 z "},"¤":{"ha":915,"x_min":56,"x_max":860,"o":"m 753 272 l 860 164 l 751 56 l 644 164 l 608 128 l 308 128 l 271 165 l 164 56 l 56 164 l 164 272 l 122 314 l 122 606 l 165 649 l 56 757 l 164 865 l 272 756 l 308 792 l 608 792 l 644 756 l 751 865 l 860 757 l 751 649 l 794 606 l 794 314 l 753 272 m 551 289 l 617 354 l 617 565 l 551 631 l 365 631 l 300 565 l 300 354 l 365 289 l 551 289 z "},"$":{"ha":885,"x_min":69,"x_max":822,"o":"m 822 426 l 822 153 l 669 0 l 528 0 l 528 -153 l 369 -153 l 369 0 l 219 0 l 69 150 l 69 289 l 256 289 l 256 207 l 301 161 l 369 161 l 369 415 l 222 415 l 72 565 l 72 822 l 222 972 l 369 972 l 369 1125 l 528 1125 l 528 972 l 661 972 l 811 822 l 811 682 l 625 682 l 625 765 l 579 811 l 528 811 l 528 576 l 672 576 l 822 426 m 369 576 l 369 811 l 304 811 l 258 765 l 258 622 l 304 576 l 369 576 m 636 369 l 590 415 l 528 415 l 528 161 l 589 161 l 636 208 l 636 369 z "},"₫":{"ha":854,"x_min":69,"x_max":861,"o":"m 861 764 l 753 764 l 753 0 l 581 0 l 581 107 l 474 0 l 213 0 l 69 144 l 69 547 l 213 692 l 488 692 l 569 621 l 569 764 l 351 764 l 351 894 l 569 894 l 569 992 l 753 992 l 753 894 l 861 894 l 861 764 m 569 451 l 475 536 l 306 536 l 253 482 l 253 210 l 306 156 l 457 156 l 569 271 l 569 451 m 139 -72 l 708 -72 l 708 -217 l 139 -217 l 139 -72 z "},"€":{"ha":979,"x_min":21,"x_max":938,"o":"m 749 667 l 749 746 l 683 811 l 406 811 l 335 740 l 335 660 l 614 660 l 614 521 l 335 521 l 335 440 l 614 440 l 614 301 l 335 301 l 335 232 l 406 161 l 683 161 l 749 226 l 749 306 l 938 306 l 938 157 l 781 0 l 306 0 l 146 160 l 146 301 l 21 301 l 21 440 l 146 440 l 146 521 l 21 521 l 21 660 l 146 660 l 146 813 l 306 972 l 781 972 l 938 815 l 938 667 l 749 667 z "},"ƒ":{"ha":868,"x_min":28,"x_max":840,"o":"m 590 774 l 565 650 l 826 650 l 826 496 l 533 496 l 454 111 l 314 -31 l 28 -31 l 28 121 l 231 121 l 279 169 l 343 496 l 131 496 l 131 650 l 374 650 l 408 825 l 549 967 l 840 967 l 840 815 l 632 815 l 590 774 z "},"₲":{"ha":939,"x_min":76,"x_max":876,"o":"m 688 667 l 688 744 l 622 811 l 558 811 l 558 542 l 876 542 l 876 157 l 719 0 l 558 0 l 558 -153 l 400 -153 l 400 0 l 236 0 l 76 160 l 76 813 l 236 972 l 400 972 l 400 1125 l 558 1125 l 558 972 l 719 972 l 876 815 l 876 667 l 688 667 m 400 811 l 336 811 l 265 740 l 265 232 l 336 161 l 400 161 l 400 811 m 558 381 l 558 161 l 628 161 l 693 226 l 693 381 l 558 381 z "},"₤":{"ha":878,"x_min":56,"x_max":850,"o":"m 850 158 l 850 0 l 79 0 l 79 203 l 167 304 l 56 304 l 56 443 l 185 443 l 185 504 l 56 504 l 56 643 l 185 643 l 185 797 l 360 972 l 681 972 l 836 817 l 836 697 l 653 697 l 653 763 l 601 814 l 442 814 l 371 743 l 371 643 l 700 643 l 700 504 l 371 504 l 371 443 l 700 443 l 700 304 l 371 304 l 271 188 l 271 158 l 850 158 z "},"₺":{"ha":882,"x_min":56,"x_max":847,"o":"m 847 417 l 847 267 l 581 0 l 194 0 l 194 332 l 56 288 l 56 426 l 194 471 l 194 544 l 56 500 l 56 639 l 194 683 l 194 972 l 381 972 l 381 742 l 619 818 l 619 679 l 381 603 l 381 529 l 619 606 l 619 467 l 381 390 l 381 161 l 503 161 l 664 319 l 664 417 l 847 417 z "},"₦":{"ha":1101,"x_min":14,"x_max":1088,"o":"m 1088 407 l 940 407 l 940 0 l 771 0 l 503 407 l 335 407 l 335 0 l 153 0 l 153 407 l 14 407 l 14 563 l 153 563 l 153 972 l 322 972 l 592 563 l 758 563 l 758 972 l 940 972 l 940 563 l 1088 563 l 1088 407 m 400 563 l 338 658 l 335 658 l 335 563 l 400 563 m 758 407 l 693 407 l 756 313 l 758 313 l 758 407 z "},"₧":{"ha":1044,"x_min":14,"x_max":1031,"o":"m 1031 575 l 911 575 l 911 482 l 761 331 l 342 331 l 342 0 l 153 0 l 153 575 l 14 575 l 14 731 l 153 731 l 153 972 l 763 972 l 911 822 l 911 731 l 1031 731 l 1031 575 m 342 731 l 725 731 l 725 765 l 676 814 l 342 814 l 342 731 m 725 575 l 342 575 l 342 489 l 676 489 l 725 538 l 725 575 z "},"₱":{"ha":1044,"x_min":14,"x_max":1031,"o":"m 911 676 l 911 626 l 1031 626 l 1031 526 l 911 526 l 911 482 l 761 331 l 342 331 l 342 0 l 153 0 l 153 526 l 14 526 l 14 626 l 153 626 l 153 676 l 14 676 l 14 776 l 153 776 l 153 972 l 763 972 l 911 822 l 911 776 l 1031 776 l 1031 676 l 911 676 m 342 776 l 714 776 l 676 814 l 342 814 l 342 776 m 725 676 l 342 676 l 342 626 l 725 626 l 725 676 m 714 526 l 342 526 l 342 489 l 676 489 l 714 526 z "},"₽":{"ha":960,"x_min":14,"x_max":911,"o":"m 911 822 l 911 482 l 761 331 l 342 331 l 342 253 l 593 253 l 593 111 l 342 111 l 342 0 l 153 0 l 153 111 l 14 111 l 14 253 l 153 253 l 153 331 l 14 331 l 14 486 l 153 486 l 153 972 l 763 972 l 911 822 m 342 489 l 676 489 l 725 538 l 725 765 l 676 814 l 342 814 l 342 489 z "},"₹":{"ha":931,"x_min":56,"x_max":875,"o":"m 875 831 l 653 831 l 703 781 l 703 739 l 875 739 l 875 603 l 703 603 l 703 528 l 607 432 l 708 322 l 708 0 l 519 0 l 519 281 l 432 374 l 56 374 l 56 529 l 467 529 l 517 578 l 517 603 l 56 603 l 56 739 l 517 739 l 517 765 l 467 814 l 56 814 l 56 972 l 875 972 l 875 831 z "},"£":{"ha":878,"x_min":56,"x_max":850,"o":"m 850 158 l 850 0 l 79 0 l 79 203 l 185 325 l 185 386 l 56 386 l 56 542 l 185 542 l 185 797 l 360 972 l 681 972 l 836 817 l 836 697 l 653 697 l 653 763 l 601 814 l 442 814 l 371 743 l 371 542 l 700 542 l 700 386 l 371 386 l 371 304 l 271 188 l 271 158 l 850 158 z "},"¥":{"ha":881,"x_min":0,"x_max":881,"o":"m 571 457 l 750 457 l 750 321 l 535 321 l 535 257 l 750 257 l 750 121 l 535 121 l 535 0 l 346 0 l 346 121 l 131 121 l 131 257 l 346 257 l 346 321 l 131 321 l 131 457 l 310 457 l 0 972 l 207 972 l 439 574 l 442 574 l 674 972 l 881 972 l 571 457 z "},"∙":{"ha":517,"x_min":61,"x_max":456,"o":"m 61 318 l 61 489 l 168 600 l 349 600 l 456 489 l 456 318 l 349 207 l 168 207 l 61 318 z "},"∕":{"ha":213,"x_min":-247,"x_max":481,"o":"m 292 974 l 481 974 l -58 0 l -247 0 l 292 974 z "},"+":{"ha":783,"x_min":56,"x_max":728,"o":"m 728 289 l 483 289 l 483 68 l 300 68 l 300 289 l 56 289 l 56 444 l 300 444 l 300 665 l 483 665 l 483 444 l 728 444 l 728 289 z "},"−":{"ha":783,"x_min":56,"x_max":728,"o":"m 56 444 l 728 444 l 728 289 l 56 289 l 56 444 z "},"×":{"ha":706,"x_min":56,"x_max":650,"o":"m 467 367 l 650 183 l 536 69 l 353 253 l 169 69 l 56 183 l 239 367 l 56 550 l 169 664 l 353 481 l 536 664 l 650 550 l 467 367 z "},"÷":{"ha":783,"x_min":56,"x_max":728,"o":"m 293 558 l 293 633 l 349 689 l 435 689 l 490 633 l 490 558 l 435 503 l 349 503 l 293 558 m 56 444 l 728 444 l 728 289 l 56 289 l 56 444 m 292 100 l 292 175 l 347 231 l 433 231 l 489 175 l 489 100 l 433 44 l 347 44 l 292 100 z "},"=":{"ha":783,"x_min":56,"x_max":728,"o":"m 56 567 l 728 567 l 728 411 l 56 411 l 56 567 m 56 322 l 728 322 l 728 167 l 56 167 l 56 322 z "},"≠":{"ha":783,"x_min":56,"x_max":728,"o":"m 503 411 l 464 322 l 728 322 l 728 167 l 396 167 l 329 14 l 146 14 l 213 167 l 56 167 l 56 322 l 281 322 l 319 411 l 56 411 l 56 567 l 388 567 l 454 719 l 638 719 l 571 567 l 728 567 l 728 411 l 503 411 z "},">":{"ha":853,"x_min":56,"x_max":811,"o":"m 56 181 l 586 399 l 586 407 l 56 614 l 56 794 l 811 482 l 811 324 l 56 0 l 56 181 z "},"<":{"ha":853,"x_min":56,"x_max":811,"o":"m 56 324 l 56 482 l 811 794 l 811 614 l 281 407 l 281 399 l 811 181 l 811 0 l 56 324 z "},"≥":{"ha":853,"x_min":56,"x_max":811,"o":"m 56 326 l 585 494 l 585 503 l 56 663 l 56 819 l 811 579 l 811 424 l 56 169 l 56 326 m 56 144 l 811 144 l 811 0 l 56 0 l 56 144 z "},"≤":{"ha":853,"x_min":56,"x_max":811,"o":"m 56 424 l 56 579 l 811 819 l 811 663 l 282 503 l 282 494 l 811 326 l 811 169 l 56 424 m 56 0 l 56 144 l 811 144 l 811 0 l 56 0 z "},"±":{"ha":783,"x_min":56,"x_max":728,"o":"m 728 583 l 728 428 l 483 428 l 483 228 l 300 228 l 300 428 l 56 428 l 56 583 l 300 583 l 300 797 l 483 797 l 483 583 l 728 583 m 56 156 l 728 156 l 728 0 l 56 0 l 56 156 z "},"≈":{"ha":800,"x_min":56,"x_max":744,"o":"m 289 507 l 263 507 l 231 474 l 231 390 l 56 390 l 56 513 l 199 657 l 335 657 l 511 526 l 532 526 l 569 565 l 569 643 l 744 643 l 744 521 l 601 376 l 465 376 l 289 507 m 289 188 l 263 188 l 231 154 l 231 71 l 56 71 l 56 193 l 199 338 l 335 338 l 511 207 l 532 207 l 569 246 l 569 324 l 744 324 l 744 201 l 601 57 l 465 57 l 289 188 z "},"~":{"ha":814,"x_min":56,"x_max":758,"o":"m 293 363 l 269 363 l 236 328 l 236 242 l 56 242 l 56 381 l 201 528 l 340 528 l 521 393 l 539 393 l 578 433 l 578 514 l 758 514 l 758 375 l 613 228 l 474 228 l 293 363 z "},"¬":{"ha":779,"x_min":56,"x_max":724,"o":"m 540 408 l 56 408 l 56 564 l 724 564 l 724 203 l 540 203 l 540 408 z "},"^":{"ha":913,"x_min":56,"x_max":857,"o":"m 368 972 l 540 972 l 857 339 l 665 339 l 458 768 l 450 768 l 247 339 l 56 339 l 368 972 z "},"∞":{"ha":1307,"x_min":56,"x_max":1251,"o":"m 56 307 l 56 524 l 251 721 l 483 721 l 647 556 l 810 721 l 1056 721 l 1251 524 l 1251 307 l 1056 110 l 851 110 l 675 288 l 497 110 l 251 110 l 56 307 m 426 265 l 568 408 l 413 565 l 335 565 l 239 468 l 239 363 l 335 265 l 426 265 m 972 265 l 1068 360 l 1068 471 l 972 565 l 882 565 l 753 436 l 924 265 l 972 265 z "},"∫":{"ha":675,"x_min":-21,"x_max":696,"o":"m -21 -22 l 114 -22 l 169 35 l 326 825 l 465 967 l 696 967 l 696 814 l 550 814 l 500 763 l 343 -33 l 204 -175 l -21 -175 l -21 -22 z "},"∏":{"ha":968,"x_min":90,"x_max":878,"o":"m 90 972 l 878 972 l 878 -153 l 694 -153 l 694 817 l 274 817 l 274 -153 l 90 -153 l 90 972 z "},"∑":{"ha":829,"x_min":56,"x_max":801,"o":"m 56 33 l 351 403 l 56 764 l 56 972 l 801 972 l 801 814 l 242 814 l 242 808 l 542 442 l 542 365 l 242 -11 l 242 -17 l 801 -17 l 801 -175 l 56 -175 l 56 33 z "},"√":{"ha":853,"x_min":42,"x_max":839,"o":"m 163 300 l 42 300 l 42 456 l 279 456 l 368 213 l 376 213 l 656 972 l 839 972 l 471 0 l 279 0 l 163 300 z "},"∂":{"ha":822,"x_min":56,"x_max":767,"o":"m 56 150 l 56 492 l 206 642 l 496 642 l 581 569 l 581 674 l 474 817 l 260 817 l 260 972 l 567 972 l 767 701 l 767 150 l 617 0 l 206 0 l 56 150 m 532 161 l 581 210 l 581 383 l 471 481 l 290 481 l 242 432 l 242 210 l 290 161 l 532 161 z "},"%":{"ha":1215,"x_min":56,"x_max":1160,"o":"m 56 572 l 56 861 l 167 972 l 408 972 l 519 861 l 519 572 l 408 461 l 167 461 l 56 572 m 779 972 l 968 972 l 436 0 l 247 0 l 779 972 m 328 600 l 358 631 l 358 803 l 328 833 l 247 833 l 217 803 l 217 631 l 247 600 l 328 600 m 696 111 l 696 400 l 807 511 l 1049 511 l 1160 400 l 1160 111 l 1049 0 l 807 0 l 696 111 m 968 139 l 999 169 l 999 342 l 968 372 l 888 372 l 857 342 l 857 169 l 888 139 l 968 139 z "},"‰":{"ha":1735,"x_min":56,"x_max":1679,"o":"m 56 572 l 56 861 l 167 972 l 408 972 l 519 861 l 519 572 l 408 461 l 167 461 l 56 572 m 779 972 l 968 972 l 436 0 l 247 0 l 779 972 m 328 600 l 358 631 l 358 803 l 328 833 l 247 833 l 217 803 l 217 631 l 247 600 l 328 600 m 696 111 l 696 400 l 807 511 l 1049 511 l 1160 400 l 1160 111 l 1049 0 l 807 0 l 696 111 m 1215 111 l 1215 400 l 1326 511 l 1568 511 l 1679 400 l 1679 111 l 1568 0 l 1326 0 l 1215 111 m 968 139 l 999 169 l 999 342 l 968 372 l 888 372 l 857 342 l 857 169 l 888 139 l 968 139 m 1488 139 l 1518 169 l 1518 342 l 1488 372 l 1407 372 l 1376 342 l 1376 169 l 1407 139 l 1488 139 z "},"↑":{"ha":608,"x_min":56,"x_max":553,"o":"m 217 586 l 56 456 l 56 628 l 272 813 l 336 813 l 553 628 l 553 456 l 392 586 l 392 -47 l 217 -47 l 217 586 z "},"→":{"ha":971,"x_min":56,"x_max":915,"o":"m 689 288 l 56 286 l 56 461 l 689 463 l 558 624 l 731 624 l 915 407 l 915 343 l 731 126 l 558 126 l 689 288 z "},"↓":{"ha":608,"x_min":56,"x_max":553,"o":"m 56 138 l 56 310 l 217 179 l 217 813 l 392 813 l 392 179 l 553 310 l 553 138 l 336 -47 l 272 -47 l 56 138 z "},"←":{"ha":971,"x_min":56,"x_max":915,"o":"m 56 343 l 56 407 l 240 624 l 413 624 l 282 463 l 915 461 l 915 286 l 282 288 l 413 126 l 240 126 l 56 343 z "},"◆":{"ha":839,"x_min":56,"x_max":783,"o":"m 56 458 l 418 832 l 783 458 l 418 86 l 56 458 z "},"◊":{"ha":797,"x_min":56,"x_max":742,"o":"m 56 472 l 307 944 l 490 944 l 742 472 l 490 0 l 307 0 l 56 472 m 403 183 l 551 472 l 403 761 l 394 761 l 246 472 l 394 183 l 403 183 z "},"■":{"ha":778,"x_min":56,"x_max":722,"o":"m 56 838 l 722 838 l 722 165 l 56 165 l 56 838 z "},"▲":{"ha":917,"x_min":56,"x_max":861,"o":"m 458 817 l 861 0 l 56 0 l 458 817 z "},"▶":{"ha":918,"x_min":56,"x_max":863,"o":"m 56 814 l 863 406 l 56 -3 l 56 814 z "},"▼":{"ha":917,"x_min":56,"x_max":861,"o":"m 56 811 l 861 811 l 458 -7 l 56 811 z "},"◀":{"ha":918,"x_min":56,"x_max":863,"o":"m 56 406 l 863 814 l 863 -3 l 56 406 z "},"△":{"ha":917,"x_min":56,"x_max":861,"o":"m 458 817 l 861 0 l 56 0 l 458 817 m 653 128 l 458 533 l 264 128 l 653 128 z "},"▷":{"ha":928,"x_min":56,"x_max":872,"o":"m 56 807 l 872 404 l 56 0 l 56 807 m 603 404 l 192 600 l 192 207 l 603 404 z "},"▽":{"ha":917,"x_min":56,"x_max":861,"o":"m 56 817 l 861 817 l 458 0 l 56 817 m 653 689 l 264 689 l 458 283 l 653 689 z "},"◁":{"ha":928,"x_min":56,"x_max":872,"o":"m 56 404 l 872 807 l 872 0 l 56 404 m 736 600 l 325 404 l 736 207 l 736 600 z "},"":{"ha":749,"x_min":90,"x_max":658,"o":"m 90 989 l 658 989 l 658 0 l 90 0 l 90 989 m 581 75 l 581 913 l 168 913 l 168 75 l 581 75 z "},"@":{"ha":1160,"x_min":56,"x_max":1104,"o":"m 704 211 l 704 239 l 607 146 l 444 146 l 313 278 l 313 525 l 446 658 l 615 658 l 685 589 l 685 653 l 815 653 l 815 282 l 881 282 l 946 350 l 946 558 l 756 749 l 421 749 l 217 544 l 217 271 l 418 69 l 992 69 l 992 -72 l 333 -72 l 56 206 l 56 610 l 336 890 l 832 890 l 1104 618 l 1104 300 l 950 146 l 769 146 l 704 211 m 654 471 l 606 519 l 517 519 l 476 479 l 476 329 l 518 288 l 593 288 l 654 349 l 654 471 z "},"&":{"ha":919,"x_min":69,"x_max":906,"o":"m 69 149 l 69 413 l 156 500 l 110 547 l 110 822 l 258 972 l 631 972 l 776 825 l 776 722 l 593 722 l 593 767 l 550 811 l 336 811 l 293 767 l 293 606 l 339 558 l 636 558 l 636 650 l 814 650 l 814 558 l 906 558 l 906 400 l 817 400 l 817 150 l 668 0 l 218 0 l 69 149 m 588 161 l 633 208 l 633 400 l 299 400 l 253 354 l 253 207 l 299 161 l 588 161 z "},"¶":{"ha":840,"x_min":56,"x_max":750,"o":"m 336 388 l 214 388 l 56 546 l 56 814 l 214 972 l 501 972 l 501 -283 l 336 -283 l 336 388 m 583 972 l 750 972 l 750 -283 l 583 -283 l 583 972 z "},"§":{"ha":758,"x_min":56,"x_max":703,"o":"m 703 364 l 624 285 l 682 225 l 682 69 l 546 -67 l 221 -67 l 85 69 l 85 165 l 271 165 l 271 115 l 303 83 l 469 83 l 501 115 l 501 189 l 468 228 l 188 228 l 56 360 l 56 547 l 132 621 l 76 676 l 76 836 l 213 972 l 539 972 l 675 836 l 675 740 l 489 740 l 489 790 l 457 822 l 289 822 l 257 790 l 257 711 l 290 678 l 567 678 l 703 542 l 703 364 m 490 375 l 522 407 l 522 497 l 489 531 l 268 531 l 236 499 l 236 408 l 269 375 l 490 375 z "},"©":{"ha":1164,"x_min":56,"x_max":1108,"o":"m 56 268 l 56 704 l 324 972 l 840 972 l 1108 704 l 1108 268 l 840 0 l 324 0 l 56 268 m 775 142 l 958 325 l 958 647 l 775 831 l 389 831 l 206 647 l 206 325 l 389 142 l 775 142 m 300 368 l 300 604 l 456 760 l 713 761 l 867 607 l 867 524 l 719 524 l 719 564 l 663 621 l 518 621 l 456 558 l 456 414 l 518 351 l 663 351 l 719 408 l 719 454 l 867 454 l 867 367 l 714 213 l 456 213 l 300 368 z "},"®":{"ha":774,"x_min":56,"x_max":718,"o":"m 56 529 l 56 839 l 225 1008 l 549 1008 l 718 839 l 718 529 l 549 360 l 225 360 l 56 529 m 504 467 l 601 564 l 601 804 l 504 901 l 269 901 l 172 804 l 172 564 l 269 467 l 504 467 m 257 847 l 469 847 l 528 789 l 528 688 l 493 656 l 529 617 l 529 538 l 435 538 l 435 596 l 408 624 l 351 624 l 351 538 l 257 538 l 257 847 m 419 701 l 436 718 l 436 756 l 419 772 l 349 772 l 349 701 l 419 701 z "},"℗":{"ha":1164,"x_min":56,"x_max":1108,"o":"m 56 268 l 56 704 l 324 972 l 840 972 l 1108 704 l 1108 268 l 840 0 l 324 0 l 56 268 m 775 142 l 958 325 l 958 647 l 775 831 l 389 831 l 206 647 l 206 325 l 389 142 l 775 142 m 363 757 l 749 757 l 860 646 l 860 474 l 749 363 l 513 363 l 513 214 l 363 214 l 363 757 m 679 483 l 713 517 l 713 603 l 679 636 l 513 636 l 513 483 l 679 483 z "},"™":{"ha":1147,"x_min":56,"x_max":1092,"o":"m 192 835 l 56 835 l 56 972 l 493 972 l 493 835 l 356 835 l 356 488 l 192 488 l 192 835 m 539 972 l 701 972 l 814 756 l 815 756 l 931 972 l 1092 972 l 1092 488 l 936 488 l 936 738 l 932 738 l 842 575 l 788 575 l 699 738 l 694 738 l 694 488 l 539 488 l 539 972 z "},"°":{"ha":503,"x_min":56,"x_max":447,"o":"m 56 743 l 56 899 l 165 1008 l 338 1008 l 447 899 l 447 743 l 338 633 l 165 633 l 56 743 m 283 751 l 321 789 l 321 853 l 283 890 l 219 890 l 182 853 l 182 789 l 219 751 l 283 751 z "},"′":{"ha":347,"x_min":56,"x_max":306,"o":"m 119 972 l 306 972 l 219 656 l 56 656 l 119 972 z "},"″":{"ha":588,"x_min":56,"x_max":546,"o":"m 119 972 l 306 972 l 219 656 l 56 656 l 119 972 m 360 972 l 546 972 l 460 656 l 296 656 l 360 972 z "},"|":{"ha":367,"x_min":90,"x_max":276,"o":"m 90 1175 l 276 1175 l 276 -283 l 90 -283 l 90 1175 z "},"¦":{"ha":367,"x_min":90,"x_max":276,"o":"m 90 1175 l 276 1175 l 276 549 l 90 549 l 90 1175 m 90 371 l 276 371 l 276 -283 l 90 -283 l 90 371 z "},"ℓ":{"ha":706,"x_min":-7,"x_max":650,"o":"m 650 272 l 650 136 l 515 0 l 274 0 l 139 136 l 139 314 l 54 272 l -7 403 l 139 476 l 139 836 l 274 972 l 510 972 l 644 836 l 644 560 l 325 404 l 325 188 l 356 156 l 436 156 l 467 188 l 467 272 l 650 272 m 325 571 l 458 638 l 458 788 l 428 819 l 356 819 l 325 788 l 325 571 z "},"†":{"ha":744,"x_min":56,"x_max":689,"o":"m 279 536 l 56 536 l 56 692 l 279 692 l 279 935 l 465 935 l 465 692 l 689 692 l 689 536 l 465 536 l 465 -139 l 279 -139 l 279 536 z "},"‡":{"ha":744,"x_min":56,"x_max":689,"o":"m 465 536 l 465 260 l 689 260 l 689 104 l 465 104 l 465 -139 l 279 -139 l 279 104 l 56 104 l 56 260 l 279 260 l 279 536 l 56 536 l 56 692 l 279 692 l 279 935 l 465 935 l 465 692 l 689 692 l 689 536 l 465 536 z "},"℮":{"ha":1106,"x_min":76,"x_max":1029,"o":"m 569 -14 q 317 45 429 -14 q 140 210 204 104 q 76 454 76 317 q 140 698 76 592 q 313 863 203 804 q 560 922 422 922 q 800 867 693 922 q 968 710 907 811 q 1029 476 1029 608 l 1029 453 l 278 453 l 278 132 q 394 56 314 85 q 569 28 475 28 q 777 75 679 28 q 928 200 875 122 l 979 200 q 810 45 922 104 q 569 -14 697 -14 m 844 496 l 844 785 q 728 853 806 826 q 560 881 650 881 q 396 856 474 881 q 278 790 318 831 l 278 496 l 844 496 z "},"℠":{"ha":1188,"x_min":56,"x_max":1132,"o":"m 56 582 l 56 642 l 214 642 l 214 619 l 228 606 l 350 606 l 364 619 l 364 658 l 350 672 l 151 672 l 57 768 l 57 878 l 151 972 l 422 972 l 514 881 l 514 819 l 358 819 l 358 840 l 344 854 l 226 854 l 213 840 l 213 803 l 226 789 l 432 789 l 519 701 l 519 583 l 424 488 l 150 488 l 56 582 m 579 972 l 742 972 l 854 756 l 856 756 l 971 972 l 1132 972 l 1132 488 l 976 488 l 976 738 l 972 738 l 882 575 l 828 575 l 739 738 l 735 738 l 735 488 l 579 488 l 579 972 z "},"ʼ":{"ha":292,"x_min":54,"x_max":276,"o":"m 144 842 l 114 842 l 54 901 l 54 990 l 114 1050 l 218 1050 l 276 989 l 276 842 l 197 656 l 89 656 l 144 842 z "},"ʻ":{"ha":335,"x_min":65,"x_max":288,"o":"m 197 950 l 228 950 l 288 890 l 288 801 l 228 742 l 124 742 l 65 803 l 65 950 l 144 1136 l 253 1136 l 197 950 z "},"ˉ":{"ha":683,"x_min":78,"x_max":606,"o":"m 78 897 l 606 897 l 606 769 l 78 769 l 78 897 z "},"ˋ":{"ha":0,"x_min":-169,"x_max":213,"o":"m -169 990 l 24 990 l 213 756 l 51 756 l -169 990 z "},"ʿ":{"ha":0,"x_min":-172,"x_max":0,"o":"m -172 851 l -172 988 l -76 1083 l 0 1083 l 0 979 l -31 979 l -64 946 l -64 893 l -31 860 l 0 860 l 0 756 l -76 756 l -172 851 z "},"ʾ":{"ha":0,"x_min":0,"x_max":172,"o":"m 0 860 l 31 860 l 64 893 l 64 946 l 31 979 l 0 979 l 0 1083 l 76 1083 l 172 988 l 172 851 l 76 756 l 0 756 l 0 860 z "},"ˊ":{"ha":0,"x_min":-169,"x_max":213,"o":"m 19 990 l 213 990 l -8 756 l -169 756 l 19 990 z "},"ˌ":{"ha":0,"x_min":-86,"x_max":86,"o":"m -86 -47 l 86 -47 l 86 -296 l -86 -296 l -86 -47 z "},"ˈ":{"ha":0,"x_min":-86,"x_max":86,"o":"m -86 1014 l 86 1014 l 86 765 l -86 765 l -86 1014 z "},"̈":{"ha":0,"x_min":-253,"x_max":253,"o":"m -253 819 l -253 900 l -199 954 l -106 954 l -53 899 l -53 821 l -106 765 l -199 765 l -253 819 m 53 821 l 53 899 l 106 954 l 199 954 l 253 900 l 253 819 l 199 765 l 106 765 l 53 821 z "},"̇":{"ha":0,"x_min":-106,"x_max":106,"o":"m -106 817 l -106 903 l -49 960 l 49 960 l 106 903 l 106 817 l 49 760 l -49 760 l -106 817 z "},"̀":{"ha":0,"x_min":-225,"x_max":74,"o":"m -225 990 l -32 990 l 74 756 l -87 756 l -225 990 z "},"́":{"ha":0,"x_min":-83,"x_max":215,"o":"m 22 990 l 215 990 l 78 756 l -83 756 l 22 990 z "},"̋":{"ha":0,"x_min":-214,"x_max":307,"o":"m -114 990 l 68 990 l -64 756 l -214 756 l -114 990 m 125 990 l 307 990 l 174 756 l 24 756 l 125 990 z "},"̂":{"ha":0,"x_min":-271,"x_max":271,"o":"m -74 979 l 74 979 l 271 756 l 94 756 l 4 860 l -4 860 l -94 756 l -271 756 l -74 979 z "},"̌":{"ha":0,"x_min":-271,"x_max":271,"o":"m -271 979 l -94 979 l -4 875 l 4 875 l 94 979 l 271 979 l 74 756 l -74 756 l -271 979 z "},"̆":{"ha":0,"x_min":-233,"x_max":233,"o":"m -233 871 l -233 976 l -78 976 l -78 910 l -40 872 l 40 872 l 78 910 l 78 976 l 233 976 l 233 871 l 118 756 l -118 756 l -233 871 z "},"̊":{"ha":0,"x_min":-172,"x_max":172,"o":"m -172 851 l -172 988 l -76 1083 l 76 1083 l 172 988 l 172 851 l 76 756 l -76 756 l -172 851 m 31 860 l 64 893 l 64 946 l 31 979 l -31 979 l -64 946 l -64 893 l -31 860 l 31 860 z "},"̃":{"ha":0,"x_min":-242,"x_max":242,"o":"m -60 842 l -90 842 l -108 825 l -108 779 l -242 778 l -242 876 l -146 972 l -29 972 l 60 900 l 92 900 l 108 917 l 108 964 l 242 964 l 242 865 l 146 769 l 29 769 l -60 842 z "},"̄":{"ha":0,"x_min":-236,"x_max":236,"o":"m -236 917 l 236 917 l 236 769 l -236 769 l -236 917 z "},"̉":{"ha":0,"x_min":-186,"x_max":186,"o":"m -81 836 l 43 929 l 43 968 l 26 985 l -26 985 l -43 968 l -43 914 l -186 914 l -186 1008 l -93 1101 l 93 1101 l 186 1008 l 186 889 l 82 811 l 82 756 l -81 756 l -81 836 z "},"̛":{"ha":0,"x_min":-85,"x_max":210,"o":"m -85 586 l 6 586 l 54 635 l 54 740 l 210 740 l 210 586 l 76 453 l -85 453 l -85 586 z "},"̣":{"ha":0,"x_min":-106,"x_max":106,"o":"m -106 -208 l -106 -122 l -49 -65 l 49 -65 l 106 -122 l 106 -208 l 49 -265 l -49 -265 l -106 -208 z "},"̤":{"ha":0,"x_min":-253,"x_max":253,"o":"m -253 -206 l -253 -125 l -199 -71 l -106 -71 l -53 -126 l -53 -204 l -106 -260 l -199 -260 l -253 -206 m 53 -204 l 53 -126 l 106 -71 l 199 -71 l 253 -125 l 253 -206 l 199 -260 l 106 -260 l 53 -204 z "},"̦":{"ha":0,"x_min":-111,"x_max":111,"o":"m -21 -294 l -51 -294 l -111 -235 l -111 -146 l -51 -86 l 53 -86 l 111 -147 l 111 -294 l 32 -481 l -76 -481 l -21 -294 z "}}}
